STARTFONT 2.1
FONT -DEC-VT220-medium-r-Normal-136col-200-2000-75-75-m-450-iso10646-1
SIZE 200 75 75
FONTBOUNDINGBOX 45 200 0 -40
STARTPROPERTIES 22
FONTNAME_REGISTRY ""
FOUNDRY "DEC"
FAMILY_NAME "vt220"
WEIGHT_NAME "medium"
RELATIVE_SETWIDTH 10
SLANT r
SETWIDTH_NAME "Normal"
ADD_STYLE_NAME "136col"
PIXEL_SIZE 200
POINT_SIZE 2000
RESOLUTION_X 75
RESOLUTION_Y 75
SPACING "m"
CHARSET_REGISTRY "ISO10646"
CHARSET_ENCODING "1"
CAP_HEIGHT 140
X_HEIGHT 100
WEIGHT 10
QUAD_WIDTH 45
DEFAULT_CHAR 9670
FONT_ASCENT 160
FONT_DESCENT 40
AVERAGE_WIDTH 450
ENDPROPERTIES
CHARS 288
STARTCHAR U+00FD
ENCODING 253
SWIDTH 1000 0
BBX 45 200 0 -40
DWIDTH 45 0
BITMAP
000000000000
000000000000
000000000000
000000000000
000000000000
000000000000
000000000000
000000000000
000000000000
000000000000
000000000000
000000000000
000000000000
000000000000
000000000000
000000000000
000000000000
000000000000
000000000000
000000000000
FFC00FFC0000
FFC00FFC0000
FFC00FFC0000
FFC00FFC0000
FFC00FFC0000
FFC00FFC0000
FFC00FFC0000
FFC00FFC0000
FFC00FFC0000
FFC00FFC0000
FFC00FFC0000
FFC00FFC0000
FFC00FFC0000
FFC00FFC0000
FFC00FFC0000
FFC00FFC0000
FFC00FFC0000
FFC00FFC0000
FFC00FFC0000
FFC00FFC0000
FFFE0FFC0000
FFFE0FFC0000
FFFE0FFC0000
FFFE0FFC0000
FFFE0FFC0000
FFFE0FFC0000
FFFE0FFC0000
FFFE0FFC0000
FFFE0FFC0000
FFFE0FFC0000
FFFE0FFC0000
FFFE0FFC0000
FFFE0FFC0000
FFFE0FFC0000
FFFE0FFC0000
FFFE0FFC0000
FFFE0FFC0000
FFFE0FFC0000
FFFE0FFC0000
FFFE0FFC0000
FFFFFFFC0000
FFFFFFFC0000
FFFFFFFC0000
FFFFFFFC0000
FFFFFFFC0000
FFFFFFFC0000
FFFFFFFC0000
FFFFFFFC0000
FFFFFFFC0000
FFFFFFFC0000
FFFFFFFC0000
FFFFFFFC0000
FFFFFFFC0000
FFFFFFFC0000
FFFFFFFC0000
FFFFFFFC0000
FFFFFFFC0000
FFFFFFFC0000
FFFFFFFC0000
FFFFFFFC0000
FFC1FFFC0000
FFC1FFFC0000
FFC1FFFC0000
FFC1FFFC0000
FFC1FFFC0000
FFC1FFFC0000
FFC1FFFC0000
FFC1FFFC0000
FFC1FFFC0000
FFC1FFFC0000
FFC1FFFC0000
FFC1FFFC0000
FFC1FFFC0000
FFC1FFFC0000
FFC1FFFC0000
FFC1FFFC0000
FFC1FFFC0000
FFC1FFFC0000
FFC1FFFC0000
FFC1FFFC0000
FFC1FFFFFF00
FFC1FFFFFF00
FFC1FFFFFF00
FFC1FFFFFF00
FFC1FFFFFF00
FFC1FFFFFF00
FFC1FFFFFF00
FFC1FFFFFF00
FFC1FFFFFF00
FFC1FFFFFF00
FFC1FFFFFF00
FFC1FFFFFF00
FFC1FFFFFF00
FFC1FFFFFF00
FFC1FFFFFF00
FFC1FFFFFF00
FFC1FFFFFF00
FFC1FFFFFF00
FFC1FFFFFF00
FFC1FFFFFF00
0001FF83FF00
0001FF83FF00
0001FF83FF00
0001FF83FF00
0001FF83FF00
0001FF83FF00
0001FF83FF00
0001FF83FF00
0001FF83FF00
0001FF83FF00
0001FF83FF00
0001FF83FF00
0001FF83FF00
0001FF83FF00
0001FF83FF00
0001FF83FF00
0001FF83FF00
0001FF83FF00
0001FF83FF00
0001FF83FF00
0001FF83FF00
0001FF83FF00
0001FF83FF00
0001FF83FF00
0001FF83FF00
0001FF83FF00
0001FF83FF00
0001FF83FF00
0001FF83FF00
0001FF83FF00
0001FF83FF00
0001FF83FF00
0001FF83FF00
0001FF83FF00
0001FF83FF00
0001FF83FF00
0001FF83FF00
0001FF83FF00
0001FF83FF00
0001FF83FF00
0001FF83FF00
0001FF83FF00
0001FF83FF00
0001FF83FF00
0001FF83FF00
0001FF83FF00
0001FF83FF00
0001FF83FF00
0001FF83FF00
0001FF83FF00
0001FF83FF00
0001FF83FF00
0001FF83FF00
0001FF83FF00
0001FF83FF00
0001FF83FF00
0001FF83FF00
0001FF83FF00
0001FF83FF00
0001FF83FF00
00000FFFE000
00000FFFE000
00000FFFE000
00000FFFE000
00000FFFE000
00000FFFE000
00000FFFE000
00000FFFE000
00000FFFE000
00000FFFE000
00000FFFE000
00000FFFE000
00000FFFE000
00000FFFE000
00000FFFE000
00000FFFE000
00000FFFE000
00000FFFE000
00000FFFE000
00000FFFE000
ENDCHAR
STARTCHAR U+25A1
ENCODING 9633
SWIDTH 1000 0
BBX 45 200 0 -40
DWIDTH 45 0
BITMAP
000000000000
000000000000
000000000000
000000000000
000000000000
000000000000
000000000000
000000000000
000000000000
000000000000
000000000000
000000000000
000000000000
000000000000
000000000000
000000000000
000000000000
000000000000
000000000000
000000000000
FFFFFFFFFF00
FFFFFFFFFF00
FFFFFFFFFF00
FFFFFFFFFF00
FFFFFFFFFF00
FFFFFFFFFF00
FFFFFFFFFF00
FFFFFFFFFF00
FFFFFFFFFF00
FFFFFFFFFF00
FFFFFFFFFF00
FFFFFFFFFF00
FFFFFFFFFF00
FFFFFFFFFF00
FFFFFFFFFF00
FFFFFFFFFF00
FFFFFFFFFF00
FFFFFFFFFF00
FFFFFFFFFF00
FFFFFFFFFF00
FFC00003FF00
FFC00003FF00
FFC00003FF00
FFC00003FF00
FFC00003FF00
FFC00003FF00
FFC00003FF00
FFC00003FF00
FFC00003FF00
FFC00003FF00
FFC00003FF00
FFC00003FF00
FFC00003FF00
FFC00003FF00
FFC00003FF00
FFC00003FF00
FFC00003FF00
FFC00003FF00
FFC00003FF00
FFC00003FF00
FFC00003FF00
FFC00003FF00
FFC00003FF00
FFC00003FF00
FFC00003FF00
FFC00003FF00
FFC00003FF00
FFC00003FF00
FFC00003FF00
FFC00003FF00
FFC00003FF00
FFC00003FF00
FFC00003FF00
FFC00003FF00
FFC00003FF00
FFC00003FF00
FFC00003FF00
FFC00003FF00
FFC00003FF00
FFC00003FF00
FFC00003FF00
FFC00003FF00
FFC00003FF00
FFC00003FF00
FFC00003FF00
FFC00003FF00
FFC00003FF00
FFC00003FF00
FFC00003FF00
FFC00003FF00
FFC00003FF00
FFC00003FF00
FFC00003FF00
FFC00003FF00
FFC00003FF00
FFC00003FF00
FFC00003FF00
FFC00003FF00
FFC00003FF00
FFC00003FF00
FFC00003FF00
FFC00003FF00
FFC00003FF00
FFC00003FF00
FFC00003FF00
FFC00003FF00
FFC00003FF00
FFC00003FF00
FFC00003FF00
FFC00003FF00
FFC00003FF00
FFC00003FF00
FFC00003FF00
FFC00003FF00
FFC00003FF00
FFC00003FF00
FFC00003FF00
FFC00003FF00
FFC00003FF00
FFC00003FF00
FFC00003FF00
FFC00003FF00
FFC00003FF00
FFC00003FF00
FFC00003FF00
FFC00003FF00
FFC00003FF00
FFC00003FF00
FFC00003FF00
FFC00003FF00
FFC00003FF00
FFC00003FF00
FFC00003FF00
FFC00003FF00
FFC00003FF00
FFC00003FF00
FFC00003FF00
FFC00003FF00
FFC00003FF00
FFC00003FF00
FFFFFFFFFF00
FFFFFFFFFF00
FFFFFFFFFF00
FFFFFFFFFF00
FFFFFFFFFF00
FFFFFFFFFF00
FFFFFFFFFF00
FFFFFFFFFF00
FFFFFFFFFF00
FFFFFFFFFF00
FFFFFFFFFF00
FFFFFFFFFF00
FFFFFFFFFF00
FFFFFFFFFF00
FFFFFFFFFF00
FFFFFFFFFF00
FFFFFFFFFF00
FFFFFFFFFF00
FFFFFFFFFF00
FFFFFFFFFF00
000000000000
000000000000
000000000000
000000000000
000000000000
000000000000
000000000000
000000000000
000000000000
000000000000
000000000000
000000000000
000000000000
000000000000
000000000000
000000000000
000000000000
000000000000
000000000000
000000000000
000000000000
000000000000
000000000000
000000000000
000000000000
000000000000
000000000000
000000000000
000000000000
000000000000
000000000000
000000000000
000000000000
000000000000
000000000000
000000000000
000000000000
000000000000
000000000000
000000000000
ENDCHAR
STARTCHAR U+00FE
ENCODING 254
SWIDTH 1000 0
BBX 45 200 0 -40
DWIDTH 45 0
BITMAP
000000000000
000000000000
000000000000
000000000000
000000000000
000000000000
000000000000
000000000000
000000000000
000000000000
000000000000
000000000000
000000000000
000000000000
000000000000
000000000000
000000000000
000000000000
000000000000
000000000000
FFFFFF800000
FFFFFF800000
FFFFFF800000
FFFFFF800000
FFFFFF800000
FFFFFF800000
FFFFFF800000
FFFFFF800000
FFFFFF800000
FFFFFF800000
FFFFFF800000
FFFFFF800000
FFFFFF800000
FFFFFF800000
FFFFFF800000
FFFFFF800000
FFFFFF800000
FFFFFF800000
FFFFFF800000
FFFFFF800000
FFC000000000
FFC000000000
FFC000000000
FFC000000000
FFC000000000
FFC000000000
FFC000000000
FFC000000000
FFC000000000
FFC000000000
FFC000000000
FFC000000000
FFC000000000
FFC000000000
FFC000000000
FFC000000000
FFC000000000
FFC000000000
FFC000000000
FFC000000000
FFFFF0000000
FFFFF0000000
FFFFF0000000
FFFFF0000000
FFFFF0000000
FFFFF0000000
FFFFF0000000
FFFFF0000000
FFFFF0000000
FFFFF0000000
FFFFF0000000
FFFFF0000000
FFFFF0000000
FFFFF0000000
FFFFF0000000
FFFFF0000000
FFFFF0000000
FFFFF0000000
FFFFF0000000
FFFFF0000000
FFC000000000
FFC000000000
FFC000000000
FFC000000000
FFC000000000
FFC000000000
FFC000000000
FFC000000000
FFC000000000
FFC000000000
FFC000000000
FFC000000000
FFC000000000
FFC000000000
FFC000000000
FFC000000000
FFC000000000
FFC000000000
FFC000000000
FFC000000000
FFC1FFFFFF00
FFC1FFFFFF00
FFC1FFFFFF00
FFC1FFFFFF00
FFC1FFFFFF00
FFC1FFFFFF00
FFC1FFFFFF00
FFC1FFFFFF00
FFC1FFFFFF00
FFC1FFFFFF00
FFC1FFFFFF00
FFC1FFFFFF00
FFC1FFFFFF00
FFC1FFFFFF00
FFC1FFFFFF00
FFC1FFFFFF00
FFC1FFFFFF00
FFC1FFFFFF00
FFC1FFFFFF00
FFC1FFFFFF00
0001FF800000
0001FF800000
0001FF800000
0001FF800000
0001FF800000
0001FF800000
0001FF800000
0001FF800000
0001FF800000
0001FF800000
0001FF800000
0001FF800000
0001FF800000
0001FF800000
0001FF800000
0001FF800000
0001FF800000
0001FF800000
0001FF800000
0001FF800000
0001FFFFE000
0001FFFFE000
0001FFFFE000
0001FFFFE000
0001FFFFE000
0001FFFFE000
0001FFFFE000
0001FFFFE000
0001FFFFE000
0001FFFFE000
0001FFFFE000
0001FFFFE000
0001FFFFE000
0001FFFFE000
0001FFFFE000
0001FFFFE000
0001FFFFE000
0001FFFFE000
0001FFFFE000
0001FFFFE000
0001FF800000
0001FF800000
0001FF800000
0001FF800000
0001FF800000
0001FF800000
0001FF800000
0001FF800000
0001FF800000
0001FF800000
0001FF800000
0001FF800000
0001FF800000
0001FF800000
0001FF800000
0001FF800000
0001FF800000
0001FF800000
0001FF800000
0001FF800000
0001FFFFFF00
0001FFFFFF00
0001FFFFFF00
0001FFFFFF00
0001FFFFFF00
0001FFFFFF00
0001FFFFFF00
0001FFFFFF00
0001FFFFFF00
0001FFFFFF00
0001FFFFFF00
0001FFFFFF00
0001FFFFFF00
0001FFFFFF00
0001FFFFFF00
0001FFFFFF00
0001FFFFFF00
0001FFFFFF00
0001FFFFFF00
0001FFFFFF00
ENDCHAR
STARTCHAR U+00FF
ENCODING 255
SWIDTH 1000 0
BBX 45 200 0 -40
DWIDTH 45 0
BITMAP
000000000000
000000000000
000000000000
000000000000
000000000000
000000000000
000000000000
000000000000
000000000000
000000000000
000000000000
000000000000
000000000000
000000000000
000000000000
000000000000
000000000000
000000000000
000000000000
000000000000
07FE007FE000
07FE007FE000
07FE007FE000
07FE007FE000
07FE007FE000
07FE007FE000
07FE007FE000
07FE007FE000
07FE007FE000
07FE007FE000
07FE007FE000
07FE007FE000
07FE007FE000
07FE007FE000
07FE007FE000
07FE007FE000
07FE007FE000
07FE007FE000
07FE007FE000
07FE007FE000
000000000000
000000000000
000000000000
000000000000
000000000000
000000000000
000000000000
000000000000
000000000000
000000000000
000000000000
000000000000
000000000000
000000000000
000000000000
000000000000
000000000000
000000000000
000000000000
000000000000
FFC0007FE000
FFC0007FE000
FFC0007FE000
FFC0007FE000
FFC0007FE000
FFC0007FE000
FFC0007FE000
FFC0007FE000
FFC0007FE000
FFC0007FE000
FFC0007FE000
FFC0007FE000
FFC0007FE000
FFC0007FE000
FFC0007FE000
FFC0007FE000
FFC0007FE000
FFC0007FE000
FFC0007FE000
FFC0007FE000
FFC0007FE000
FFC0007FE000
FFC0007FE000
FFC0007FE000
FFC0007FE000
FFC0007FE000
FFC0007FE000
FFC0007FE000
FFC0007FE000
FFC0007FE000
FFC0007FE000
FFC0007FE000
FFC0007FE000
FFC0007FE000
FFC0007FE000
FFC0007FE000
FFC0007FE000
FFC0007FE000
FFC0007FE000
FFC0007FE000
FFC00FFFE000
FFC00FFFE000
FFC00FFFE000
FFC00FFFE000
FFC00FFFE000
FFC00FFFE000
FFC00FFFE000
FFC00FFFE000
FFC00FFFE000
FFC00FFFE000
FFC00FFFE000
FFC00FFFE000
FFC00FFFE000
FFC00FFFE000
FFC00FFFE000
FFC00FFFE000
FFC00FFFE000
FFC00FFFE000
FFC00FFFE000
FFC00FFFE000
07FFFFFFE000
07FFFFFFE000
07FFFFFFE000
07FFFFFFE000
07FFFFFFE000
07FFFFFFE000
07FFFFFFE000
07FFFFFFE000
07FFFFFFE000
07FFFFFFE000
07FFFFFFE000
07FFFFFFE000
07FFFFFFE000
07FFFFFFE000
07FFFFFFE000
07FFFFFFE000
07FFFFFFE000
07FFFFFFE000
07FFFFFFE000
07FFFFFFE000
0000007FE000
0000007FE000
0000007FE000
0000007FE000
0000007FE000
0000007FE000
0000007FE000
0000007FE000
0000007FE000
0000007FE000
0000007FE000
0000007FE000
0000007FE000
0000007FE000
0000007FE000
0000007FE000
0000007FE000
0000007FE000
0000007FE000
0000007FE000
FFC0007FE000
FFC0007FE000
FFC0007FE000
FFC0007FE000
FFC0007FE000
FFC0007FE000
FFC0007FE000
FFC0007FE000
FFC0007FE000
FFC0007FE000
FFC0007FE000
FFC0007FE000
FFC0007FE000
FFC0007FE000
FFC0007FE000
FFC0007FE000
FFC0007FE000
FFC0007FE000
FFC0007FE000
FFC0007FE000
07FFFFFC0000
07FFFFFC0000
07FFFFFC0000
07FFFFFC0000
07FFFFFC0000
07FFFFFC0000
07FFFFFC0000
07FFFFFC0000
07FFFFFC0000
07FFFFFC0000
07FFFFFC0000
07FFFFFC0000
07FFFFFC0000
07FFFFFC0000
07FFFFFC0000
07FFFFFC0000
07FFFFFC0000
07FFFFFC0000
07FFFFFC0000
07FFFFFC0000
ENDCHAR
STARTCHAR U+00FC
ENCODING 252
SWIDTH 1000 0
BBX 45 200 0 -40
DWIDTH 45 0
BITMAP
000000000000
000000000000
000000000000
000000000000
000000000000
000000000000
000000000000
000000000000
000000000000
000000000000
000000000000
000000000000
000000000000
000000000000
000000000000
000000000000
000000000000
000000000000
000000000000
000000000000
07FE007FE000
07FE007FE000
07FE007FE000
07FE007FE000
07FE007FE000
07FE007FE000
07FE007FE000
07FE007FE000
07FE007FE000
07FE007FE000
07FE007FE000
07FE007FE000
07FE007FE000
07FE007FE000
07FE007FE000
07FE007FE000
07FE007FE000
07FE007FE000
07FE007FE000
07FE007FE000
000000000000
000000000000
000000000000
000000000000
000000000000
000000000000
000000000000
000000000000
000000000000
000000000000
000000000000
000000000000
000000000000
000000000000
000000000000
000000000000
000000000000
000000000000
000000000000
000000000000
FFC0007FE000
FFC0007FE000
FFC0007FE000
FFC0007FE000
FFC0007FE000
FFC0007FE000
FFC0007FE000
FFC0007FE000
FFC0007FE000
FFC0007FE000
FFC0007FE000
FFC0007FE000
FFC0007FE000
FFC0007FE000
FFC0007FE000
FFC0007FE000
FFC0007FE000
FFC0007FE000
FFC0007FE000
FFC0007FE000
FFC0007FE000
FFC0007FE000
FFC0007FE000
FFC0007FE000
FFC0007FE000
FFC0007FE000
FFC0007FE000
FFC0007FE000
FFC0007FE000
FFC0007FE000
FFC0007FE000
FFC0007FE000
FFC0007FE000
FFC0007FE000
FFC0007FE000
FFC0007FE000
FFC0007FE000
FFC0007FE000
FFC0007FE000
FFC0007FE000
FFC0007FE000
FFC0007FE000
FFC0007FE000
FFC0007FE000
FFC0007FE000
FFC0007FE000
FFC0007FE000
FFC0007FE000
FFC0007FE000
FFC0007FE000
FFC0007FE000
FFC0007FE000
FFC0007FE000
FFC0007FE000
FFC0007FE000
FFC0007FE000
FFC0007FE000
FFC0007FE000
FFC0007FE000
FFC0007FE000
FFC0007FE000
FFC0007FE000
FFC0007FE000
FFC0007FE000
FFC0007FE000
FFC0007FE000
FFC0007FE000
FFC0007FE000
FFC0007FE000
FFC0007FE000
FFC0007FE000
FFC0007FE000
FFC0007FE000
FFC0007FE000
FFC0007FE000
FFC0007FE000
FFC0007FE000
FFC0007FE000
FFC0007FE000
FFC0007FE000
07FFFFFFFF00
07FFFFFFFF00
07FFFFFFFF00
07FFFFFFFF00
07FFFFFFFF00
07FFFFFFFF00
07FFFFFFFF00
07FFFFFFFF00
07FFFFFFFF00
07FFFFFFFF00
07FFFFFFFF00
07FFFFFFFF00
07FFFFFFFF00
07FFFFFFFF00
07FFFFFFFF00
07FFFFFFFF00
07FFFFFFFF00
07FFFFFFFF00
07FFFFFFFF00
07FFFFFFFF00
000000000000
000000000000
000000000000
000000000000
000000000000
000000000000
000000000000
000000000000
000000000000
000000000000
000000000000
000000000000
000000000000
000000000000
000000000000
000000000000
000000000000
000000000000
000000000000
000000000000
000000000000
000000000000
000000000000
000000000000
000000000000
000000000000
000000000000
000000000000
000000000000
000000000000
000000000000
000000000000
000000000000
000000000000
000000000000
000000000000
000000000000
000000000000
000000000000
000000000000
ENDCHAR
STARTCHAR U+00FB
ENCODING 251
SWIDTH 1000 0
BBX 45 200 0 -40
DWIDTH 45 0
BITMAP
003FFFFC0000
003FFFFC0000
003FFFFC0000
003FFFFC0000
003FFFFC0000
003FFFFC0000
003FFFFC0000
003FFFFC0000
003FFFFC0000
003FFFFC0000
003FFFFC0000
003FFFFC0000
003FFFFC0000
003FFFFC0000
003FFFFC0000
003FFFFC0000
003FFFFC0000
003FFFFC0000
003FFFFC0000
003FFFFC0000
07FE007FE000
07FE007FE000
07FE007FE000
07FE007FE000
07FE007FE000
07FE007FE000
07FE007FE000
07FE007FE000
07FE007FE000
07FE007FE000
07FE007FE000
07FE007FE000
07FE007FE000
07FE007FE000
07FE007FE000
07FE007FE000
07FE007FE000
07FE007FE000
07FE007FE000
07FE007FE000
000000000000
000000000000
000000000000
000000000000
000000000000
000000000000
000000000000
000000000000
000000000000
000000000000
000000000000
000000000000
000000000000
000000000000
000000000000
000000000000
000000000000
000000000000
000000000000
000000000000
FFC0007FE000
FFC0007FE000
FFC0007FE000
FFC0007FE000
FFC0007FE000
FFC0007FE000
FFC0007FE000
FFC0007FE000
FFC0007FE000
FFC0007FE000
FFC0007FE000
FFC0007FE000
FFC0007FE000
FFC0007FE000
FFC0007FE000
FFC0007FE000
FFC0007FE000
FFC0007FE000
FFC0007FE000
FFC0007FE000
FFC0007FE000
FFC0007FE000
FFC0007FE000
FFC0007FE000
FFC0007FE000
FFC0007FE000
FFC0007FE000
FFC0007FE000
FFC0007FE000
FFC0007FE000
FFC0007FE000
FFC0007FE000
FFC0007FE000
FFC0007FE000
FFC0007FE000
FFC0007FE000
FFC0007FE000
FFC0007FE000
FFC0007FE000
FFC0007FE000
FFC0007FE000
FFC0007FE000
FFC0007FE000
FFC0007FE000
FFC0007FE000
FFC0007FE000
FFC0007FE000
FFC0007FE000
FFC0007FE000
FFC0007FE000
FFC0007FE000
FFC0007FE000
FFC0007FE000
FFC0007FE000
FFC0007FE000
FFC0007FE000
FFC0007FE000
FFC0007FE000
FFC0007FE000
FFC0007FE000
FFC0007FE000
FFC0007FE000
FFC0007FE000
FFC0007FE000
FFC0007FE000
FFC0007FE000
FFC0007FE000
FFC0007FE000
FFC0007FE000
FFC0007FE000
FFC0007FE000
FFC0007FE000
FFC0007FE000
FFC0007FE000
FFC0007FE000
FFC0007FE000
FFC0007FE000
FFC0007FE000
FFC0007FE000
FFC0007FE000
07FFFFFFFF00
07FFFFFFFF00
07FFFFFFFF00
07FFFFFFFF00
07FFFFFFFF00
07FFFFFFFF00
07FFFFFFFF00
07FFFFFFFF00
07FFFFFFFF00
07FFFFFFFF00
07FFFFFFFF00
07FFFFFFFF00
07FFFFFFFF00
07FFFFFFFF00
07FFFFFFFF00
07FFFFFFFF00
07FFFFFFFF00
07FFFFFFFF00
07FFFFFFFF00
07FFFFFFFF00
000000000000
000000000000
000000000000
000000000000
000000000000
000000000000
000000000000
000000000000
000000000000
000000000000
000000000000
000000000000
000000000000
000000000000
000000000000
000000000000
000000000000
000000000000
000000000000
000000000000
000000000000
000000000000
000000000000
000000000000
000000000000
000000000000
000000000000
000000000000
000000000000
000000000000
000000000000
000000000000
000000000000
000000000000
000000000000
000000000000
000000000000
000000000000
000000000000
000000000000
ENDCHAR
STARTCHAR U+00FA
ENCODING 250
SWIDTH 1000 0
BBX 45 200 0 -40
DWIDTH 45 0
BITMAP
000000000000
000000000000
000000000000
000000000000
000000000000
000000000000
000000000000
000000000000
000000000000
000000000000
000000000000
000000000000
000000000000
000000000000
000000000000
000000000000
000000000000
000000000000
000000000000
000000000000
0001FFFC0000
0001FFFC0000
0001FFFC0000
0001FFFC0000
0001FFFC0000
0001FFFC0000
0001FFFC0000
0001FFFC0000
0001FFFC0000
0001FFFC0000
0001FFFC0000
0001FFFC0000
0001FFFC0000
0001FFFC0000
0001FFFC0000
0001FFFC0000
0001FFFC0000
0001FFFC0000
0001FFFC0000
0001FFFC0000
07FFF0000000
07FFF0000000
07FFF0000000
07FFF0000000
07FFF0000000
07FFF0000000
07FFF0000000
07FFF0000000
07FFF0000000
07FFF0000000
07FFF0000000
07FFF0000000
07FFF0000000
07FFF0000000
07FFF0000000
07FFF0000000
07FFF0000000
07FFF0000000
07FFF0000000
07FFF0000000
FFC0007FE000
FFC0007FE000
FFC0007FE000
FFC0007FE000
FFC0007FE000
FFC0007FE000
FFC0007FE000
FFC0007FE000
FFC0007FE000
FFC0007FE000
FFC0007FE000
FFC0007FE000
FFC0007FE000
FFC0007FE000
FFC0007FE000
FFC0007FE000
FFC0007FE000
FFC0007FE000
FFC0007FE000
FFC0007FE000
FFC0007FE000
FFC0007FE000
FFC0007FE000
FFC0007FE000
FFC0007FE000
FFC0007FE000
FFC0007FE000
FFC0007FE000
FFC0007FE000
FFC0007FE000
FFC0007FE000
FFC0007FE000
FFC0007FE000
FFC0007FE000
FFC0007FE000
FFC0007FE000
FFC0007FE000
FFC0007FE000
FFC0007FE000
FFC0007FE000
FFC0007FE000
FFC0007FE000
FFC0007FE000
FFC0007FE000
FFC0007FE000
FFC0007FE000
FFC0007FE000
FFC0007FE000
FFC0007FE000
FFC0007FE000
FFC0007FE000
FFC0007FE000
FFC0007FE000
FFC0007FE000
FFC0007FE000
FFC0007FE000
FFC0007FE000
FFC0007FE000
FFC0007FE000
FFC0007FE000
FFC0007FE000
FFC0007FE000
FFC0007FE000
FFC0007FE000
FFC0007FE000
FFC0007FE000
FFC0007FE000
FFC0007FE000
FFC0007FE000
FFC0007FE000
FFC0007FE000
FFC0007FE000
FFC0007FE000
FFC0007FE000
FFC0007FE000
FFC0007FE000
FFC0007FE000
FFC0007FE000
FFC0007FE000
FFC0007FE000
07FFFFFFFF00
07FFFFFFFF00
07FFFFFFFF00
07FFFFFFFF00
07FFFFFFFF00
07FFFFFFFF00
07FFFFFFFF00
07FFFFFFFF00
07FFFFFFFF00
07FFFFFFFF00
07FFFFFFFF00
07FFFFFFFF00
07FFFFFFFF00
07FFFFFFFF00
07FFFFFFFF00
07FFFFFFFF00
07FFFFFFFF00
07FFFFFFFF00
07FFFFFFFF00
07FFFFFFFF00
000000000000
000000000000
000000000000
000000000000
000000000000
000000000000
000000000000
000000000000
000000000000
000000000000
000000000000
000000000000
000000000000
000000000000
000000000000
000000000000
000000000000
000000000000
000000000000
000000000000
000000000000
000000000000
000000000000
000000000000
000000000000
000000000000
000000000000
000000000000
000000000000
000000000000
000000000000
000000000000
000000000000
000000000000
000000000000
000000000000
000000000000
000000000000
000000000000
000000000000
ENDCHAR
STARTCHAR U+00F9
ENCODING 249
SWIDTH 1000 0
BBX 45 200 0 -40
DWIDTH 45 0
BITMAP
000000000000
000000000000
000000000000
000000000000
000000000000
000000000000
000000000000
000000000000
000000000000
000000000000
000000000000
000000000000
000000000000
000000000000
000000000000
000000000000
000000000000
000000000000
000000000000
000000000000
07FFF0000000
07FFF0000000
07FFF0000000
07FFF0000000
07FFF0000000
07FFF0000000
07FFF0000000
07FFF0000000
07FFF0000000
07FFF0000000
07FFF0000000
07FFF0000000
07FFF0000000
07FFF0000000
07FFF0000000
07FFF0000000
07FFF0000000
07FFF0000000
07FFF0000000
07FFF0000000
0001FFFC0000
0001FFFC0000
0001FFFC0000
0001FFFC0000
0001FFFC0000
0001FFFC0000
0001FFFC0000
0001FFFC0000
0001FFFC0000
0001FFFC0000
0001FFFC0000
0001FFFC0000
0001FFFC0000
0001FFFC0000
0001FFFC0000
0001FFFC0000
0001FFFC0000
0001FFFC0000
0001FFFC0000
0001FFFC0000
FFC0007FE000
FFC0007FE000
FFC0007FE000
FFC0007FE000
FFC0007FE000
FFC0007FE000
FFC0007FE000
FFC0007FE000
FFC0007FE000
FFC0007FE000
FFC0007FE000
FFC0007FE000
FFC0007FE000
FFC0007FE000
FFC0007FE000
FFC0007FE000
FFC0007FE000
FFC0007FE000
FFC0007FE000
FFC0007FE000
FFC0007FE000
FFC0007FE000
FFC0007FE000
FFC0007FE000
FFC0007FE000
FFC0007FE000
FFC0007FE000
FFC0007FE000
FFC0007FE000
FFC0007FE000
FFC0007FE000
FFC0007FE000
FFC0007FE000
FFC0007FE000
FFC0007FE000
FFC0007FE000
FFC0007FE000
FFC0007FE000
FFC0007FE000
FFC0007FE000
FFC0007FE000
FFC0007FE000
FFC0007FE000
FFC0007FE000
FFC0007FE000
FFC0007FE000
FFC0007FE000
FFC0007FE000
FFC0007FE000
FFC0007FE000
FFC0007FE000
FFC0007FE000
FFC0007FE000
FFC0007FE000
FFC0007FE000
FFC0007FE000
FFC0007FE000
FFC0007FE000
FFC0007FE000
FFC0007FE000
FFC0007FE000
FFC0007FE000
FFC0007FE000
FFC0007FE000
FFC0007FE000
FFC0007FE000
FFC0007FE000
FFC0007FE000
FFC0007FE000
FFC0007FE000
FFC0007FE000
FFC0007FE000
FFC0007FE000
FFC0007FE000
FFC0007FE000
FFC0007FE000
FFC0007FE000
FFC0007FE000
FFC0007FE000
FFC0007FE000
07FFFFFFFF00
07FFFFFFFF00
07FFFFFFFF00
07FFFFFFFF00
07FFFFFFFF00
07FFFFFFFF00
07FFFFFFFF00
07FFFFFFFF00
07FFFFFFFF00
07FFFFFFFF00
07FFFFFFFF00
07FFFFFFFF00
07FFFFFFFF00
07FFFFFFFF00
07FFFFFFFF00
07FFFFFFFF00
07FFFFFFFF00
07FFFFFFFF00
07FFFFFFFF00
07FFFFFFFF00
000000000000
000000000000
000000000000
000000000000
000000000000
000000000000
000000000000
000000000000
000000000000
000000000000
000000000000
000000000000
000000000000
000000000000
000000000000
000000000000
000000000000
000000000000
000000000000
000000000000
000000000000
000000000000
000000000000
000000000000
000000000000
000000000000
000000000000
000000000000
000000000000
000000000000
000000000000
000000000000
000000000000
000000000000
000000000000
000000000000
000000000000
000000000000
000000000000
000000000000
ENDCHAR
STARTCHAR U+00F8
ENCODING 248
SWIDTH 1000 0
BBX 45 200 0 -40
DWIDTH 45 0
BITMAP
000000000000
000000000000
000000000000
000000000000
000000000000
000000000000
000000000000
000000000000
000000000000
000000000000
000000000000
000000000000
000000000000
000000000000
000000000000
000000000000
000000000000
000000000000
000000000000
000000000000
000000000000
000000000000
000000000000
000000000000
000000000000
000000000000
000000000000
000000000000
000000000000
000000000000
000000000000
000000000000
000000000000
000000000000
000000000000
000000000000
000000000000
000000000000
000000000000
000000000000
00000003FF00
00000003FF00
00000003FF00
00000003FF00
00000003FF00
00000003FF00
00000003FF00
00000003FF00
00000003FF00
00000003FF00
00000003FF00
00000003FF00
00000003FF00
00000003FF00
00000003FF00
00000003FF00
00000003FF00
00000003FF00
00000003FF00
00000003FF00
07FFFFFFE000
07FFFFFFE000
07FFFFFFE000
07FFFFFFE000
07FFFFFFE000
07FFFFFFE000
07FFFFFFE000
07FFFFFFE000
07FFFFFFE000
07FFFFFFE000
07FFFFFFE000
07FFFFFFE000
07FFFFFFE000
07FFFFFFE000
07FFFFFFE000
07FFFFFFE000
07FFFFFFE000
07FFFFFFE000
07FFFFFFE000
07FFFFFFE000
FFC00FFFFF00
FFC00FFFFF00
FFC00FFFFF00
FFC00FFFFF00
FFC00FFFFF00
FFC00FFFFF00
FFC00FFFFF00
FFC00FFFFF00
FFC00FFFFF00
FFC00FFFFF00
FFC00FFFFF00
FFC00FFFFF00
FFC00FFFFF00
FFC00FFFFF00
FFC00FFFFF00
FFC00FFFFF00
FFC00FFFFF00
FFC00FFFFF00
FFC00FFFFF00
FFC00FFFFF00
FFC1FF83FF00
FFC1FF83FF00
FFC1FF83FF00
FFC1FF83FF00
FFC1FF83FF00
FFC1FF83FF00
FFC1FF83FF00
FFC1FF83FF00
FFC1FF83FF00
FFC1FF83FF00
FFC1FF83FF00
FFC1FF83FF00
FFC1FF83FF00
FFC1FF83FF00
FFC1FF83FF00
FFC1FF83FF00
FFC1FF83FF00
FFC1FF83FF00
FFC1FF83FF00
FFC1FF83FF00
FFFFF003FF00
FFFFF003FF00
FFFFF003FF00
FFFFF003FF00
FFFFF003FF00
FFFFF003FF00
FFFFF003FF00
FFFFF003FF00
FFFFF003FF00
FFFFF003FF00
FFFFF003FF00
FFFFF003FF00
FFFFF003FF00
FFFFF003FF00
FFFFF003FF00
FFFFF003FF00
FFFFF003FF00
FFFFF003FF00
FFFFF003FF00
FFFFF003FF00
07FFFFFFE000
07FFFFFFE000
07FFFFFFE000
07FFFFFFE000
07FFFFFFE000
07FFFFFFE000
07FFFFFFE000
07FFFFFFE000
07FFFFFFE000
07FFFFFFE000
07FFFFFFE000
07FFFFFFE000
07FFFFFFE000
07FFFFFFE000
07FFFFFFE000
07FFFFFFE000
07FFFFFFE000
07FFFFFFE000
07FFFFFFE000
07FFFFFFE000
FFC000000000
FFC000000000
FFC000000000
FFC000000000
FFC000000000
FFC000000000
FFC000000000
FFC000000000
FFC000000000
FFC000000000
FFC000000000
FFC000000000
FFC000000000
FFC000000000
FFC000000000
FFC000000000
FFC000000000
FFC000000000
FFC000000000
FFC000000000
000000000000
000000000000
000000000000
000000000000
000000000000
000000000000
000000000000
000000000000
000000000000
000000000000
000000000000
000000000000
000000000000
000000000000
000000000000
000000000000
000000000000
000000000000
000000000000
000000000000
ENDCHAR
STARTCHAR U+0152
ENCODING 338
SWIDTH 1000 0
BBX 45 200 0 -40
DWIDTH 45 0
BITMAP
000000000000
000000000000
000000000000
000000000000
000000000000
000000000000
000000000000
000000000000
000000000000
000000000000
000000000000
000000000000
000000000000
000000000000
000000000000
000000000000
000000000000
000000000000
000000000000
000000000000
000000000000
000000000000
000000000000
000000000000
000000000000
000000000000
000000000000
000000000000
000000000000
000000000000
000000000000
000000000000
000000000000
000000000000
000000000000
000000000000
000000000000
000000000000
000000000000
000000000000
000000000000
000000000000
000000000000
000000000000
000000000000
000000000000
000000000000
000000000000
000000000000
000000000000
000000000000
000000000000
000000000000
000000000000
000000000000
000000000000
000000000000
000000000000
000000000000
000000000000
07FFFFFFE000
07FFFFFFE000
07FFFFFFE000
07FFFFFFE000
07FFFFFFE000
07FFFFFFE000
07FFFFFFE000
07FFFFFFE000
07FFFFFFE000
07FFFFFFE000
07FFFFFFE000
07FFFFFFE000
07FFFFFFE000
07FFFFFFE000
07FFFFFFE000
07FFFFFFE000
07FFFFFFE000
07FFFFFFE000
07FFFFFFE000
07FFFFFFE000
FFC1FF83FF00
FFC1FF83FF00
FFC1FF83FF00
FFC1FF83FF00
FFC1FF83FF00
FFC1FF83FF00
FFC1FF83FF00
FFC1FF83FF00
FFC1FF83FF00
FFC1FF83FF00
FFC1FF83FF00
FFC1FF83FF00
FFC1FF83FF00
FFC1FF83FF00
FFC1FF83FF00
FFC1FF83FF00
FFC1FF83FF00
FFC1FF83FF00
FFC1FF83FF00
FFC1FF83FF00
FFC1FFFFFF00
FFC1FFFFFF00
FFC1FFFFFF00
FFC1FFFFFF00
FFC1FFFFFF00
FFC1FFFFFF00
FFC1FFFFFF00
FFC1FFFFFF00
FFC1FFFFFF00
FFC1FFFFFF00
FFC1FFFFFF00
FFC1FFFFFF00
FFC1FFFFFF00
FFC1FFFFFF00
FFC1FFFFFF00
FFC1FFFFFF00
FFC1FFFFFF00
FFC1FFFFFF00
FFC1FFFFFF00
FFC1FFFFFF00
FFC1FF800000
FFC1FF800000
FFC1FF800000
FFC1FF800000
FFC1FF800000
FFC1FF800000
FFC1FF800000
FFC1FF800000
FFC1FF800000
FFC1FF800000
FFC1FF800000
FFC1FF800000
FFC1FF800000
FFC1FF800000
FFC1FF800000
FFC1FF800000
FFC1FF800000
FFC1FF800000
FFC1FF800000
FFC1FF800000
07FFFFFFFF00
07FFFFFFFF00
07FFFFFFFF00
07FFFFFFFF00
07FFFFFFFF00
07FFFFFFFF00
07FFFFFFFF00
07FFFFFFFF00
07FFFFFFFF00
07FFFFFFFF00
07FFFFFFFF00
07FFFFFFFF00
07FFFFFFFF00
07FFFFFFFF00
07FFFFFFFF00
07FFFFFFFF00
07FFFFFFFF00
07FFFFFFFF00
07FFFFFFFF00
07FFFFFFFF00
000000000000
000000000000
000000000000
000000000000
000000000000
000000000000
000000000000
000000000000
000000000000
000000000000
000000000000
000000000000
000000000000
000000000000
000000000000
000000000000
000000000000
000000000000
000000000000
000000000000
000000000000
000000000000
000000000000
000000000000
000000000000
000000000000
000000000000
000000000000
000000000000
000000000000
000000000000
000000000000
000000000000
000000000000
000000000000
000000000000
000000000000
000000000000
000000000000
000000000000
ENDCHAR
STARTCHAR U+00F6
ENCODING 246
SWIDTH 1000 0
BBX 45 200 0 -40
DWIDTH 45 0
BITMAP
000000000000
000000000000
000000000000
000000000000
000000000000
000000000000
000000000000
000000000000
000000000000
000000000000
000000000000
000000000000
000000000000
000000000000
000000000000
000000000000
000000000000
000000000000
000000000000
000000000000
07FE007FE000
07FE007FE000
07FE007FE000
07FE007FE000
07FE007FE000
07FE007FE000
07FE007FE000
07FE007FE000
07FE007FE000
07FE007FE000
07FE007FE000
07FE007FE000
07FE007FE000
07FE007FE000
07FE007FE000
07FE007FE000
07FE007FE000
07FE007FE000
07FE007FE000
07FE007FE000
000000000000
000000000000
000000000000
000000000000
000000000000
000000000000
000000000000
000000000000
000000000000
000000000000
000000000000
000000000000
000000000000
000000000000
000000000000
000000000000
000000000000
000000000000
000000000000
000000000000
07FFFFFFE000
07FFFFFFE000
07FFFFFFE000
07FFFFFFE000
07FFFFFFE000
07FFFFFFE000
07FFFFFFE000
07FFFFFFE000
07FFFFFFE000
07FFFFFFE000
07FFFFFFE000
07FFFFFFE000
07FFFFFFE000
07FFFFFFE000
07FFFFFFE000
07FFFFFFE000
07FFFFFFE000
07FFFFFFE000
07FFFFFFE000
07FFFFFFE000
FFC00003FF00
FFC00003FF00
FFC00003FF00
FFC00003FF00
FFC00003FF00
FFC00003FF00
FFC00003FF00
FFC00003FF00
FFC00003FF00
FFC00003FF00
FFC00003FF00
FFC00003FF00
FFC00003FF00
FFC00003FF00
FFC00003FF00
FFC00003FF00
FFC00003FF00
FFC00003FF00
FFC00003FF00
FFC00003FF00
FFC00003FF00
FFC00003FF00
FFC00003FF00
FFC00003FF00
FFC00003FF00
FFC00003FF00
FFC00003FF00
FFC00003FF00
FFC00003FF00
FFC00003FF00
FFC00003FF00
FFC00003FF00
FFC00003FF00
FFC00003FF00
FFC00003FF00
FFC00003FF00
FFC00003FF00
FFC00003FF00
FFC00003FF00
FFC00003FF00
FFC00003FF00
FFC00003FF00
FFC00003FF00
FFC00003FF00
FFC00003FF00
FFC00003FF00
FFC00003FF00
FFC00003FF00
FFC00003FF00
FFC00003FF00
FFC00003FF00
FFC00003FF00
FFC00003FF00
FFC00003FF00
FFC00003FF00
FFC00003FF00
FFC00003FF00
FFC00003FF00
FFC00003FF00
FFC00003FF00
07FFFFFFE000
07FFFFFFE000
07FFFFFFE000
07FFFFFFE000
07FFFFFFE000
07FFFFFFE000
07FFFFFFE000
07FFFFFFE000
07FFFFFFE000
07FFFFFFE000
07FFFFFFE000
07FFFFFFE000
07FFFFFFE000
07FFFFFFE000
07FFFFFFE000
07FFFFFFE000
07FFFFFFE000
07FFFFFFE000
07FFFFFFE000
07FFFFFFE000
000000000000
000000000000
000000000000
000000000000
000000000000
000000000000
000000000000
000000000000
000000000000
000000000000
000000000000
000000000000
000000000000
000000000000
000000000000
000000000000
000000000000
000000000000
000000000000
000000000000
000000000000
000000000000
000000000000
000000000000
000000000000
000000000000
000000000000
000000000000
000000000000
000000000000
000000000000
000000000000
000000000000
000000000000
000000000000
000000000000
000000000000
000000000000
000000000000
000000000000
ENDCHAR
STARTCHAR U+00F5
ENCODING 245
SWIDTH 1000 0
BBX 45 200 0 -40
DWIDTH 45 0
BITMAP
07FFF07FE000
07FFF07FE000
07FFF07FE000
07FFF07FE000
07FFF07FE000
07FFF07FE000
07FFF07FE000
07FFF07FE000
07FFF07FE000
07FFF07FE000
07FFF07FE000
07FFF07FE000
07FFF07FE000
07FFF07FE000
07FFF07FE000
07FFF07FE000
07FFF07FE000
07FFF07FE000
07FFF07FE000
07FFF07FE000
FFC1FFFC0000
FFC1FFFC0000
FFC1FFFC0000
FFC1FFFC0000
FFC1FFFC0000
FFC1FFFC0000
FFC1FFFC0000
FFC1FFFC0000
FFC1FFFC0000
FFC1FFFC0000
FFC1FFFC0000
FFC1FFFC0000
FFC1FFFC0000
FFC1FFFC0000
FFC1FFFC0000
FFC1FFFC0000
FFC1FFFC0000
FFC1FFFC0000
FFC1FFFC0000
FFC1FFFC0000
000000000000
000000000000
000000000000
000000000000
000000000000
000000000000
000000000000
000000000000
000000000000
000000000000
000000000000
000000000000
000000000000
000000000000
000000000000
000000000000
000000000000
000000000000
000000000000
000000000000
07FFFFFFE000
07FFFFFFE000
07FFFFFFE000
07FFFFFFE000
07FFFFFFE000
07FFFFFFE000
07FFFFFFE000
07FFFFFFE000
07FFFFFFE000
07FFFFFFE000
07FFFFFFE000
07FFFFFFE000
07FFFFFFE000
07FFFFFFE000
07FFFFFFE000
07FFFFFFE000
07FFFFFFE000
07FFFFFFE000
07FFFFFFE000
07FFFFFFE000
FFC00003FF00
FFC00003FF00
FFC00003FF00
FFC00003FF00
FFC00003FF00
FFC00003FF00
FFC00003FF00
FFC00003FF00
FFC00003FF00
FFC00003FF00
FFC00003FF00
FFC00003FF00
FFC00003FF00
FFC00003FF00
FFC00003FF00
FFC00003FF00
FFC00003FF00
FFC00003FF00
FFC00003FF00
FFC00003FF00
FFC00003FF00
FFC00003FF00
FFC00003FF00
FFC00003FF00
FFC00003FF00
FFC00003FF00
FFC00003FF00
FFC00003FF00
FFC00003FF00
FFC00003FF00
FFC00003FF00
FFC00003FF00
FFC00003FF00
FFC00003FF00
FFC00003FF00
FFC00003FF00
FFC00003FF00
FFC00003FF00
FFC00003FF00
FFC00003FF00
FFC00003FF00
FFC00003FF00
FFC00003FF00
FFC00003FF00
FFC00003FF00
FFC00003FF00
FFC00003FF00
FFC00003FF00
FFC00003FF00
FFC00003FF00
FFC00003FF00
FFC00003FF00
FFC00003FF00
FFC00003FF00
FFC00003FF00
FFC00003FF00
FFC00003FF00
FFC00003FF00
FFC00003FF00
FFC00003FF00
07FFFFFFE000
07FFFFFFE000
07FFFFFFE000
07FFFFFFE000
07FFFFFFE000
07FFFFFFE000
07FFFFFFE000
07FFFFFFE000
07FFFFFFE000
07FFFFFFE000
07FFFFFFE000
07FFFFFFE000
07FFFFFFE000
07FFFFFFE000
07FFFFFFE000
07FFFFFFE000
07FFFFFFE000
07FFFFFFE000
07FFFFFFE000
07FFFFFFE000
000000000000
000000000000
000000000000
000000000000
000000000000
000000000000
000000000000
000000000000
000000000000
000000000000
000000000000
000000000000
000000000000
000000000000
000000000000
000000000000
000000000000
000000000000
000000000000
000000000000
000000000000
000000000000
000000000000
000000000000
000000000000
000000000000
000000000000
000000000000
000000000000
000000000000
000000000000
000000000000
000000000000
000000000000
000000000000
000000000000
000000000000
000000000000
000000000000
000000000000
ENDCHAR
STARTCHAR U+00F4
ENCODING 244
SWIDTH 1000 0
BBX 45 200 0 -40
DWIDTH 45 0
BITMAP
003FFFFC0000
003FFFFC0000
003FFFFC0000
003FFFFC0000
003FFFFC0000
003FFFFC0000
003FFFFC0000
003FFFFC0000
003FFFFC0000
003FFFFC0000
003FFFFC0000
003FFFFC0000
003FFFFC0000
003FFFFC0000
003FFFFC0000
003FFFFC0000
003FFFFC0000
003FFFFC0000
003FFFFC0000
003FFFFC0000
07FE007FE000
07FE007FE000
07FE007FE000
07FE007FE000
07FE007FE000
07FE007FE000
07FE007FE000
07FE007FE000
07FE007FE000
07FE007FE000
07FE007FE000
07FE007FE000
07FE007FE000
07FE007FE000
07FE007FE000
07FE007FE000
07FE007FE000
07FE007FE000
07FE007FE000
07FE007FE000
000000000000
000000000000
000000000000
000000000000
000000000000
000000000000
000000000000
000000000000
000000000000
000000000000
000000000000
000000000000
000000000000
000000000000
000000000000
000000000000
000000000000
000000000000
000000000000
000000000000
07FFFFFFE000
07FFFFFFE000
07FFFFFFE000
07FFFFFFE000
07FFFFFFE000
07FFFFFFE000
07FFFFFFE000
07FFFFFFE000
07FFFFFFE000
07FFFFFFE000
07FFFFFFE000
07FFFFFFE000
07FFFFFFE000
07FFFFFFE000
07FFFFFFE000
07FFFFFFE000
07FFFFFFE000
07FFFFFFE000
07FFFFFFE000
07FFFFFFE000
FFC00003FF00
FFC00003FF00
FFC00003FF00
FFC00003FF00
FFC00003FF00
FFC00003FF00
FFC00003FF00
FFC00003FF00
FFC00003FF00
FFC00003FF00
FFC00003FF00
FFC00003FF00
FFC00003FF00
FFC00003FF00
FFC00003FF00
FFC00003FF00
FFC00003FF00
FFC00003FF00
FFC00003FF00
FFC00003FF00
FFC00003FF00
FFC00003FF00
FFC00003FF00
FFC00003FF00
FFC00003FF00
FFC00003FF00
FFC00003FF00
FFC00003FF00
FFC00003FF00
FFC00003FF00
FFC00003FF00
FFC00003FF00
FFC00003FF00
FFC00003FF00
FFC00003FF00
FFC00003FF00
FFC00003FF00
FFC00003FF00
FFC00003FF00
FFC00003FF00
FFC00003FF00
FFC00003FF00
FFC00003FF00
FFC00003FF00
FFC00003FF00
FFC00003FF00
FFC00003FF00
FFC00003FF00
FFC00003FF00
FFC00003FF00
FFC00003FF00
FFC00003FF00
FFC00003FF00
FFC00003FF00
FFC00003FF00
FFC00003FF00
FFC00003FF00
FFC00003FF00
FFC00003FF00
FFC00003FF00
07FFFFFFE000
07FFFFFFE000
07FFFFFFE000
07FFFFFFE000
07FFFFFFE000
07FFFFFFE000
07FFFFFFE000
07FFFFFFE000
07FFFFFFE000
07FFFFFFE000
07FFFFFFE000
07FFFFFFE000
07FFFFFFE000
07FFFFFFE000
07FFFFFFE000
07FFFFFFE000
07FFFFFFE000
07FFFFFFE000
07FFFFFFE000
07FFFFFFE000
000000000000
000000000000
000000000000
000000000000
000000000000
000000000000
000000000000
000000000000
000000000000
000000000000
000000000000
000000000000
000000000000
000000000000
000000000000
000000000000
000000000000
000000000000
000000000000
000000000000
000000000000
000000000000
000000000000
000000000000
000000000000
000000000000
000000000000
000000000000
000000000000
000000000000
000000000000
000000000000
000000000000
000000000000
000000000000
000000000000
000000000000
000000000000
000000000000
000000000000
ENDCHAR
STARTCHAR U+00F3
ENCODING 243
SWIDTH 1000 0
BBX 45 200 0 -40
DWIDTH 45 0
BITMAP
000000000000
000000000000
000000000000
000000000000
000000000000
000000000000
000000000000
000000000000
000000000000
000000000000
000000000000
000000000000
000000000000
000000000000
000000000000
000000000000
000000000000
000000000000
000000000000
000000000000
0001FFFC0000
0001FFFC0000
0001FFFC0000
0001FFFC0000
0001FFFC0000
0001FFFC0000
0001FFFC0000
0001FFFC0000
0001FFFC0000
0001FFFC0000
0001FFFC0000
0001FFFC0000
0001FFFC0000
0001FFFC0000
0001FFFC0000
0001FFFC0000
0001FFFC0000
0001FFFC0000
0001FFFC0000
0001FFFC0000
07FFF0000000
07FFF0000000
07FFF0000000
07FFF0000000
07FFF0000000
07FFF0000000
07FFF0000000
07FFF0000000
07FFF0000000
07FFF0000000
07FFF0000000
07FFF0000000
07FFF0000000
07FFF0000000
07FFF0000000
07FFF0000000
07FFF0000000
07FFF0000000
07FFF0000000
07FFF0000000
07FFFFFFE000
07FFFFFFE000
07FFFFFFE000
07FFFFFFE000
07FFFFFFE000
07FFFFFFE000
07FFFFFFE000
07FFFFFFE000
07FFFFFFE000
07FFFFFFE000
07FFFFFFE000
07FFFFFFE000
07FFFFFFE000
07FFFFFFE000
07FFFFFFE000
07FFFFFFE000
07FFFFFFE000
07FFFFFFE000
07FFFFFFE000
07FFFFFFE000
FFC00003FF00
FFC00003FF00
FFC00003FF00
FFC00003FF00
FFC00003FF00
FFC00003FF00
FFC00003FF00
FFC00003FF00
FFC00003FF00
FFC00003FF00
FFC00003FF00
FFC00003FF00
FFC00003FF00
FFC00003FF00
FFC00003FF00
FFC00003FF00
FFC00003FF00
FFC00003FF00
FFC00003FF00
FFC00003FF00
FFC00003FF00
FFC00003FF00
FFC00003FF00
FFC00003FF00
FFC00003FF00
FFC00003FF00
FFC00003FF00
FFC00003FF00
FFC00003FF00
FFC00003FF00
FFC00003FF00
FFC00003FF00
FFC00003FF00
FFC00003FF00
FFC00003FF00
FFC00003FF00
FFC00003FF00
FFC00003FF00
FFC00003FF00
FFC00003FF00
FFC00003FF00
FFC00003FF00
FFC00003FF00
FFC00003FF00
FFC00003FF00
FFC00003FF00
FFC00003FF00
FFC00003FF00
FFC00003FF00
FFC00003FF00
FFC00003FF00
FFC00003FF00
FFC00003FF00
FFC00003FF00
FFC00003FF00
FFC00003FF00
FFC00003FF00
FFC00003FF00
FFC00003FF00
FFC00003FF00
07FFFFFFE000
07FFFFFFE000
07FFFFFFE000
07FFFFFFE000
07FFFFFFE000
07FFFFFFE000
07FFFFFFE000
07FFFFFFE000
07FFFFFFE000
07FFFFFFE000
07FFFFFFE000
07FFFFFFE000
07FFFFFFE000
07FFFFFFE000
07FFFFFFE000
07FFFFFFE000
07FFFFFFE000
07FFFFFFE000
07FFFFFFE000
07FFFFFFE000
000000000000
000000000000
000000000000
000000000000
000000000000
000000000000
000000000000
000000000000
000000000000
000000000000
000000000000
000000000000
000000000000
000000000000
000000000000
000000000000
000000000000
000000000000
000000000000
000000000000
000000000000
000000000000
000000000000
000000000000
000000000000
000000000000
000000000000
000000000000
000000000000
000000000000
000000000000
000000000000
000000000000
000000000000
000000000000
000000000000
000000000000
000000000000
000000000000
000000000000
ENDCHAR
STARTCHAR U+00F2
ENCODING 242
SWIDTH 1000 0
BBX 45 200 0 -40
DWIDTH 45 0
BITMAP
000000000000
000000000000
000000000000
000000000000
000000000000
000000000000
000000000000
000000000000
000000000000
000000000000
000000000000
000000000000
000000000000
000000000000
000000000000
000000000000
000000000000
000000000000
000000000000
000000000000
003FFF800000
003FFF800000
003FFF800000
003FFF800000
003FFF800000
003FFF800000
003FFF800000
003FFF800000
003FFF800000
003FFF800000
003FFF800000
003FFF800000
003FFF800000
003FFF800000
003FFF800000
003FFF800000
003FFF800000
003FFF800000
003FFF800000
003FFF800000
00000FFFE000
00000FFFE000
00000FFFE000
00000FFFE000
00000FFFE000
00000FFFE000
00000FFFE000
00000FFFE000
00000FFFE000
00000FFFE000
00000FFFE000
00000FFFE000
00000FFFE000
00000FFFE000
00000FFFE000
00000FFFE000
00000FFFE000
00000FFFE000
00000FFFE000
00000FFFE000
07FFFFFFE000
07FFFFFFE000
07FFFFFFE000
07FFFFFFE000
07FFFFFFE000
07FFFFFFE000
07FFFFFFE000
07FFFFFFE000
07FFFFFFE000
07FFFFFFE000
07FFFFFFE000
07FFFFFFE000
07FFFFFFE000
07FFFFFFE000
07FFFFFFE000
07FFFFFFE000
07FFFFFFE000
07FFFFFFE000
07FFFFFFE000
07FFFFFFE000
FFC00003FF00
FFC00003FF00
FFC00003FF00
FFC00003FF00
FFC00003FF00
FFC00003FF00
FFC00003FF00
FFC00003FF00
FFC00003FF00
FFC00003FF00
FFC00003FF00
FFC00003FF00
FFC00003FF00
FFC00003FF00
FFC00003FF00
FFC00003FF00
FFC00003FF00
FFC00003FF00
FFC00003FF00
FFC00003FF00
FFC00003FF00
FFC00003FF00
FFC00003FF00
FFC00003FF00
FFC00003FF00
FFC00003FF00
FFC00003FF00
FFC00003FF00
FFC00003FF00
FFC00003FF00
FFC00003FF00
FFC00003FF00
FFC00003FF00
FFC00003FF00
FFC00003FF00
FFC00003FF00
FFC00003FF00
FFC00003FF00
FFC00003FF00
FFC00003FF00
FFC00003FF00
FFC00003FF00
FFC00003FF00
FFC00003FF00
FFC00003FF00
FFC00003FF00
FFC00003FF00
FFC00003FF00
FFC00003FF00
FFC00003FF00
FFC00003FF00
FFC00003FF00
FFC00003FF00
FFC00003FF00
FFC00003FF00
FFC00003FF00
FFC00003FF00
FFC00003FF00
FFC00003FF00
FFC00003FF00
07FFFFFFE000
07FFFFFFE000
07FFFFFFE000
07FFFFFFE000
07FFFFFFE000
07FFFFFFE000
07FFFFFFE000
07FFFFFFE000
07FFFFFFE000
07FFFFFFE000
07FFFFFFE000
07FFFFFFE000
07FFFFFFE000
07FFFFFFE000
07FFFFFFE000
07FFFFFFE000
07FFFFFFE000
07FFFFFFE000
07FFFFFFE000
07FFFFFFE000
000000000000
000000000000
000000000000
000000000000
000000000000
000000000000
000000000000
000000000000
000000000000
000000000000
000000000000
000000000000
000000000000
000000000000
000000000000
000000000000
000000000000
000000000000
000000000000
000000000000
000000000000
000000000000
000000000000
000000000000
000000000000
000000000000
000000000000
000000000000
000000000000
000000000000
000000000000
000000000000
000000000000
000000000000
000000000000
000000000000
000000000000
000000000000
000000000000
000000000000
ENDCHAR
STARTCHAR U+00F1
ENCODING 241
SWIDTH 1000 0
BBX 45 200 0 -40
DWIDTH 45 0
BITMAP
07FFF07FE000
07FFF07FE000
07FFF07FE000
07FFF07FE000
07FFF07FE000
07FFF07FE000
07FFF07FE000
07FFF07FE000
07FFF07FE000
07FFF07FE000
07FFF07FE000
07FFF07FE000
07FFF07FE000
07FFF07FE000
07FFF07FE000
07FFF07FE000
07FFF07FE000
07FFF07FE000
07FFF07FE000
07FFF07FE000
FFC1FFFC0000
FFC1FFFC0000
FFC1FFFC0000
FFC1FFFC0000
FFC1FFFC0000
FFC1FFFC0000
FFC1FFFC0000
FFC1FFFC0000
FFC1FFFC0000
FFC1FFFC0000
FFC1FFFC0000
FFC1FFFC0000
FFC1FFFC0000
FFC1FFFC0000
FFC1FFFC0000
FFC1FFFC0000
FFC1FFFC0000
FFC1FFFC0000
FFC1FFFC0000
FFC1FFFC0000
000000000000
000000000000
000000000000
000000000000
000000000000
000000000000
000000000000
000000000000
000000000000
000000000000
000000000000
000000000000
000000000000
000000000000
000000000000
000000000000
000000000000
000000000000
000000000000
000000000000
FFFFFFFFE000
FFFFFFFFE000
FFFFFFFFE000
FFFFFFFFE000
FFFFFFFFE000
FFFFFFFFE000
FFFFFFFFE000
FFFFFFFFE000
FFFFFFFFE000
FFFFFFFFE000
FFFFFFFFE000
FFFFFFFFE000
FFFFFFFFE000
FFFFFFFFE000
FFFFFFFFE000
FFFFFFFFE000
FFFFFFFFE000
FFFFFFFFE000
FFFFFFFFE000
FFFFFFFFE000
FFFE0003FF00
FFFE0003FF00
FFFE0003FF00
FFFE0003FF00
FFFE0003FF00
FFFE0003FF00
FFFE0003FF00
FFFE0003FF00
FFFE0003FF00
FFFE0003FF00
FFFE0003FF00
FFFE0003FF00
FFFE0003FF00
FFFE0003FF00
FFFE0003FF00
FFFE0003FF00
FFFE0003FF00
FFFE0003FF00
FFFE0003FF00
FFFE0003FF00
FFC00003FF00
FFC00003FF00
FFC00003FF00
FFC00003FF00
FFC00003FF00
FFC00003FF00
FFC00003FF00
FFC00003FF00
FFC00003FF00
FFC00003FF00
FFC00003FF00
FFC00003FF00
FFC00003FF00
FFC00003FF00
FFC00003FF00
FFC00003FF00
FFC00003FF00
FFC00003FF00
FFC00003FF00
FFC00003FF00
FFC00003FF00
FFC00003FF00
FFC00003FF00
FFC00003FF00
FFC00003FF00
FFC00003FF00
FFC00003FF00
FFC00003FF00
FFC00003FF00
FFC00003FF00
FFC00003FF00
FFC00003FF00
FFC00003FF00
FFC00003FF00
FFC00003FF00
FFC00003FF00
FFC00003FF00
FFC00003FF00
FFC00003FF00
FFC00003FF00
FFC00003FF00
FFC00003FF00
FFC00003FF00
FFC00003FF00
FFC00003FF00
FFC00003FF00
FFC00003FF00
FFC00003FF00
FFC00003FF00
FFC00003FF00
FFC00003FF00
FFC00003FF00
FFC00003FF00
FFC00003FF00
FFC00003FF00
FFC00003FF00
FFC00003FF00
FFC00003FF00
FFC00003FF00
FFC00003FF00
000000000000
000000000000
000000000000
000000000000
000000000000
000000000000
000000000000
000000000000
000000000000
000000000000
000000000000
000000000000
000000000000
000000000000
000000000000
000000000000
000000000000
000000000000
000000000000
000000000000
000000000000
000000000000
000000000000
000000000000
000000000000
000000000000
000000000000
000000000000
000000000000
000000000000
000000000000
000000000000
000000000000
000000000000
000000000000
000000000000
000000000000
000000000000
000000000000
000000000000
ENDCHAR
STARTCHAR U+00F0
ENCODING 240
SWIDTH 1000 0
BBX 45 200 0 -40
DWIDTH 45 0
BITMAP
000000000000
000000000000
000000000000
000000000000
000000000000
000000000000
000000000000
000000000000
000000000000
000000000000
000000000000
000000000000
000000000000
000000000000
000000000000
000000000000
000000000000
000000000000
000000000000
000000000000
FFFFFF800000
FFFFFF800000
FFFFFF800000
FFFFFF800000
FFFFFF800000
FFFFFF800000
FFFFFF800000
FFFFFF800000
FFFFFF800000
FFFFFF800000
FFFFFF800000
FFFFFF800000
FFFFFF800000
FFFFFF800000
FFFFFF800000
FFFFFF800000
FFFFFF800000
FFFFFF800000
FFFFFF800000
FFFFFF800000
FFC000000000
FFC000000000
FFC000000000
FFC000000000
FFC000000000
FFC000000000
FFC000000000
FFC000000000
FFC000000000
FFC000000000
FFC000000000
FFC000000000
FFC000000000
FFC000000000
FFC000000000
FFC000000000
FFC000000000
FFC000000000
FFC000000000
FFC000000000
FFFFF0000000
FFFFF0000000
FFFFF0000000
FFFFF0000000
FFFFF0000000
FFFFF0000000
FFFFF0000000
FFFFF0000000
FFFFF0000000
FFFFF0000000
FFFFF0000000
FFFFF0000000
FFFFF0000000
FFFFF0000000
FFFFF0000000
FFFFF0000000
FFFFF0000000
FFFFF0000000
FFFFF0000000
FFFFF0000000
FFC000000000
FFC000000000
FFC000000000
FFC000000000
FFC000000000
FFC000000000
FFC000000000
FFC000000000
FFC000000000
FFC000000000
FFC000000000
FFC000000000
FFC000000000
FFC000000000
FFC000000000
FFC000000000
FFC000000000
FFC000000000
FFC000000000
FFC000000000
FFC00FFFE000
FFC00FFFE000
FFC00FFFE000
FFC00FFFE000
FFC00FFFE000
FFC00FFFE000
FFC00FFFE000
FFC00FFFE000
FFC00FFFE000
FFC00FFFE000
FFC00FFFE000
FFC00FFFE000
FFC00FFFE000
FFC00FFFE000
FFC00FFFE000
FFC00FFFE000
FFC00FFFE000
FFC00FFFE000
FFC00FFFE000
FFC00FFFE000
0001FF83FF00
0001FF83FF00
0001FF83FF00
0001FF83FF00
0001FF83FF00
0001FF83FF00
0001FF83FF00
0001FF83FF00
0001FF83FF00
0001FF83FF00
0001FF83FF00
0001FF83FF00
0001FF83FF00
0001FF83FF00
0001FF83FF00
0001FF83FF00
0001FF83FF00
0001FF83FF00
0001FF83FF00
0001FF83FF00
0001FF83FF00
0001FF83FF00
0001FF83FF00
0001FF83FF00
0001FF83FF00
0001FF83FF00
0001FF83FF00
0001FF83FF00
0001FF83FF00
0001FF83FF00
0001FF83FF00
0001FF83FF00
0001FF83FF00
0001FF83FF00
0001FF83FF00
0001FF83FF00
0001FF83FF00
0001FF83FF00
0001FF83FF00
0001FF83FF00
0001FF83FF00
0001FF83FF00
0001FF83FF00
0001FF83FF00
0001FF83FF00
0001FF83FF00
0001FF83FF00
0001FF83FF00
0001FF83FF00
0001FF83FF00
0001FF83FF00
0001FF83FF00
0001FF83FF00
0001FF83FF00
0001FF83FF00
0001FF83FF00
0001FF83FF00
0001FF83FF00
0001FF83FF00
0001FF83FF00
00000FFFE000
00000FFFE000
00000FFFE000
00000FFFE000
00000FFFE000
00000FFFE000
00000FFFE000
00000FFFE000
00000FFFE000
00000FFFE000
00000FFFE000
00000FFFE000
00000FFFE000
00000FFFE000
00000FFFE000
00000FFFE000
00000FFFE000
00000FFFE000
00000FFFE000
00000FFFE000
ENDCHAR
STARTCHAR U+00EF
ENCODING 239
SWIDTH 1000 0
BBX 45 200 0 -40
DWIDTH 45 0
BITMAP
000000000000
000000000000
000000000000
000000000000
000000000000
000000000000
000000000000
000000000000
000000000000
000000000000
000000000000
000000000000
000000000000
000000000000
000000000000
000000000000
000000000000
000000000000
000000000000
000000000000
07FE007FE000
07FE007FE000
07FE007FE000
07FE007FE000
07FE007FE000
07FE007FE000
07FE007FE000
07FE007FE000
07FE007FE000
07FE007FE000
07FE007FE000
07FE007FE000
07FE007FE000
07FE007FE000
07FE007FE000
07FE007FE000
07FE007FE000
07FE007FE000
07FE007FE000
07FE007FE000
000000000000
000000000000
000000000000
000000000000
000000000000
000000000000
000000000000
000000000000
000000000000
000000000000
000000000000
000000000000
000000000000
000000000000
000000000000
000000000000
000000000000
000000000000
000000000000
000000000000
003FFF800000
003FFF800000
003FFF800000
003FFF800000
003FFF800000
003FFF800000
003FFF800000
003FFF800000
003FFF800000
003FFF800000
003FFF800000
003FFF800000
003FFF800000
003FFF800000
003FFF800000
003FFF800000
003FFF800000
003FFF800000
003FFF800000
003FFF800000
0001FF800000
0001FF800000
0001FF800000
0001FF800000
0001FF800000
0001FF800000
0001FF800000
0001FF800000
0001FF800000
0001FF800000
0001FF800000
0001FF800000
0001FF800000
0001FF800000
0001FF800000
0001FF800000
0001FF800000
0001FF800000
0001FF800000
0001FF800000
0001FF800000
0001FF800000
0001FF800000
0001FF800000
0001FF800000
0001FF800000
0001FF800000
0001FF800000
0001FF800000
0001FF800000
0001FF800000
0001FF800000
0001FF800000
0001FF800000
0001FF800000
0001FF800000
0001FF800000
0001FF800000
0001FF800000
0001FF800000
0001FF800000
0001FF800000
0001FF800000
0001FF800000
0001FF800000
0001FF800000
0001FF800000
0001FF800000
0001FF800000
0001FF800000
0001FF800000
0001FF800000
0001FF800000
0001FF800000
0001FF800000
0001FF800000
0001FF800000
0001FF800000
0001FF800000
0001FF800000
07FFFFFFE000
07FFFFFFE000
07FFFFFFE000
07FFFFFFE000
07FFFFFFE000
07FFFFFFE000
07FFFFFFE000
07FFFFFFE000
07FFFFFFE000
07FFFFFFE000
07FFFFFFE000
07FFFFFFE000
07FFFFFFE000
07FFFFFFE000
07FFFFFFE000
07FFFFFFE000
07FFFFFFE000
07FFFFFFE000
07FFFFFFE000
07FFFFFFE000
000000000000
000000000000
000000000000
000000000000
000000000000
000000000000
000000000000
000000000000
000000000000
000000000000
000000000000
000000000000
000000000000
000000000000
000000000000
000000000000
000000000000
000000000000
000000000000
000000000000
000000000000
000000000000
000000000000
000000000000
000000000000
000000000000
000000000000
000000000000
000000000000
000000000000
000000000000
000000000000
000000000000
000000000000
000000000000
000000000000
000000000000
000000000000
000000000000
000000000000
ENDCHAR
STARTCHAR U+00EE
ENCODING 238
SWIDTH 1000 0
BBX 45 200 0 -40
DWIDTH 45 0
BITMAP
003FFFFC0000
003FFFFC0000
003FFFFC0000
003FFFFC0000
003FFFFC0000
003FFFFC0000
003FFFFC0000
003FFFFC0000
003FFFFC0000
003FFFFC0000
003FFFFC0000
003FFFFC0000
003FFFFC0000
003FFFFC0000
003FFFFC0000
003FFFFC0000
003FFFFC0000
003FFFFC0000
003FFFFC0000
003FFFFC0000
07FE007FE000
07FE007FE000
07FE007FE000
07FE007FE000
07FE007FE000
07FE007FE000
07FE007FE000
07FE007FE000
07FE007FE000
07FE007FE000
07FE007FE000
07FE007FE000
07FE007FE000
07FE007FE000
07FE007FE000
07FE007FE000
07FE007FE000
07FE007FE000
07FE007FE000
07FE007FE000
000000000000
000000000000
000000000000
000000000000
000000000000
000000000000
000000000000
000000000000
000000000000
000000000000
000000000000
000000000000
000000000000
000000000000
000000000000
000000000000
000000000000
000000000000
000000000000
000000000000
003FFF800000
003FFF800000
003FFF800000
003FFF800000
003FFF800000
003FFF800000
003FFF800000
003FFF800000
003FFF800000
003FFF800000
003FFF800000
003FFF800000
003FFF800000
003FFF800000
003FFF800000
003FFF800000
003FFF800000
003FFF800000
003FFF800000
003FFF800000
0001FF800000
0001FF800000
0001FF800000
0001FF800000
0001FF800000
0001FF800000
0001FF800000
0001FF800000
0001FF800000
0001FF800000
0001FF800000
0001FF800000
0001FF800000
0001FF800000
0001FF800000
0001FF800000
0001FF800000
0001FF800000
0001FF800000
0001FF800000
0001FF800000
0001FF800000
0001FF800000
0001FF800000
0001FF800000
0001FF800000
0001FF800000
0001FF800000
0001FF800000
0001FF800000
0001FF800000
0001FF800000
0001FF800000
0001FF800000
0001FF800000
0001FF800000
0001FF800000
0001FF800000
0001FF800000
0001FF800000
0001FF800000
0001FF800000
0001FF800000
0001FF800000
0001FF800000
0001FF800000
0001FF800000
0001FF800000
0001FF800000
0001FF800000
0001FF800000
0001FF800000
0001FF800000
0001FF800000
0001FF800000
0001FF800000
0001FF800000
0001FF800000
0001FF800000
0001FF800000
07FFFFFFE000
07FFFFFFE000
07FFFFFFE000
07FFFFFFE000
07FFFFFFE000
07FFFFFFE000
07FFFFFFE000
07FFFFFFE000
07FFFFFFE000
07FFFFFFE000
07FFFFFFE000
07FFFFFFE000
07FFFFFFE000
07FFFFFFE000
07FFFFFFE000
07FFFFFFE000
07FFFFFFE000
07FFFFFFE000
07FFFFFFE000
07FFFFFFE000
000000000000
000000000000
000000000000
000000000000
000000000000
000000000000
000000000000
000000000000
000000000000
000000000000
000000000000
000000000000
000000000000
000000000000
000000000000
000000000000
000000000000
000000000000
000000000000
000000000000
000000000000
000000000000
000000000000
000000000000
000000000000
000000000000
000000000000
000000000000
000000000000
000000000000
000000000000
000000000000
000000000000
000000000000
000000000000
000000000000
000000000000
000000000000
000000000000
000000000000
ENDCHAR
STARTCHAR U+00ED
ENCODING 237
SWIDTH 1000 0
BBX 45 200 0 -40
DWIDTH 45 0
BITMAP
000000000000
000000000000
000000000000
000000000000
000000000000
000000000000
000000000000
000000000000
000000000000
000000000000
000000000000
000000000000
000000000000
000000000000
000000000000
000000000000
000000000000
000000000000
000000000000
000000000000
0001FFFC0000
0001FFFC0000
0001FFFC0000
0001FFFC0000
0001FFFC0000
0001FFFC0000
0001FFFC0000
0001FFFC0000
0001FFFC0000
0001FFFC0000
0001FFFC0000
0001FFFC0000
0001FFFC0000
0001FFFC0000
0001FFFC0000
0001FFFC0000
0001FFFC0000
0001FFFC0000
0001FFFC0000
0001FFFC0000
07FFF0000000
07FFF0000000
07FFF0000000
07FFF0000000
07FFF0000000
07FFF0000000
07FFF0000000
07FFF0000000
07FFF0000000
07FFF0000000
07FFF0000000
07FFF0000000
07FFF0000000
07FFF0000000
07FFF0000000
07FFF0000000
07FFF0000000
07FFF0000000
07FFF0000000
07FFF0000000
003FFF800000
003FFF800000
003FFF800000
003FFF800000
003FFF800000
003FFF800000
003FFF800000
003FFF800000
003FFF800000
003FFF800000
003FFF800000
003FFF800000
003FFF800000
003FFF800000
003FFF800000
003FFF800000
003FFF800000
003FFF800000
003FFF800000
003FFF800000
0001FF800000
0001FF800000
0001FF800000
0001FF800000
0001FF800000
0001FF800000
0001FF800000
0001FF800000
0001FF800000
0001FF800000
0001FF800000
0001FF800000
0001FF800000
0001FF800000
0001FF800000
0001FF800000
0001FF800000
0001FF800000
0001FF800000
0001FF800000
0001FF800000
0001FF800000
0001FF800000
0001FF800000
0001FF800000
0001FF800000
0001FF800000
0001FF800000
0001FF800000
0001FF800000
0001FF800000
0001FF800000
0001FF800000
0001FF800000
0001FF800000
0001FF800000
0001FF800000
0001FF800000
0001FF800000
0001FF800000
0001FF800000
0001FF800000
0001FF800000
0001FF800000
0001FF800000
0001FF800000
0001FF800000
0001FF800000
0001FF800000
0001FF800000
0001FF800000
0001FF800000
0001FF800000
0001FF800000
0001FF800000
0001FF800000
0001FF800000
0001FF800000
0001FF800000
0001FF800000
07FFFFFFE000
07FFFFFFE000
07FFFFFFE000
07FFFFFFE000
07FFFFFFE000
07FFFFFFE000
07FFFFFFE000
07FFFFFFE000
07FFFFFFE000
07FFFFFFE000
07FFFFFFE000
07FFFFFFE000
07FFFFFFE000
07FFFFFFE000
07FFFFFFE000
07FFFFFFE000
07FFFFFFE000
07FFFFFFE000
07FFFFFFE000
07FFFFFFE000
000000000000
000000000000
000000000000
000000000000
000000000000
000000000000
000000000000
000000000000
000000000000
000000000000
000000000000
000000000000
000000000000
000000000000
000000000000
000000000000
000000000000
000000000000
000000000000
000000000000
000000000000
000000000000
000000000000
000000000000
000000000000
000000000000
000000000000
000000000000
000000000000
000000000000
000000000000
000000000000
000000000000
000000000000
000000000000
000000000000
000000000000
000000000000
000000000000
000000000000
ENDCHAR
STARTCHAR U+00EC
ENCODING 236
SWIDTH 1000 0
BBX 45 200 0 -40
DWIDTH 45 0
BITMAP
000000000000
000000000000
000000000000
000000000000
000000000000
000000000000
000000000000
000000000000
000000000000
000000000000
000000000000
000000000000
000000000000
000000000000
000000000000
000000000000
000000000000
000000000000
000000000000
000000000000
07FFF0000000
07FFF0000000
07FFF0000000
07FFF0000000
07FFF0000000
07FFF0000000
07FFF0000000
07FFF0000000
07FFF0000000
07FFF0000000
07FFF0000000
07FFF0000000
07FFF0000000
07FFF0000000
07FFF0000000
07FFF0000000
07FFF0000000
07FFF0000000
07FFF0000000
07FFF0000000
0001FFFC0000
0001FFFC0000
0001FFFC0000
0001FFFC0000
0001FFFC0000
0001FFFC0000
0001FFFC0000
0001FFFC0000
0001FFFC0000
0001FFFC0000
0001FFFC0000
0001FFFC0000
0001FFFC0000
0001FFFC0000
0001FFFC0000
0001FFFC0000
0001FFFC0000
0001FFFC0000
0001FFFC0000
0001FFFC0000
003FFF800000
003FFF800000
003FFF800000
003FFF800000
003FFF800000
003FFF800000
003FFF800000
003FFF800000
003FFF800000
003FFF800000
003FFF800000
003FFF800000
003FFF800000
003FFF800000
003FFF800000
003FFF800000
003FFF800000
003FFF800000
003FFF800000
003FFF800000
0001FF800000
0001FF800000
0001FF800000
0001FF800000
0001FF800000
0001FF800000
0001FF800000
0001FF800000
0001FF800000
0001FF800000
0001FF800000
0001FF800000
0001FF800000
0001FF800000
0001FF800000
0001FF800000
0001FF800000
0001FF800000
0001FF800000
0001FF800000
0001FF800000
0001FF800000
0001FF800000
0001FF800000
0001FF800000
0001FF800000
0001FF800000
0001FF800000
0001FF800000
0001FF800000
0001FF800000
0001FF800000
0001FF800000
0001FF800000
0001FF800000
0001FF800000
0001FF800000
0001FF800000
0001FF800000
0001FF800000
0001FF800000
0001FF800000
0001FF800000
0001FF800000
0001FF800000
0001FF800000
0001FF800000
0001FF800000
0001FF800000
0001FF800000
0001FF800000
0001FF800000
0001FF800000
0001FF800000
0001FF800000
0001FF800000
0001FF800000
0001FF800000
0001FF800000
0001FF800000
07FFFFFFE000
07FFFFFFE000
07FFFFFFE000
07FFFFFFE000
07FFFFFFE000
07FFFFFFE000
07FFFFFFE000
07FFFFFFE000
07FFFFFFE000
07FFFFFFE000
07FFFFFFE000
07FFFFFFE000
07FFFFFFE000
07FFFFFFE000
07FFFFFFE000
07FFFFFFE000
07FFFFFFE000
07FFFFFFE000
07FFFFFFE000
07FFFFFFE000
000000000000
000000000000
000000000000
000000000000
000000000000
000000000000
000000000000
000000000000
000000000000
000000000000
000000000000
000000000000
000000000000
000000000000
000000000000
000000000000
000000000000
000000000000
000000000000
000000000000
000000000000
000000000000
000000000000
000000000000
000000000000
000000000000
000000000000
000000000000
000000000000
000000000000
000000000000
000000000000
000000000000
000000000000
000000000000
000000000000
000000000000
000000000000
000000000000
000000000000
ENDCHAR
STARTCHAR U+00EB
ENCODING 235
SWIDTH 1000 0
BBX 45 200 0 -40
DWIDTH 45 0
BITMAP
000000000000
000000000000
000000000000
000000000000
000000000000
000000000000
000000000000
000000000000
000000000000
000000000000
000000000000
000000000000
000000000000
000000000000
000000000000
000000000000
000000000000
000000000000
000000000000
000000000000
07FE007FE000
07FE007FE000
07FE007FE000
07FE007FE000
07FE007FE000
07FE007FE000
07FE007FE000
07FE007FE000
07FE007FE000
07FE007FE000
07FE007FE000
07FE007FE000
07FE007FE000
07FE007FE000
07FE007FE000
07FE007FE000
07FE007FE000
07FE007FE000
07FE007FE000
07FE007FE000
000000000000
000000000000
000000000000
000000000000
000000000000
000000000000
000000000000
000000000000
000000000000
000000000000
000000000000
000000000000
000000000000
000000000000
000000000000
000000000000
000000000000
000000000000
000000000000
000000000000
07FFFFFFE000
07FFFFFFE000
07FFFFFFE000
07FFFFFFE000
07FFFFFFE000
07FFFFFFE000
07FFFFFFE000
07FFFFFFE000
07FFFFFFE000
07FFFFFFE000
07FFFFFFE000
07FFFFFFE000
07FFFFFFE000
07FFFFFFE000
07FFFFFFE000
07FFFFFFE000
07FFFFFFE000
07FFFFFFE000
07FFFFFFE000
07FFFFFFE000
FFC00003FF00
FFC00003FF00
FFC00003FF00
FFC00003FF00
FFC00003FF00
FFC00003FF00
FFC00003FF00
FFC00003FF00
FFC00003FF00
FFC00003FF00
FFC00003FF00
FFC00003FF00
FFC00003FF00
FFC00003FF00
FFC00003FF00
FFC00003FF00
FFC00003FF00
FFC00003FF00
FFC00003FF00
FFC00003FF00
FFFFFFFFFF00
FFFFFFFFFF00
FFFFFFFFFF00
FFFFFFFFFF00
FFFFFFFFFF00
FFFFFFFFFF00
FFFFFFFFFF00
FFFFFFFFFF00
FFFFFFFFFF00
FFFFFFFFFF00
FFFFFFFFFF00
FFFFFFFFFF00
FFFFFFFFFF00
FFFFFFFFFF00
FFFFFFFFFF00
FFFFFFFFFF00
FFFFFFFFFF00
FFFFFFFFFF00
FFFFFFFFFF00
FFFFFFFFFF00
FFC000000000
FFC000000000
FFC000000000
FFC000000000
FFC000000000
FFC000000000
FFC000000000
FFC000000000
FFC000000000
FFC000000000
FFC000000000
FFC000000000
FFC000000000
FFC000000000
FFC000000000
FFC000000000
FFC000000000
FFC000000000
FFC000000000
FFC000000000
07FFFFFFE000
07FFFFFFE000
07FFFFFFE000
07FFFFFFE000
07FFFFFFE000
07FFFFFFE000
07FFFFFFE000
07FFFFFFE000
07FFFFFFE000
07FFFFFFE000
07FFFFFFE000
07FFFFFFE000
07FFFFFFE000
07FFFFFFE000
07FFFFFFE000
07FFFFFFE000
07FFFFFFE000
07FFFFFFE000
07FFFFFFE000
07FFFFFFE000
000000000000
000000000000
000000000000
000000000000
000000000000
000000000000
000000000000
000000000000
000000000000
000000000000
000000000000
000000000000
000000000000
000000000000
000000000000
000000000000
000000000000
000000000000
000000000000
000000000000
000000000000
000000000000
000000000000
000000000000
000000000000
000000000000
000000000000
000000000000
000000000000
000000000000
000000000000
000000000000
000000000000
000000000000
000000000000
000000000000
000000000000
000000000000
000000000000
000000000000
ENDCHAR
STARTCHAR U+00EA
ENCODING 234
SWIDTH 1000 0
BBX 45 200 0 -40
DWIDTH 45 0
BITMAP
003FFFFC0000
003FFFFC0000
003FFFFC0000
003FFFFC0000
003FFFFC0000
003FFFFC0000
003FFFFC0000
003FFFFC0000
003FFFFC0000
003FFFFC0000
003FFFFC0000
003FFFFC0000
003FFFFC0000
003FFFFC0000
003FFFFC0000
003FFFFC0000
003FFFFC0000
003FFFFC0000
003FFFFC0000
003FFFFC0000
07FE007FE000
07FE007FE000
07FE007FE000
07FE007FE000
07FE007FE000
07FE007FE000
07FE007FE000
07FE007FE000
07FE007FE000
07FE007FE000
07FE007FE000
07FE007FE000
07FE007FE000
07FE007FE000
07FE007FE000
07FE007FE000
07FE007FE000
07FE007FE000
07FE007FE000
07FE007FE000
000000000000
000000000000
000000000000
000000000000
000000000000
000000000000
000000000000
000000000000
000000000000
000000000000
000000000000
000000000000
000000000000
000000000000
000000000000
000000000000
000000000000
000000000000
000000000000
000000000000
07FFFFFFE000
07FFFFFFE000
07FFFFFFE000
07FFFFFFE000
07FFFFFFE000
07FFFFFFE000
07FFFFFFE000
07FFFFFFE000
07FFFFFFE000
07FFFFFFE000
07FFFFFFE000
07FFFFFFE000
07FFFFFFE000
07FFFFFFE000
07FFFFFFE000
07FFFFFFE000
07FFFFFFE000
07FFFFFFE000
07FFFFFFE000
07FFFFFFE000
FFC00003FF00
FFC00003FF00
FFC00003FF00
FFC00003FF00
FFC00003FF00
FFC00003FF00
FFC00003FF00
FFC00003FF00
FFC00003FF00
FFC00003FF00
FFC00003FF00
FFC00003FF00
FFC00003FF00
FFC00003FF00
FFC00003FF00
FFC00003FF00
FFC00003FF00
FFC00003FF00
FFC00003FF00
FFC00003FF00
FFFFFFFFFF00
FFFFFFFFFF00
FFFFFFFFFF00
FFFFFFFFFF00
FFFFFFFFFF00
FFFFFFFFFF00
FFFFFFFFFF00
FFFFFFFFFF00
FFFFFFFFFF00
FFFFFFFFFF00
FFFFFFFFFF00
FFFFFFFFFF00
FFFFFFFFFF00
FFFFFFFFFF00
FFFFFFFFFF00
FFFFFFFFFF00
FFFFFFFFFF00
FFFFFFFFFF00
FFFFFFFFFF00
FFFFFFFFFF00
FFC000000000
FFC000000000
FFC000000000
FFC000000000
FFC000000000
FFC000000000
FFC000000000
FFC000000000
FFC000000000
FFC000000000
FFC000000000
FFC000000000
FFC000000000
FFC000000000
FFC000000000
FFC000000000
FFC000000000
FFC000000000
FFC000000000
FFC000000000
07FFFFFFE000
07FFFFFFE000
07FFFFFFE000
07FFFFFFE000
07FFFFFFE000
07FFFFFFE000
07FFFFFFE000
07FFFFFFE000
07FFFFFFE000
07FFFFFFE000
07FFFFFFE000
07FFFFFFE000
07FFFFFFE000
07FFFFFFE000
07FFFFFFE000
07FFFFFFE000
07FFFFFFE000
07FFFFFFE000
07FFFFFFE000
07FFFFFFE000
000000000000
000000000000
000000000000
000000000000
000000000000
000000000000
000000000000
000000000000
000000000000
000000000000
000000000000
000000000000
000000000000
000000000000
000000000000
000000000000
000000000000
000000000000
000000000000
000000000000
000000000000
000000000000
000000000000
000000000000
000000000000
000000000000
000000000000
000000000000
000000000000
000000000000
000000000000
000000000000
000000000000
000000000000
000000000000
000000000000
000000000000
000000000000
000000000000
000000000000
ENDCHAR
STARTCHAR U+00E9
ENCODING 233
SWIDTH 1000 0
BBX 45 200 0 -40
DWIDTH 45 0
BITMAP
000000000000
000000000000
000000000000
000000000000
000000000000
000000000000
000000000000
000000000000
000000000000
000000000000
000000000000
000000000000
000000000000
000000000000
000000000000
000000000000
000000000000
000000000000
000000000000
000000000000
0001FFFC0000
0001FFFC0000
0001FFFC0000
0001FFFC0000
0001FFFC0000
0001FFFC0000
0001FFFC0000
0001FFFC0000
0001FFFC0000
0001FFFC0000
0001FFFC0000
0001FFFC0000
0001FFFC0000
0001FFFC0000
0001FFFC0000
0001FFFC0000
0001FFFC0000
0001FFFC0000
0001FFFC0000
0001FFFC0000
07FFF0000000
07FFF0000000
07FFF0000000
07FFF0000000
07FFF0000000
07FFF0000000
07FFF0000000
07FFF0000000
07FFF0000000
07FFF0000000
07FFF0000000
07FFF0000000
07FFF0000000
07FFF0000000
07FFF0000000
07FFF0000000
07FFF0000000
07FFF0000000
07FFF0000000
07FFF0000000
07FFFFFFE000
07FFFFFFE000
07FFFFFFE000
07FFFFFFE000
07FFFFFFE000
07FFFFFFE000
07FFFFFFE000
07FFFFFFE000
07FFFFFFE000
07FFFFFFE000
07FFFFFFE000
07FFFFFFE000
07FFFFFFE000
07FFFFFFE000
07FFFFFFE000
07FFFFFFE000
07FFFFFFE000
07FFFFFFE000
07FFFFFFE000
07FFFFFFE000
FFC00003FF00
FFC00003FF00
FFC00003FF00
FFC00003FF00
FFC00003FF00
FFC00003FF00
FFC00003FF00
FFC00003FF00
FFC00003FF00
FFC00003FF00
FFC00003FF00
FFC00003FF00
FFC00003FF00
FFC00003FF00
FFC00003FF00
FFC00003FF00
FFC00003FF00
FFC00003FF00
FFC00003FF00
FFC00003FF00
FFFFFFFFFF00
FFFFFFFFFF00
FFFFFFFFFF00
FFFFFFFFFF00
FFFFFFFFFF00
FFFFFFFFFF00
FFFFFFFFFF00
FFFFFFFFFF00
FFFFFFFFFF00
FFFFFFFFFF00
FFFFFFFFFF00
FFFFFFFFFF00
FFFFFFFFFF00
FFFFFFFFFF00
FFFFFFFFFF00
FFFFFFFFFF00
FFFFFFFFFF00
FFFFFFFFFF00
FFFFFFFFFF00
FFFFFFFFFF00
FFC000000000
FFC000000000
FFC000000000
FFC000000000
FFC000000000
FFC000000000
FFC000000000
FFC000000000
FFC000000000
FFC000000000
FFC000000000
FFC000000000
FFC000000000
FFC000000000
FFC000000000
FFC000000000
FFC000000000
FFC000000000
FFC000000000
FFC000000000
07FFFFFFE000
07FFFFFFE000
07FFFFFFE000
07FFFFFFE000
07FFFFFFE000
07FFFFFFE000
07FFFFFFE000
07FFFFFFE000
07FFFFFFE000
07FFFFFFE000
07FFFFFFE000
07FFFFFFE000
07FFFFFFE000
07FFFFFFE000
07FFFFFFE000
07FFFFFFE000
07FFFFFFE000
07FFFFFFE000
07FFFFFFE000
07FFFFFFE000
000000000000
000000000000
000000000000
000000000000
000000000000
000000000000
000000000000
000000000000
000000000000
000000000000
000000000000
000000000000
000000000000
000000000000
000000000000
000000000000
000000000000
000000000000
000000000000
000000000000
000000000000
000000000000
000000000000
000000000000
000000000000
000000000000
000000000000
000000000000
000000000000
000000000000
000000000000
000000000000
000000000000
000000000000
000000000000
000000000000
000000000000
000000000000
000000000000
000000000000
ENDCHAR
STARTCHAR U+00E8
ENCODING 232
SWIDTH 1000 0
BBX 45 200 0 -40
DWIDTH 45 0
BITMAP
000000000000
000000000000
000000000000
000000000000
000000000000
000000000000
000000000000
000000000000
000000000000
000000000000
000000000000
000000000000
000000000000
000000000000
000000000000
000000000000
000000000000
000000000000
000000000000
000000000000
003FFF800000
003FFF800000
003FFF800000
003FFF800000
003FFF800000
003FFF800000
003FFF800000
003FFF800000
003FFF800000
003FFF800000
003FFF800000
003FFF800000
003FFF800000
003FFF800000
003FFF800000
003FFF800000
003FFF800000
003FFF800000
003FFF800000
003FFF800000
00000FFFE000
00000FFFE000
00000FFFE000
00000FFFE000
00000FFFE000
00000FFFE000
00000FFFE000
00000FFFE000
00000FFFE000
00000FFFE000
00000FFFE000
00000FFFE000
00000FFFE000
00000FFFE000
00000FFFE000
00000FFFE000
00000FFFE000
00000FFFE000
00000FFFE000
00000FFFE000
07FFFFFFE000
07FFFFFFE000
07FFFFFFE000
07FFFFFFE000
07FFFFFFE000
07FFFFFFE000
07FFFFFFE000
07FFFFFFE000
07FFFFFFE000
07FFFFFFE000
07FFFFFFE000
07FFFFFFE000
07FFFFFFE000
07FFFFFFE000
07FFFFFFE000
07FFFFFFE000
07FFFFFFE000
07FFFFFFE000
07FFFFFFE000
07FFFFFFE000
FFC00003FF00
FFC00003FF00
FFC00003FF00
FFC00003FF00
FFC00003FF00
FFC00003FF00
FFC00003FF00
FFC00003FF00
FFC00003FF00
FFC00003FF00
FFC00003FF00
FFC00003FF00
FFC00003FF00
FFC00003FF00
FFC00003FF00
FFC00003FF00
FFC00003FF00
FFC00003FF00
FFC00003FF00
FFC00003FF00
FFFFFFFFFF00
FFFFFFFFFF00
FFFFFFFFFF00
FFFFFFFFFF00
FFFFFFFFFF00
FFFFFFFFFF00
FFFFFFFFFF00
FFFFFFFFFF00
FFFFFFFFFF00
FFFFFFFFFF00
FFFFFFFFFF00
FFFFFFFFFF00
FFFFFFFFFF00
FFFFFFFFFF00
FFFFFFFFFF00
FFFFFFFFFF00
FFFFFFFFFF00
FFFFFFFFFF00
FFFFFFFFFF00
FFFFFFFFFF00
FFC000000000
FFC000000000
FFC000000000
FFC000000000
FFC000000000
FFC000000000
FFC000000000
FFC000000000
FFC000000000
FFC000000000
FFC000000000
FFC000000000
FFC000000000
FFC000000000
FFC000000000
FFC000000000
FFC000000000
FFC000000000
FFC000000000
FFC000000000
07FFFFFFE000
07FFFFFFE000
07FFFFFFE000
07FFFFFFE000
07FFFFFFE000
07FFFFFFE000
07FFFFFFE000
07FFFFFFE000
07FFFFFFE000
07FFFFFFE000
07FFFFFFE000
07FFFFFFE000
07FFFFFFE000
07FFFFFFE000
07FFFFFFE000
07FFFFFFE000
07FFFFFFE000
07FFFFFFE000
07FFFFFFE000
07FFFFFFE000
000000000000
000000000000
000000000000
000000000000
000000000000
000000000000
000000000000
000000000000
000000000000
000000000000
000000000000
000000000000
000000000000
000000000000
000000000000
000000000000
000000000000
000000000000
000000000000
000000000000
000000000000
000000000000
000000000000
000000000000
000000000000
000000000000
000000000000
000000000000
000000000000
000000000000
000000000000
000000000000
000000000000
000000000000
000000000000
000000000000
000000000000
000000000000
000000000000
000000000000
ENDCHAR
STARTCHAR U+00E7
ENCODING 231
SWIDTH 1000 0
BBX 45 200 0 -40
DWIDTH 45 0
BITMAP
000000000000
000000000000
000000000000
000000000000
000000000000
000000000000
000000000000
000000000000
000000000000
000000000000
000000000000
000000000000
000000000000
000000000000
000000000000
000000000000
000000000000
000000000000
000000000000
000000000000
000000000000
000000000000
000000000000
000000000000
000000000000
000000000000
000000000000
000000000000
000000000000
000000000000
000000000000
000000000000
000000000000
000000000000
000000000000
000000000000
000000000000
000000000000
000000000000
000000000000
000000000000
000000000000
000000000000
000000000000
000000000000
000000000000
000000000000
000000000000
000000000000
000000000000
000000000000
000000000000
000000000000
000000000000
000000000000
000000000000
000000000000
000000000000
000000000000
000000000000
07FFFFFFE000
07FFFFFFE000
07FFFFFFE000
07FFFFFFE000
07FFFFFFE000
07FFFFFFE000
07FFFFFFE000
07FFFFFFE000
07FFFFFFE000
07FFFFFFE000
07FFFFFFE000
07FFFFFFE000
07FFFFFFE000
07FFFFFFE000
07FFFFFFE000
07FFFFFFE000
07FFFFFFE000
07FFFFFFE000
07FFFFFFE000
07FFFFFFE000
FFC00003FF00
FFC00003FF00
FFC00003FF00
FFC00003FF00
FFC00003FF00
FFC00003FF00
FFC00003FF00
FFC00003FF00
FFC00003FF00
FFC00003FF00
FFC00003FF00
FFC00003FF00
FFC00003FF00
FFC00003FF00
FFC00003FF00
FFC00003FF00
FFC00003FF00
FFC00003FF00
FFC00003FF00
FFC00003FF00
FFC000000000
FFC000000000
FFC000000000
FFC000000000
FFC000000000
FFC000000000
FFC000000000
FFC000000000
FFC000000000
FFC000000000
FFC000000000
FFC000000000
FFC000000000
FFC000000000
FFC000000000
FFC000000000
FFC000000000
FFC000000000
FFC000000000
FFC000000000
FFC00003FF00
FFC00003FF00
FFC00003FF00
FFC00003FF00
FFC00003FF00
FFC00003FF00
FFC00003FF00
FFC00003FF00
FFC00003FF00
FFC00003FF00
FFC00003FF00
FFC00003FF00
FFC00003FF00
FFC00003FF00
FFC00003FF00
FFC00003FF00
FFC00003FF00
FFC00003FF00
FFC00003FF00
FFC00003FF00
07FFFFFFE000
07FFFFFFE000
07FFFFFFE000
07FFFFFFE000
07FFFFFFE000
07FFFFFFE000
07FFFFFFE000
07FFFFFFE000
07FFFFFFE000
07FFFFFFE000
07FFFFFFE000
07FFFFFFE000
07FFFFFFE000
07FFFFFFE000
07FFFFFFE000
07FFFFFFE000
07FFFFFFE000
07FFFFFFE000
07FFFFFFE000
07FFFFFFE000
00000FFC0000
00000FFC0000
00000FFC0000
00000FFC0000
00000FFC0000
00000FFC0000
00000FFC0000
00000FFC0000
00000FFC0000
00000FFC0000
00000FFC0000
00000FFC0000
00000FFC0000
00000FFC0000
00000FFC0000
00000FFC0000
00000FFC0000
00000FFC0000
00000FFC0000
00000FFC0000
003FFFFC0000
003FFFFC0000
003FFFFC0000
003FFFFC0000
003FFFFC0000
003FFFFC0000
003FFFFC0000
003FFFFC0000
003FFFFC0000
003FFFFC0000
003FFFFC0000
003FFFFC0000
003FFFFC0000
003FFFFC0000
003FFFFC0000
003FFFFC0000
003FFFFC0000
003FFFFC0000
003FFFFC0000
003FFFFC0000
ENDCHAR
STARTCHAR U+00E6
ENCODING 230
SWIDTH 1000 0
BBX 45 200 0 -40
DWIDTH 45 0
BITMAP
000000000000
000000000000
000000000000
000000000000
000000000000
000000000000
000000000000
000000000000
000000000000
000000000000
000000000000
000000000000
000000000000
000000000000
000000000000
000000000000
000000000000
000000000000
000000000000
000000000000
000000000000
000000000000
000000000000
000000000000
000000000000
000000000000
000000000000
000000000000
000000000000
000000000000
000000000000
000000000000
000000000000
000000000000
000000000000
000000000000
000000000000
000000000000
000000000000
000000000000
000000000000
000000000000
000000000000
000000000000
000000000000
000000000000
000000000000
000000000000
000000000000
000000000000
000000000000
000000000000
000000000000
000000000000
000000000000
000000000000
000000000000
000000000000
000000000000
000000000000
07FFFFFFE000
07FFFFFFE000
07FFFFFFE000
07FFFFFFE000
07FFFFFFE000
07FFFFFFE000
07FFFFFFE000
07FFFFFFE000
07FFFFFFE000
07FFFFFFE000
07FFFFFFE000
07FFFFFFE000
07FFFFFFE000
07FFFFFFE000
07FFFFFFE000
07FFFFFFE000
07FFFFFFE000
07FFFFFFE000
07FFFFFFE000
07FFFFFFE000
0001FF83FF00
0001FF83FF00
0001FF83FF00
0001FF83FF00
0001FF83FF00
0001FF83FF00
0001FF83FF00
0001FF83FF00
0001FF83FF00
0001FF83FF00
0001FF83FF00
0001FF83FF00
0001FF83FF00
0001FF83FF00
0001FF83FF00
0001FF83FF00
0001FF83FF00
0001FF83FF00
0001FF83FF00
0001FF83FF00
07FFFFFFFF00
07FFFFFFFF00
07FFFFFFFF00
07FFFFFFFF00
07FFFFFFFF00
07FFFFFFFF00
07FFFFFFFF00
07FFFFFFFF00
07FFFFFFFF00
07FFFFFFFF00
07FFFFFFFF00
07FFFFFFFF00
07FFFFFFFF00
07FFFFFFFF00
07FFFFFFFF00
07FFFFFFFF00
07FFFFFFFF00
07FFFFFFFF00
07FFFFFFFF00
07FFFFFFFF00
FFC1FF800000
FFC1FF800000
FFC1FF800000
FFC1FF800000
FFC1FF800000
FFC1FF800000
FFC1FF800000
FFC1FF800000
FFC1FF800000
FFC1FF800000
FFC1FF800000
FFC1FF800000
FFC1FF800000
FFC1FF800000
FFC1FF800000
FFC1FF800000
FFC1FF800000
FFC1FF800000
FFC1FF800000
FFC1FF800000
07FFFFFFFF00
07FFFFFFFF00
07FFFFFFFF00
07FFFFFFFF00
07FFFFFFFF00
07FFFFFFFF00
07FFFFFFFF00
07FFFFFFFF00
07FFFFFFFF00
07FFFFFFFF00
07FFFFFFFF00
07FFFFFFFF00
07FFFFFFFF00
07FFFFFFFF00
07FFFFFFFF00
07FFFFFFFF00
07FFFFFFFF00
07FFFFFFFF00
07FFFFFFFF00
07FFFFFFFF00
000000000000
000000000000
000000000000
000000000000
000000000000
000000000000
000000000000
000000000000
000000000000
000000000000
000000000000
000000000000
000000000000
000000000000
000000000000
000000000000
000000000000
000000000000
000000000000
000000000000
000000000000
000000000000
000000000000
000000000000
000000000000
000000000000
000000000000
000000000000
000000000000
000000000000
000000000000
000000000000
000000000000
000000000000
000000000000
000000000000
000000000000
000000000000
000000000000
000000000000
ENDCHAR
STARTCHAR U+00E5
ENCODING 229
SWIDTH 1000 0
BBX 45 200 0 -40
DWIDTH 45 0
BITMAP
003FFFFC0000
003FFFFC0000
003FFFFC0000
003FFFFC0000
003FFFFC0000
003FFFFC0000
003FFFFC0000
003FFFFC0000
003FFFFC0000
003FFFFC0000
003FFFFC0000
003FFFFC0000
003FFFFC0000
003FFFFC0000
003FFFFC0000
003FFFFC0000
003FFFFC0000
003FFFFC0000
003FFFFC0000
003FFFFC0000
07FE007FE000
07FE007FE000
07FE007FE000
07FE007FE000
07FE007FE000
07FE007FE000
07FE007FE000
07FE007FE000
07FE007FE000
07FE007FE000
07FE007FE000
07FE007FE000
07FE007FE000
07FE007FE000
07FE007FE000
07FE007FE000
07FE007FE000
07FE007FE000
07FE007FE000
07FE007FE000
003FFFFC0000
003FFFFC0000
003FFFFC0000
003FFFFC0000
003FFFFC0000
003FFFFC0000
003FFFFC0000
003FFFFC0000
003FFFFC0000
003FFFFC0000
003FFFFC0000
003FFFFC0000
003FFFFC0000
003FFFFC0000
003FFFFC0000
003FFFFC0000
003FFFFC0000
003FFFFC0000
003FFFFC0000
003FFFFC0000
07FFFFFFE000
07FFFFFFE000
07FFFFFFE000
07FFFFFFE000
07FFFFFFE000
07FFFFFFE000
07FFFFFFE000
07FFFFFFE000
07FFFFFFE000
07FFFFFFE000
07FFFFFFE000
07FFFFFFE000
07FFFFFFE000
07FFFFFFE000
07FFFFFFE000
07FFFFFFE000
07FFFFFFE000
07FFFFFFE000
07FFFFFFE000
07FFFFFFE000
00000003FF00
00000003FF00
00000003FF00
00000003FF00
00000003FF00
00000003FF00
00000003FF00
00000003FF00
00000003FF00
00000003FF00
00000003FF00
00000003FF00
00000003FF00
00000003FF00
00000003FF00
00000003FF00
00000003FF00
00000003FF00
00000003FF00
00000003FF00
07FFFFFFFF00
07FFFFFFFF00
07FFFFFFFF00
07FFFFFFFF00
07FFFFFFFF00
07FFFFFFFF00
07FFFFFFFF00
07FFFFFFFF00
07FFFFFFFF00
07FFFFFFFF00
07FFFFFFFF00
07FFFFFFFF00
07FFFFFFFF00
07FFFFFFFF00
07FFFFFFFF00
07FFFFFFFF00
07FFFFFFFF00
07FFFFFFFF00
07FFFFFFFF00
07FFFFFFFF00
FFC0007FFF00
FFC0007FFF00
FFC0007FFF00
FFC0007FFF00
FFC0007FFF00
FFC0007FFF00
FFC0007FFF00
FFC0007FFF00
FFC0007FFF00
FFC0007FFF00
FFC0007FFF00
FFC0007FFF00
FFC0007FFF00
FFC0007FFF00
FFC0007FFF00
FFC0007FFF00
FFC0007FFF00
FFC0007FFF00
FFC0007FFF00
FFC0007FFF00
07FFFFFFFF00
07FFFFFFFF00
07FFFFFFFF00
07FFFFFFFF00
07FFFFFFFF00
07FFFFFFFF00
07FFFFFFFF00
07FFFFFFFF00
07FFFFFFFF00
07FFFFFFFF00
07FFFFFFFF00
07FFFFFFFF00
07FFFFFFFF00
07FFFFFFFF00
07FFFFFFFF00
07FFFFFFFF00
07FFFFFFFF00
07FFFFFFFF00
07FFFFFFFF00
07FFFFFFFF00
000000000000
000000000000
000000000000
000000000000
000000000000
000000000000
000000000000
000000000000
000000000000
000000000000
000000000000
000000000000
000000000000
000000000000
000000000000
000000000000
000000000000
000000000000
000000000000
000000000000
000000000000
000000000000
000000000000
000000000000
000000000000
000000000000
000000000000
000000000000
000000000000
000000000000
000000000000
000000000000
000000000000
000000000000
000000000000
000000000000
000000000000
000000000000
000000000000
000000000000
ENDCHAR
STARTCHAR U+00E4
ENCODING 228
SWIDTH 1000 0
BBX 45 200 0 -40
DWIDTH 45 0
BITMAP
000000000000
000000000000
000000000000
000000000000
000000000000
000000000000
000000000000
000000000000
000000000000
000000000000
000000000000
000000000000
000000000000
000000000000
000000000000
000000000000
000000000000
000000000000
000000000000
000000000000
07FE007FE000
07FE007FE000
07FE007FE000
07FE007FE000
07FE007FE000
07FE007FE000
07FE007FE000
07FE007FE000
07FE007FE000
07FE007FE000
07FE007FE000
07FE007FE000
07FE007FE000
07FE007FE000
07FE007FE000
07FE007FE000
07FE007FE000
07FE007FE000
07FE007FE000
07FE007FE000
000000000000
000000000000
000000000000
000000000000
000000000000
000000000000
000000000000
000000000000
000000000000
000000000000
000000000000
000000000000
000000000000
000000000000
000000000000
000000000000
000000000000
000000000000
000000000000
000000000000
07FFFFFFE000
07FFFFFFE000
07FFFFFFE000
07FFFFFFE000
07FFFFFFE000
07FFFFFFE000
07FFFFFFE000
07FFFFFFE000
07FFFFFFE000
07FFFFFFE000
07FFFFFFE000
07FFFFFFE000
07FFFFFFE000
07FFFFFFE000
07FFFFFFE000
07FFFFFFE000
07FFFFFFE000
07FFFFFFE000
07FFFFFFE000
07FFFFFFE000
00000003FF00
00000003FF00
00000003FF00
00000003FF00
00000003FF00
00000003FF00
00000003FF00
00000003FF00
00000003FF00
00000003FF00
00000003FF00
00000003FF00
00000003FF00
00000003FF00
00000003FF00
00000003FF00
00000003FF00
00000003FF00
00000003FF00
00000003FF00
07FFFFFFFF00
07FFFFFFFF00
07FFFFFFFF00
07FFFFFFFF00
07FFFFFFFF00
07FFFFFFFF00
07FFFFFFFF00
07FFFFFFFF00
07FFFFFFFF00
07FFFFFFFF00
07FFFFFFFF00
07FFFFFFFF00
07FFFFFFFF00
07FFFFFFFF00
07FFFFFFFF00
07FFFFFFFF00
07FFFFFFFF00
07FFFFFFFF00
07FFFFFFFF00
07FFFFFFFF00
FFC0007FFF00
FFC0007FFF00
FFC0007FFF00
FFC0007FFF00
FFC0007FFF00
FFC0007FFF00
FFC0007FFF00
FFC0007FFF00
FFC0007FFF00
FFC0007FFF00
FFC0007FFF00
FFC0007FFF00
FFC0007FFF00
FFC0007FFF00
FFC0007FFF00
FFC0007FFF00
FFC0007FFF00
FFC0007FFF00
FFC0007FFF00
FFC0007FFF00
07FFFFFFFF00
07FFFFFFFF00
07FFFFFFFF00
07FFFFFFFF00
07FFFFFFFF00
07FFFFFFFF00
07FFFFFFFF00
07FFFFFFFF00
07FFFFFFFF00
07FFFFFFFF00
07FFFFFFFF00
07FFFFFFFF00
07FFFFFFFF00
07FFFFFFFF00
07FFFFFFFF00
07FFFFFFFF00
07FFFFFFFF00
07FFFFFFFF00
07FFFFFFFF00
07FFFFFFFF00
000000000000
000000000000
000000000000
000000000000
000000000000
000000000000
000000000000
000000000000
000000000000
000000000000
000000000000
000000000000
000000000000
000000000000
000000000000
000000000000
000000000000
000000000000
000000000000
000000000000
000000000000
000000000000
000000000000
000000000000
000000000000
000000000000
000000000000
000000000000
000000000000
000000000000
000000000000
000000000000
000000000000
000000000000
000000000000
000000000000
000000000000
000000000000
000000000000
000000000000
ENDCHAR
STARTCHAR U+00E3
ENCODING 227
SWIDTH 1000 0
BBX 45 200 0 -40
DWIDTH 45 0
BITMAP
003FFF83FF00
003FFF83FF00
003FFF83FF00
003FFF83FF00
003FFF83FF00
003FFF83FF00
003FFF83FF00
003FFF83FF00
003FFF83FF00
003FFF83FF00
003FFF83FF00
003FFF83FF00
003FFF83FF00
003FFF83FF00
003FFF83FF00
003FFF83FF00
003FFF83FF00
003FFF83FF00
003FFF83FF00
003FFF83FF00
07FE0FFFE000
07FE0FFFE000
07FE0FFFE000
07FE0FFFE000
07FE0FFFE000
07FE0FFFE000
07FE0FFFE000
07FE0FFFE000
07FE0FFFE000
07FE0FFFE000
07FE0FFFE000
07FE0FFFE000
07FE0FFFE000
07FE0FFFE000
07FE0FFFE000
07FE0FFFE000
07FE0FFFE000
07FE0FFFE000
07FE0FFFE000
07FE0FFFE000
000000000000
000000000000
000000000000
000000000000
000000000000
000000000000
000000000000
000000000000
000000000000
000000000000
000000000000
000000000000
000000000000
000000000000
000000000000
000000000000
000000000000
000000000000
000000000000
000000000000
07FFFFFFE000
07FFFFFFE000
07FFFFFFE000
07FFFFFFE000
07FFFFFFE000
07FFFFFFE000
07FFFFFFE000
07FFFFFFE000
07FFFFFFE000
07FFFFFFE000
07FFFFFFE000
07FFFFFFE000
07FFFFFFE000
07FFFFFFE000
07FFFFFFE000
07FFFFFFE000
07FFFFFFE000
07FFFFFFE000
07FFFFFFE000
07FFFFFFE000
00000003FF00
00000003FF00
00000003FF00
00000003FF00
00000003FF00
00000003FF00
00000003FF00
00000003FF00
00000003FF00
00000003FF00
00000003FF00
00000003FF00
00000003FF00
00000003FF00
00000003FF00
00000003FF00
00000003FF00
00000003FF00
00000003FF00
00000003FF00
07FFFFFFFF00
07FFFFFFFF00
07FFFFFFFF00
07FFFFFFFF00
07FFFFFFFF00
07FFFFFFFF00
07FFFFFFFF00
07FFFFFFFF00
07FFFFFFFF00
07FFFFFFFF00
07FFFFFFFF00
07FFFFFFFF00
07FFFFFFFF00
07FFFFFFFF00
07FFFFFFFF00
07FFFFFFFF00
07FFFFFFFF00
07FFFFFFFF00
07FFFFFFFF00
07FFFFFFFF00
FFC0007FFF00
FFC0007FFF00
FFC0007FFF00
FFC0007FFF00
FFC0007FFF00
FFC0007FFF00
FFC0007FFF00
FFC0007FFF00
FFC0007FFF00
FFC0007FFF00
FFC0007FFF00
FFC0007FFF00
FFC0007FFF00
FFC0007FFF00
FFC0007FFF00
FFC0007FFF00
FFC0007FFF00
FFC0007FFF00
FFC0007FFF00
FFC0007FFF00
07FFFFFFFF00
07FFFFFFFF00
07FFFFFFFF00
07FFFFFFFF00
07FFFFFFFF00
07FFFFFFFF00
07FFFFFFFF00
07FFFFFFFF00
07FFFFFFFF00
07FFFFFFFF00
07FFFFFFFF00
07FFFFFFFF00
07FFFFFFFF00
07FFFFFFFF00
07FFFFFFFF00
07FFFFFFFF00
07FFFFFFFF00
07FFFFFFFF00
07FFFFFFFF00
07FFFFFFFF00
000000000000
000000000000
000000000000
000000000000
000000000000
000000000000
000000000000
000000000000
000000000000
000000000000
000000000000
000000000000
000000000000
000000000000
000000000000
000000000000
000000000000
000000000000
000000000000
000000000000
000000000000
000000000000
000000000000
000000000000
000000000000
000000000000
000000000000
000000000000
000000000000
000000000000
000000000000
000000000000
000000000000
000000000000
000000000000
000000000000
000000000000
000000000000
000000000000
000000000000
ENDCHAR
STARTCHAR U+00E2
ENCODING 226
SWIDTH 1000 0
BBX 45 200 0 -40
DWIDTH 45 0
BITMAP
003FFFFC0000
003FFFFC0000
003FFFFC0000
003FFFFC0000
003FFFFC0000
003FFFFC0000
003FFFFC0000
003FFFFC0000
003FFFFC0000
003FFFFC0000
003FFFFC0000
003FFFFC0000
003FFFFC0000
003FFFFC0000
003FFFFC0000
003FFFFC0000
003FFFFC0000
003FFFFC0000
003FFFFC0000
003FFFFC0000
07FE007FE000
07FE007FE000
07FE007FE000
07FE007FE000
07FE007FE000
07FE007FE000
07FE007FE000
07FE007FE000
07FE007FE000
07FE007FE000
07FE007FE000
07FE007FE000
07FE007FE000
07FE007FE000
07FE007FE000
07FE007FE000
07FE007FE000
07FE007FE000
07FE007FE000
07FE007FE000
000000000000
000000000000
000000000000
000000000000
000000000000
000000000000
000000000000
000000000000
000000000000
000000000000
000000000000
000000000000
000000000000
000000000000
000000000000
000000000000
000000000000
000000000000
000000000000
000000000000
07FFFFFFE000
07FFFFFFE000
07FFFFFFE000
07FFFFFFE000
07FFFFFFE000
07FFFFFFE000
07FFFFFFE000
07FFFFFFE000
07FFFFFFE000
07FFFFFFE000
07FFFFFFE000
07FFFFFFE000
07FFFFFFE000
07FFFFFFE000
07FFFFFFE000
07FFFFFFE000
07FFFFFFE000
07FFFFFFE000
07FFFFFFE000
07FFFFFFE000
00000003FF00
00000003FF00
00000003FF00
00000003FF00
00000003FF00
00000003FF00
00000003FF00
00000003FF00
00000003FF00
00000003FF00
00000003FF00
00000003FF00
00000003FF00
00000003FF00
00000003FF00
00000003FF00
00000003FF00
00000003FF00
00000003FF00
00000003FF00
07FFFFFFFF00
07FFFFFFFF00
07FFFFFFFF00
07FFFFFFFF00
07FFFFFFFF00
07FFFFFFFF00
07FFFFFFFF00
07FFFFFFFF00
07FFFFFFFF00
07FFFFFFFF00
07FFFFFFFF00
07FFFFFFFF00
07FFFFFFFF00
07FFFFFFFF00
07FFFFFFFF00
07FFFFFFFF00
07FFFFFFFF00
07FFFFFFFF00
07FFFFFFFF00
07FFFFFFFF00
FFC0007FFF00
FFC0007FFF00
FFC0007FFF00
FFC0007FFF00
FFC0007FFF00
FFC0007FFF00
FFC0007FFF00
FFC0007FFF00
FFC0007FFF00
FFC0007FFF00
FFC0007FFF00
FFC0007FFF00
FFC0007FFF00
FFC0007FFF00
FFC0007FFF00
FFC0007FFF00
FFC0007FFF00
FFC0007FFF00
FFC0007FFF00
FFC0007FFF00
07FFFFFFFF00
07FFFFFFFF00
07FFFFFFFF00
07FFFFFFFF00
07FFFFFFFF00
07FFFFFFFF00
07FFFFFFFF00
07FFFFFFFF00
07FFFFFFFF00
07FFFFFFFF00
07FFFFFFFF00
07FFFFFFFF00
07FFFFFFFF00
07FFFFFFFF00
07FFFFFFFF00
07FFFFFFFF00
07FFFFFFFF00
07FFFFFFFF00
07FFFFFFFF00
07FFFFFFFF00
000000000000
000000000000
000000000000
000000000000
000000000000
000000000000
000000000000
000000000000
000000000000
000000000000
000000000000
000000000000
000000000000
000000000000
000000000000
000000000000
000000000000
000000000000
000000000000
000000000000
000000000000
000000000000
000000000000
000000000000
000000000000
000000000000
000000000000
000000000000
000000000000
000000000000
000000000000
000000000000
000000000000
000000000000
000000000000
000000000000
000000000000
000000000000
000000000000
000000000000
ENDCHAR
STARTCHAR U+00E1
ENCODING 225
SWIDTH 1000 0
BBX 45 200 0 -40
DWIDTH 45 0
BITMAP
000000000000
000000000000
000000000000
000000000000
000000000000
000000000000
000000000000
000000000000
000000000000
000000000000
000000000000
000000000000
000000000000
000000000000
000000000000
000000000000
000000000000
000000000000
000000000000
000000000000
0001FFFC0000
0001FFFC0000
0001FFFC0000
0001FFFC0000
0001FFFC0000
0001FFFC0000
0001FFFC0000
0001FFFC0000
0001FFFC0000
0001FFFC0000
0001FFFC0000
0001FFFC0000
0001FFFC0000
0001FFFC0000
0001FFFC0000
0001FFFC0000
0001FFFC0000
0001FFFC0000
0001FFFC0000
0001FFFC0000
07FFF0000000
07FFF0000000
07FFF0000000
07FFF0000000
07FFF0000000
07FFF0000000
07FFF0000000
07FFF0000000
07FFF0000000
07FFF0000000
07FFF0000000
07FFF0000000
07FFF0000000
07FFF0000000
07FFF0000000
07FFF0000000
07FFF0000000
07FFF0000000
07FFF0000000
07FFF0000000
07FFFFFFE000
07FFFFFFE000
07FFFFFFE000
07FFFFFFE000
07FFFFFFE000
07FFFFFFE000
07FFFFFFE000
07FFFFFFE000
07FFFFFFE000
07FFFFFFE000
07FFFFFFE000
07FFFFFFE000
07FFFFFFE000
07FFFFFFE000
07FFFFFFE000
07FFFFFFE000
07FFFFFFE000
07FFFFFFE000
07FFFFFFE000
07FFFFFFE000
00000003FF00
00000003FF00
00000003FF00
00000003FF00
00000003FF00
00000003FF00
00000003FF00
00000003FF00
00000003FF00
00000003FF00
00000003FF00
00000003FF00
00000003FF00
00000003FF00
00000003FF00
00000003FF00
00000003FF00
00000003FF00
00000003FF00
00000003FF00
07FFFFFFFF00
07FFFFFFFF00
07FFFFFFFF00
07FFFFFFFF00
07FFFFFFFF00
07FFFFFFFF00
07FFFFFFFF00
07FFFFFFFF00
07FFFFFFFF00
07FFFFFFFF00
07FFFFFFFF00
07FFFFFFFF00
07FFFFFFFF00
07FFFFFFFF00
07FFFFFFFF00
07FFFFFFFF00
07FFFFFFFF00
07FFFFFFFF00
07FFFFFFFF00
07FFFFFFFF00
FFC0007FFF00
FFC0007FFF00
FFC0007FFF00
FFC0007FFF00
FFC0007FFF00
FFC0007FFF00
FFC0007FFF00
FFC0007FFF00
FFC0007FFF00
FFC0007FFF00
FFC0007FFF00
FFC0007FFF00
FFC0007FFF00
FFC0007FFF00
FFC0007FFF00
FFC0007FFF00
FFC0007FFF00
FFC0007FFF00
FFC0007FFF00
FFC0007FFF00
07FFFFFFFF00
07FFFFFFFF00
07FFFFFFFF00
07FFFFFFFF00
07FFFFFFFF00
07FFFFFFFF00
07FFFFFFFF00
07FFFFFFFF00
07FFFFFFFF00
07FFFFFFFF00
07FFFFFFFF00
07FFFFFFFF00
07FFFFFFFF00
07FFFFFFFF00
07FFFFFFFF00
07FFFFFFFF00
07FFFFFFFF00
07FFFFFFFF00
07FFFFFFFF00
07FFFFFFFF00
000000000000
000000000000
000000000000
000000000000
000000000000
000000000000
000000000000
000000000000
000000000000
000000000000
000000000000
000000000000
000000000000
000000000000
000000000000
000000000000
000000000000
000000000000
000000000000
000000000000
000000000000
000000000000
000000000000
000000000000
000000000000
000000000000
000000000000
000000000000
000000000000
000000000000
000000000000
000000000000
000000000000
000000000000
000000000000
000000000000
000000000000
000000000000
000000000000
000000000000
ENDCHAR
STARTCHAR U+00E0
ENCODING 224
SWIDTH 1000 0
BBX 45 200 0 -40
DWIDTH 45 0
BITMAP
000000000000
000000000000
000000000000
000000000000
000000000000
000000000000
000000000000
000000000000
000000000000
000000000000
000000000000
000000000000
000000000000
000000000000
000000000000
000000000000
000000000000
000000000000
000000000000
000000000000
003FFF800000
003FFF800000
003FFF800000
003FFF800000
003FFF800000
003FFF800000
003FFF800000
003FFF800000
003FFF800000
003FFF800000
003FFF800000
003FFF800000
003FFF800000
003FFF800000
003FFF800000
003FFF800000
003FFF800000
003FFF800000
003FFF800000
003FFF800000
00000FFFE000
00000FFFE000
00000FFFE000
00000FFFE000
00000FFFE000
00000FFFE000
00000FFFE000
00000FFFE000
00000FFFE000
00000FFFE000
00000FFFE000
00000FFFE000
00000FFFE000
00000FFFE000
00000FFFE000
00000FFFE000
00000FFFE000
00000FFFE000
00000FFFE000
00000FFFE000
07FFFFFFE000
07FFFFFFE000
07FFFFFFE000
07FFFFFFE000
07FFFFFFE000
07FFFFFFE000
07FFFFFFE000
07FFFFFFE000
07FFFFFFE000
07FFFFFFE000
07FFFFFFE000
07FFFFFFE000
07FFFFFFE000
07FFFFFFE000
07FFFFFFE000
07FFFFFFE000
07FFFFFFE000
07FFFFFFE000
07FFFFFFE000
07FFFFFFE000
00000003FF00
00000003FF00
00000003FF00
00000003FF00
00000003FF00
00000003FF00
00000003FF00
00000003FF00
00000003FF00
00000003FF00
00000003FF00
00000003FF00
00000003FF00
00000003FF00
00000003FF00
00000003FF00
00000003FF00
00000003FF00
00000003FF00
00000003FF00
07FFFFFFFF00
07FFFFFFFF00
07FFFFFFFF00
07FFFFFFFF00
07FFFFFFFF00
07FFFFFFFF00
07FFFFFFFF00
07FFFFFFFF00
07FFFFFFFF00
07FFFFFFFF00
07FFFFFFFF00
07FFFFFFFF00
07FFFFFFFF00
07FFFFFFFF00
07FFFFFFFF00
07FFFFFFFF00
07FFFFFFFF00
07FFFFFFFF00
07FFFFFFFF00
07FFFFFFFF00
FFC0007FFF00
FFC0007FFF00
FFC0007FFF00
FFC0007FFF00
FFC0007FFF00
FFC0007FFF00
FFC0007FFF00
FFC0007FFF00
FFC0007FFF00
FFC0007FFF00
FFC0007FFF00
FFC0007FFF00
FFC0007FFF00
FFC0007FFF00
FFC0007FFF00
FFC0007FFF00
FFC0007FFF00
FFC0007FFF00
FFC0007FFF00
FFC0007FFF00
07FFFFFFFF00
07FFFFFFFF00
07FFFFFFFF00
07FFFFFFFF00
07FFFFFFFF00
07FFFFFFFF00
07FFFFFFFF00
07FFFFFFFF00
07FFFFFFFF00
07FFFFFFFF00
07FFFFFFFF00
07FFFFFFFF00
07FFFFFFFF00
07FFFFFFFF00
07FFFFFFFF00
07FFFFFFFF00
07FFFFFFFF00
07FFFFFFFF00
07FFFFFFFF00
07FFFFFFFF00
000000000000
000000000000
000000000000
000000000000
000000000000
000000000000
000000000000
000000000000
000000000000
000000000000
000000000000
000000000000
000000000000
000000000000
000000000000
000000000000
000000000000
000000000000
000000000000
000000000000
000000000000
000000000000
000000000000
000000000000
000000000000
000000000000
000000000000
000000000000
000000000000
000000000000
000000000000
000000000000
000000000000
000000000000
000000000000
000000000000
000000000000
000000000000
000000000000
000000000000
ENDCHAR
STARTCHAR U+00DF
ENCODING 223
SWIDTH 1000 0
BBX 45 200 0 -40
DWIDTH 45 0
BITMAP
000000000000
000000000000
000000000000
000000000000
000000000000
000000000000
000000000000
000000000000
000000000000
000000000000
000000000000
000000000000
000000000000
000000000000
000000000000
000000000000
000000000000
000000000000
000000000000
000000000000
003FFFFC0000
003FFFFC0000
003FFFFC0000
003FFFFC0000
003FFFFC0000
003FFFFC0000
003FFFFC0000
003FFFFC0000
003FFFFC0000
003FFFFC0000
003FFFFC0000
003FFFFC0000
003FFFFC0000
003FFFFC0000
003FFFFC0000
003FFFFC0000
003FFFFC0000
003FFFFC0000
003FFFFC0000
003FFFFC0000
07FE007FE000
07FE007FE000
07FE007FE000
07FE007FE000
07FE007FE000
07FE007FE000
07FE007FE000
07FE007FE000
07FE007FE000
07FE007FE000
07FE007FE000
07FE007FE000
07FE007FE000
07FE007FE000
07FE007FE000
07FE007FE000
07FE007FE000
07FE007FE000
07FE007FE000
07FE007FE000
FFC0007FE000
FFC0007FE000
FFC0007FE000
FFC0007FE000
FFC0007FE000
FFC0007FE000
FFC0007FE000
FFC0007FE000
FFC0007FE000
FFC0007FE000
FFC0007FE000
FFC0007FE000
FFC0007FE000
FFC0007FE000
FFC0007FE000
FFC0007FE000
FFC0007FE000
FFC0007FE000
FFC0007FE000
FFC0007FE000
FFFFFFFC0000
FFFFFFFC0000
FFFFFFFC0000
FFFFFFFC0000
FFFFFFFC0000
FFFFFFFC0000
FFFFFFFC0000
FFFFFFFC0000
FFFFFFFC0000
FFFFFFFC0000
FFFFFFFC0000
FFFFFFFC0000
FFFFFFFC0000
FFFFFFFC0000
FFFFFFFC0000
FFFFFFFC0000
FFFFFFFC0000
FFFFFFFC0000
FFFFFFFC0000
FFFFFFFC0000
FFC0007FE000
FFC0007FE000
FFC0007FE000
FFC0007FE000
FFC0007FE000
FFC0007FE000
FFC0007FE000
FFC0007FE000
FFC0007FE000
FFC0007FE000
FFC0007FE000
FFC0007FE000
FFC0007FE000
FFC0007FE000
FFC0007FE000
FFC0007FE000
FFC0007FE000
FFC0007FE000
FFC0007FE000
FFC0007FE000
FFFFF003FF00
FFFFF003FF00
FFFFF003FF00
FFFFF003FF00
FFFFF003FF00
FFFFF003FF00
FFFFF003FF00
FFFFF003FF00
FFFFF003FF00
FFFFF003FF00
FFFFF003FF00
FFFFF003FF00
FFFFF003FF00
FFFFF003FF00
FFFFF003FF00
FFFFF003FF00
FFFFF003FF00
FFFFF003FF00
FFFFF003FF00
FFFFF003FF00
FFC1FFFFE000
FFC1FFFFE000
FFC1FFFFE000
FFC1FFFFE000
FFC1FFFFE000
FFC1FFFFE000
FFC1FFFFE000
FFC1FFFFE000
FFC1FFFFE000
FFC1FFFFE000
FFC1FFFFE000
FFC1FFFFE000
FFC1FFFFE000
FFC1FFFFE000
FFC1FFFFE000
FFC1FFFFE000
FFC1FFFFE000
FFC1FFFFE000
FFC1FFFFE000
FFC1FFFFE000
FFC000000000
FFC000000000
FFC000000000
FFC000000000
FFC000000000
FFC000000000
FFC000000000
FFC000000000
FFC000000000
FFC000000000
FFC000000000
FFC000000000
FFC000000000
FFC000000000
FFC000000000
FFC000000000
FFC000000000
FFC000000000
FFC000000000
FFC000000000
000000000000
000000000000
000000000000
000000000000
000000000000
000000000000
000000000000
000000000000
000000000000
000000000000
000000000000
000000000000
000000000000
000000000000
000000000000
000000000000
000000000000
000000000000
000000000000
000000000000
ENDCHAR
STARTCHAR U+00DE
ENCODING 222
SWIDTH 1000 0
BBX 45 200 0 -40
DWIDTH 45 0
BITMAP
000000000000
000000000000
000000000000
000000000000
000000000000
000000000000
000000000000
000000000000
000000000000
000000000000
000000000000
000000000000
000000000000
000000000000
000000000000
000000000000
000000000000
000000000000
000000000000
000000000000
FFFFF0000000
FFFFF0000000
FFFFF0000000
FFFFF0000000
FFFFF0000000
FFFFF0000000
FFFFF0000000
FFFFF0000000
FFFFF0000000
FFFFF0000000
FFFFF0000000
FFFFF0000000
FFFFF0000000
FFFFF0000000
FFFFF0000000
FFFFF0000000
FFFFF0000000
FFFFF0000000
FFFFF0000000
FFFFF0000000
FFC1FF800000
FFC1FF800000
FFC1FF800000
FFC1FF800000
FFC1FF800000
FFC1FF800000
FFC1FF800000
FFC1FF800000
FFC1FF800000
FFC1FF800000
FFC1FF800000
FFC1FF800000
FFC1FF800000
FFC1FF800000
FFC1FF800000
FFC1FF800000
FFC1FF800000
FFC1FF800000
FFC1FF800000
FFC1FF800000
FFC1FF800000
FFC1FF800000
FFC1FF800000
FFC1FF800000
FFC1FF800000
FFC1FF800000
FFC1FF800000
FFC1FF800000
FFC1FF800000
FFC1FF800000
FFC1FF800000
FFC1FF800000
FFC1FF800000
FFC1FF800000
FFC1FF800000
FFC1FF800000
FFC1FF800000
FFC1FF800000
FFC1FF800000
FFC1FF800000
FFC1FF800000
FFC1FF800000
FFC1FF800000
FFC1FF800000
FFC1FF800000
FFC1FF800000
FFC1FF800000
FFC1FF800000
FFC1FF800000
FFC1FF800000
FFC1FF800000
FFC1FF800000
FFC1FF800000
FFC1FF800000
FFC1FF800000
FFC1FF800000
FFC1FF800000
FFC1FF800000
FFC1FF800000
FFC1FF800000
FFFFFFFFFF00
FFFFFFFFFF00
FFFFFFFFFF00
FFFFFFFFFF00
FFFFFFFFFF00
FFFFFFFFFF00
FFFFFFFFFF00
FFFFFFFFFF00
FFFFFFFFFF00
FFFFFFFFFF00
FFFFFFFFFF00
FFFFFFFFFF00
FFFFFFFFFF00
FFFFFFFFFF00
FFFFFFFFFF00
FFFFFFFFFF00
FFFFFFFFFF00
FFFFFFFFFF00
FFFFFFFFFF00
FFFFFFFFFF00
0001FF800000
0001FF800000
0001FF800000
0001FF800000
0001FF800000
0001FF800000
0001FF800000
0001FF800000
0001FF800000
0001FF800000
0001FF800000
0001FF800000
0001FF800000
0001FF800000
0001FF800000
0001FF800000
0001FF800000
0001FF800000
0001FF800000
0001FF800000
0001FFFFE000
0001FFFFE000
0001FFFFE000
0001FFFFE000
0001FFFFE000
0001FFFFE000
0001FFFFE000
0001FFFFE000
0001FFFFE000
0001FFFFE000
0001FFFFE000
0001FFFFE000
0001FFFFE000
0001FFFFE000
0001FFFFE000
0001FFFFE000
0001FFFFE000
0001FFFFE000
0001FFFFE000
0001FFFFE000
0001FF800000
0001FF800000
0001FF800000
0001FF800000
0001FF800000
0001FF800000
0001FF800000
0001FF800000
0001FF800000
0001FF800000
0001FF800000
0001FF800000
0001FF800000
0001FF800000
0001FF800000
0001FF800000
0001FF800000
0001FF800000
0001FF800000
0001FF800000
0001FFFFFF00
0001FFFFFF00
0001FFFFFF00
0001FFFFFF00
0001FFFFFF00
0001FFFFFF00
0001FFFFFF00
0001FFFFFF00
0001FFFFFF00
0001FFFFFF00
0001FFFFFF00
0001FFFFFF00
0001FFFFFF00
0001FFFFFF00
0001FFFFFF00
0001FFFFFF00
0001FFFFFF00
0001FFFFFF00
0001FFFFFF00
0001FFFFFF00
ENDCHAR
STARTCHAR U+0178
ENCODING 376
SWIDTH 1000 0
BBX 45 200 0 -40
DWIDTH 45 0
BITMAP
07FE007FE000
07FE007FE000
07FE007FE000
07FE007FE000
07FE007FE000
07FE007FE000
07FE007FE000
07FE007FE000
07FE007FE000
07FE007FE000
07FE007FE000
07FE007FE000
07FE007FE000
07FE007FE000
07FE007FE000
07FE007FE000
07FE007FE000
07FE007FE000
07FE007FE000
07FE007FE000
000000000000
000000000000
000000000000
000000000000
000000000000
000000000000
000000000000
000000000000
000000000000
000000000000
000000000000
000000000000
000000000000
000000000000
000000000000
000000000000
000000000000
000000000000
000000000000
000000000000
FFC00003FF00
FFC00003FF00
FFC00003FF00
FFC00003FF00
FFC00003FF00
FFC00003FF00
FFC00003FF00
FFC00003FF00
FFC00003FF00
FFC00003FF00
FFC00003FF00
FFC00003FF00
FFC00003FF00
FFC00003FF00
FFC00003FF00
FFC00003FF00
FFC00003FF00
FFC00003FF00
FFC00003FF00
FFC00003FF00
07FE007FE000
07FE007FE000
07FE007FE000
07FE007FE000
07FE007FE000
07FE007FE000
07FE007FE000
07FE007FE000
07FE007FE000
07FE007FE000
07FE007FE000
07FE007FE000
07FE007FE000
07FE007FE000
07FE007FE000
07FE007FE000
07FE007FE000
07FE007FE000
07FE007FE000
07FE007FE000
003FFFFC0000
003FFFFC0000
003FFFFC0000
003FFFFC0000
003FFFFC0000
003FFFFC0000
003FFFFC0000
003FFFFC0000
003FFFFC0000
003FFFFC0000
003FFFFC0000
003FFFFC0000
003FFFFC0000
003FFFFC0000
003FFFFC0000
003FFFFC0000
003FFFFC0000
003FFFFC0000
003FFFFC0000
003FFFFC0000
0001FF800000
0001FF800000
0001FF800000
0001FF800000
0001FF800000
0001FF800000
0001FF800000
0001FF800000
0001FF800000
0001FF800000
0001FF800000
0001FF800000
0001FF800000
0001FF800000
0001FF800000
0001FF800000
0001FF800000
0001FF800000
0001FF800000
0001FF800000
0001FF800000
0001FF800000
0001FF800000
0001FF800000
0001FF800000
0001FF800000
0001FF800000
0001FF800000
0001FF800000
0001FF800000
0001FF800000
0001FF800000
0001FF800000
0001FF800000
0001FF800000
0001FF800000
0001FF800000
0001FF800000
0001FF800000
0001FF800000
0001FF800000
0001FF800000
0001FF800000
0001FF800000
0001FF800000
0001FF800000
0001FF800000
0001FF800000
0001FF800000
0001FF800000
0001FF800000
0001FF800000
0001FF800000
0001FF800000
0001FF800000
0001FF800000
0001FF800000
0001FF800000
0001FF800000
0001FF800000
000000000000
000000000000
000000000000
000000000000
000000000000
000000000000
000000000000
000000000000
000000000000
000000000000
000000000000
000000000000
000000000000
000000000000
000000000000
000000000000
000000000000
000000000000
000000000000
000000000000
000000000000
000000000000
000000000000
000000000000
000000000000
000000000000
000000000000
000000000000
000000000000
000000000000
000000000000
000000000000
000000000000
000000000000
000000000000
000000000000
000000000000
000000000000
000000000000
000000000000
ENDCHAR
STARTCHAR U+00DC
ENCODING 220
SWIDTH 1000 0
BBX 45 200 0 -40
DWIDTH 45 0
BITMAP
07FE007FE000
07FE007FE000
07FE007FE000
07FE007FE000
07FE007FE000
07FE007FE000
07FE007FE000
07FE007FE000
07FE007FE000
07FE007FE000
07FE007FE000
07FE007FE000
07FE007FE000
07FE007FE000
07FE007FE000
07FE007FE000
07FE007FE000
07FE007FE000
07FE007FE000
07FE007FE000
000000000000
000000000000
000000000000
000000000000
000000000000
000000000000
000000000000
000000000000
000000000000
000000000000
000000000000
000000000000
000000000000
000000000000
000000000000
000000000000
000000000000
000000000000
000000000000
000000000000
FFC00003FF00
FFC00003FF00
FFC00003FF00
FFC00003FF00
FFC00003FF00
FFC00003FF00
FFC00003FF00
FFC00003FF00
FFC00003FF00
FFC00003FF00
FFC00003FF00
FFC00003FF00
FFC00003FF00
FFC00003FF00
FFC00003FF00
FFC00003FF00
FFC00003FF00
FFC00003FF00
FFC00003FF00
FFC00003FF00
FFC00003FF00
FFC00003FF00
FFC00003FF00
FFC00003FF00
FFC00003FF00
FFC00003FF00
FFC00003FF00
FFC00003FF00
FFC00003FF00
FFC00003FF00
FFC00003FF00
FFC00003FF00
FFC00003FF00
FFC00003FF00
FFC00003FF00
FFC00003FF00
FFC00003FF00
FFC00003FF00
FFC00003FF00
FFC00003FF00
FFC00003FF00
FFC00003FF00
FFC00003FF00
FFC00003FF00
FFC00003FF00
FFC00003FF00
FFC00003FF00
FFC00003FF00
FFC00003FF00
FFC00003FF00
FFC00003FF00
FFC00003FF00
FFC00003FF00
FFC00003FF00
FFC00003FF00
FFC00003FF00
FFC00003FF00
FFC00003FF00
FFC00003FF00
FFC00003FF00
FFC00003FF00
FFC00003FF00
FFC00003FF00
FFC00003FF00
FFC00003FF00
FFC00003FF00
FFC00003FF00
FFC00003FF00
FFC00003FF00
FFC00003FF00
FFC00003FF00
FFC00003FF00
FFC00003FF00
FFC00003FF00
FFC00003FF00
FFC00003FF00
FFC00003FF00
FFC00003FF00
FFC00003FF00
FFC00003FF00
FFC00003FF00
FFC00003FF00
FFC00003FF00
FFC00003FF00
FFC00003FF00
FFC00003FF00
FFC00003FF00
FFC00003FF00
FFC00003FF00
FFC00003FF00
FFC00003FF00
FFC00003FF00
FFC00003FF00
FFC00003FF00
FFC00003FF00
FFC00003FF00
FFC00003FF00
FFC00003FF00
FFC00003FF00
FFC00003FF00
07FFFFFFE000
07FFFFFFE000
07FFFFFFE000
07FFFFFFE000
07FFFFFFE000
07FFFFFFE000
07FFFFFFE000
07FFFFFFE000
07FFFFFFE000
07FFFFFFE000
07FFFFFFE000
07FFFFFFE000
07FFFFFFE000
07FFFFFFE000
07FFFFFFE000
07FFFFFFE000
07FFFFFFE000
07FFFFFFE000
07FFFFFFE000
07FFFFFFE000
000000000000
000000000000
000000000000
000000000000
000000000000
000000000000
000000000000
000000000000
000000000000
000000000000
000000000000
000000000000
000000000000
000000000000
000000000000
000000000000
000000000000
000000000000
000000000000
000000000000
000000000000
000000000000
000000000000
000000000000
000000000000
000000000000
000000000000
000000000000
000000000000
000000000000
000000000000
000000000000
000000000000
000000000000
000000000000
000000000000
000000000000
000000000000
000000000000
000000000000
ENDCHAR
STARTCHAR U+00DB
ENCODING 219
SWIDTH 1000 0
BBX 45 200 0 -40
DWIDTH 45 0
BITMAP
0001FF800000
0001FF800000
0001FF800000
0001FF800000
0001FF800000
0001FF800000
0001FF800000
0001FF800000
0001FF800000
0001FF800000
0001FF800000
0001FF800000
0001FF800000
0001FF800000
0001FF800000
0001FF800000
0001FF800000
0001FF800000
0001FF800000
0001FF800000
003FFFFC0000
003FFFFC0000
003FFFFC0000
003FFFFC0000
003FFFFC0000
003FFFFC0000
003FFFFC0000
003FFFFC0000
003FFFFC0000
003FFFFC0000
003FFFFC0000
003FFFFC0000
003FFFFC0000
003FFFFC0000
003FFFFC0000
003FFFFC0000
003FFFFC0000
003FFFFC0000
003FFFFC0000
003FFFFC0000
FFC00003FF00
FFC00003FF00
FFC00003FF00
FFC00003FF00
FFC00003FF00
FFC00003FF00
FFC00003FF00
FFC00003FF00
FFC00003FF00
FFC00003FF00
FFC00003FF00
FFC00003FF00
FFC00003FF00
FFC00003FF00
FFC00003FF00
FFC00003FF00
FFC00003FF00
FFC00003FF00
FFC00003FF00
FFC00003FF00
FFC00003FF00
FFC00003FF00
FFC00003FF00
FFC00003FF00
FFC00003FF00
FFC00003FF00
FFC00003FF00
FFC00003FF00
FFC00003FF00
FFC00003FF00
FFC00003FF00
FFC00003FF00
FFC00003FF00
FFC00003FF00
FFC00003FF00
FFC00003FF00
FFC00003FF00
FFC00003FF00
FFC00003FF00
FFC00003FF00
FFC00003FF00
FFC00003FF00
FFC00003FF00
FFC00003FF00
FFC00003FF00
FFC00003FF00
FFC00003FF00
FFC00003FF00
FFC00003FF00
FFC00003FF00
FFC00003FF00
FFC00003FF00
FFC00003FF00
FFC00003FF00
FFC00003FF00
FFC00003FF00
FFC00003FF00
FFC00003FF00
FFC00003FF00
FFC00003FF00
FFC00003FF00
FFC00003FF00
FFC00003FF00
FFC00003FF00
FFC00003FF00
FFC00003FF00
FFC00003FF00
FFC00003FF00
FFC00003FF00
FFC00003FF00
FFC00003FF00
FFC00003FF00
FFC00003FF00
FFC00003FF00
FFC00003FF00
FFC00003FF00
FFC00003FF00
FFC00003FF00
FFC00003FF00
FFC00003FF00
FFC00003FF00
FFC00003FF00
FFC00003FF00
FFC00003FF00
FFC00003FF00
FFC00003FF00
FFC00003FF00
FFC00003FF00
FFC00003FF00
FFC00003FF00
FFC00003FF00
FFC00003FF00
FFC00003FF00
FFC00003FF00
FFC00003FF00
FFC00003FF00
FFC00003FF00
FFC00003FF00
FFC00003FF00
FFC00003FF00
07FFFFFFE000
07FFFFFFE000
07FFFFFFE000
07FFFFFFE000
07FFFFFFE000
07FFFFFFE000
07FFFFFFE000
07FFFFFFE000
07FFFFFFE000
07FFFFFFE000
07FFFFFFE000
07FFFFFFE000
07FFFFFFE000
07FFFFFFE000
07FFFFFFE000
07FFFFFFE000
07FFFFFFE000
07FFFFFFE000
07FFFFFFE000
07FFFFFFE000
000000000000
000000000000
000000000000
000000000000
000000000000
000000000000
000000000000
000000000000
000000000000
000000000000
000000000000
000000000000
000000000000
000000000000
000000000000
000000000000
000000000000
000000000000
000000000000
000000000000
000000000000
000000000000
000000000000
000000000000
000000000000
000000000000
000000000000
000000000000
000000000000
000000000000
000000000000
000000000000
000000000000
000000000000
000000000000
000000000000
000000000000
000000000000
000000000000
000000000000
ENDCHAR
STARTCHAR U+00DA
ENCODING 218
SWIDTH 1000 0
BBX 45 200 0 -40
DWIDTH 45 0
BITMAP
00000FFFE000
00000FFFE000
00000FFFE000
00000FFFE000
00000FFFE000
00000FFFE000
00000FFFE000
00000FFFE000
00000FFFE000
00000FFFE000
00000FFFE000
00000FFFE000
00000FFFE000
00000FFFE000
00000FFFE000
00000FFFE000
00000FFFE000
00000FFFE000
00000FFFE000
00000FFFE000
003FFF800000
003FFF800000
003FFF800000
003FFF800000
003FFF800000
003FFF800000
003FFF800000
003FFF800000
003FFF800000
003FFF800000
003FFF800000
003FFF800000
003FFF800000
003FFF800000
003FFF800000
003FFF800000
003FFF800000
003FFF800000
003FFF800000
003FFF800000
FFC00003FF00
FFC00003FF00
FFC00003FF00
FFC00003FF00
FFC00003FF00
FFC00003FF00
FFC00003FF00
FFC00003FF00
FFC00003FF00
FFC00003FF00
FFC00003FF00
FFC00003FF00
FFC00003FF00
FFC00003FF00
FFC00003FF00
FFC00003FF00
FFC00003FF00
FFC00003FF00
FFC00003FF00
FFC00003FF00
FFC00003FF00
FFC00003FF00
FFC00003FF00
FFC00003FF00
FFC00003FF00
FFC00003FF00
FFC00003FF00
FFC00003FF00
FFC00003FF00
FFC00003FF00
FFC00003FF00
FFC00003FF00
FFC00003FF00
FFC00003FF00
FFC00003FF00
FFC00003FF00
FFC00003FF00
FFC00003FF00
FFC00003FF00
FFC00003FF00
FFC00003FF00
FFC00003FF00
FFC00003FF00
FFC00003FF00
FFC00003FF00
FFC00003FF00
FFC00003FF00
FFC00003FF00
FFC00003FF00
FFC00003FF00
FFC00003FF00
FFC00003FF00
FFC00003FF00
FFC00003FF00
FFC00003FF00
FFC00003FF00
FFC00003FF00
FFC00003FF00
FFC00003FF00
FFC00003FF00
FFC00003FF00
FFC00003FF00
FFC00003FF00
FFC00003FF00
FFC00003FF00
FFC00003FF00
FFC00003FF00
FFC00003FF00
FFC00003FF00
FFC00003FF00
FFC00003FF00
FFC00003FF00
FFC00003FF00
FFC00003FF00
FFC00003FF00
FFC00003FF00
FFC00003FF00
FFC00003FF00
FFC00003FF00
FFC00003FF00
FFC00003FF00
FFC00003FF00
FFC00003FF00
FFC00003FF00
FFC00003FF00
FFC00003FF00
FFC00003FF00
FFC00003FF00
FFC00003FF00
FFC00003FF00
FFC00003FF00
FFC00003FF00
FFC00003FF00
FFC00003FF00
FFC00003FF00
FFC00003FF00
FFC00003FF00
FFC00003FF00
FFC00003FF00
FFC00003FF00
07FFFFFFE000
07FFFFFFE000
07FFFFFFE000
07FFFFFFE000
07FFFFFFE000
07FFFFFFE000
07FFFFFFE000
07FFFFFFE000
07FFFFFFE000
07FFFFFFE000
07FFFFFFE000
07FFFFFFE000
07FFFFFFE000
07FFFFFFE000
07FFFFFFE000
07FFFFFFE000
07FFFFFFE000
07FFFFFFE000
07FFFFFFE000
07FFFFFFE000
000000000000
000000000000
000000000000
000000000000
000000000000
000000000000
000000000000
000000000000
000000000000
000000000000
000000000000
000000000000
000000000000
000000000000
000000000000
000000000000
000000000000
000000000000
000000000000
000000000000
000000000000
000000000000
000000000000
000000000000
000000000000
000000000000
000000000000
000000000000
000000000000
000000000000
000000000000
000000000000
000000000000
000000000000
000000000000
000000000000
000000000000
000000000000
000000000000
000000000000
ENDCHAR
STARTCHAR U+00D9
ENCODING 217
SWIDTH 1000 0
BBX 45 200 0 -40
DWIDTH 45 0
BITMAP
07FFF0000000
07FFF0000000
07FFF0000000
07FFF0000000
07FFF0000000
07FFF0000000
07FFF0000000
07FFF0000000
07FFF0000000
07FFF0000000
07FFF0000000
07FFF0000000
07FFF0000000
07FFF0000000
07FFF0000000
07FFF0000000
07FFF0000000
07FFF0000000
07FFF0000000
07FFF0000000
0001FFFC0000
0001FFFC0000
0001FFFC0000
0001FFFC0000
0001FFFC0000
0001FFFC0000
0001FFFC0000
0001FFFC0000
0001FFFC0000
0001FFFC0000
0001FFFC0000
0001FFFC0000
0001FFFC0000
0001FFFC0000
0001FFFC0000
0001FFFC0000
0001FFFC0000
0001FFFC0000
0001FFFC0000
0001FFFC0000
FFC00003FF00
FFC00003FF00
FFC00003FF00
FFC00003FF00
FFC00003FF00
FFC00003FF00
FFC00003FF00
FFC00003FF00
FFC00003FF00
FFC00003FF00
FFC00003FF00
FFC00003FF00
FFC00003FF00
FFC00003FF00
FFC00003FF00
FFC00003FF00
FFC00003FF00
FFC00003FF00
FFC00003FF00
FFC00003FF00
FFC00003FF00
FFC00003FF00
FFC00003FF00
FFC00003FF00
FFC00003FF00
FFC00003FF00
FFC00003FF00
FFC00003FF00
FFC00003FF00
FFC00003FF00
FFC00003FF00
FFC00003FF00
FFC00003FF00
FFC00003FF00
FFC00003FF00
FFC00003FF00
FFC00003FF00
FFC00003FF00
FFC00003FF00
FFC00003FF00
FFC00003FF00
FFC00003FF00
FFC00003FF00
FFC00003FF00
FFC00003FF00
FFC00003FF00
FFC00003FF00
FFC00003FF00
FFC00003FF00
FFC00003FF00
FFC00003FF00
FFC00003FF00
FFC00003FF00
FFC00003FF00
FFC00003FF00
FFC00003FF00
FFC00003FF00
FFC00003FF00
FFC00003FF00
FFC00003FF00
FFC00003FF00
FFC00003FF00
FFC00003FF00
FFC00003FF00
FFC00003FF00
FFC00003FF00
FFC00003FF00
FFC00003FF00
FFC00003FF00
FFC00003FF00
FFC00003FF00
FFC00003FF00
FFC00003FF00
FFC00003FF00
FFC00003FF00
FFC00003FF00
FFC00003FF00
FFC00003FF00
FFC00003FF00
FFC00003FF00
FFC00003FF00
FFC00003FF00
FFC00003FF00
FFC00003FF00
FFC00003FF00
FFC00003FF00
FFC00003FF00
FFC00003FF00
FFC00003FF00
FFC00003FF00
FFC00003FF00
FFC00003FF00
FFC00003FF00
FFC00003FF00
FFC00003FF00
FFC00003FF00
FFC00003FF00
FFC00003FF00
FFC00003FF00
FFC00003FF00
07FFFFFFE000
07FFFFFFE000
07FFFFFFE000
07FFFFFFE000
07FFFFFFE000
07FFFFFFE000
07FFFFFFE000
07FFFFFFE000
07FFFFFFE000
07FFFFFFE000
07FFFFFFE000
07FFFFFFE000
07FFFFFFE000
07FFFFFFE000
07FFFFFFE000
07FFFFFFE000
07FFFFFFE000
07FFFFFFE000
07FFFFFFE000
07FFFFFFE000
000000000000
000000000000
000000000000
000000000000
000000000000
000000000000
000000000000
000000000000
000000000000
000000000000
000000000000
000000000000
000000000000
000000000000
000000000000
000000000000
000000000000
000000000000
000000000000
000000000000
000000000000
000000000000
000000000000
000000000000
000000000000
000000000000
000000000000
000000000000
000000000000
000000000000
000000000000
000000000000
000000000000
000000000000
000000000000
000000000000
000000000000
000000000000
000000000000
000000000000
ENDCHAR
STARTCHAR U+00D8
ENCODING 216
SWIDTH 1000 0
BBX 45 200 0 -40
DWIDTH 45 0
BITMAP
00000003FF00
00000003FF00
00000003FF00
00000003FF00
00000003FF00
00000003FF00
00000003FF00
00000003FF00
00000003FF00
00000003FF00
00000003FF00
00000003FF00
00000003FF00
00000003FF00
00000003FF00
00000003FF00
00000003FF00
00000003FF00
00000003FF00
00000003FF00
07FFFFFFE000
07FFFFFFE000
07FFFFFFE000
07FFFFFFE000
07FFFFFFE000
07FFFFFFE000
07FFFFFFE000
07FFFFFFE000
07FFFFFFE000
07FFFFFFE000
07FFFFFFE000
07FFFFFFE000
07FFFFFFE000
07FFFFFFE000
07FFFFFFE000
07FFFFFFE000
07FFFFFFE000
07FFFFFFE000
07FFFFFFE000
07FFFFFFE000
FFC0007FFF00
FFC0007FFF00
FFC0007FFF00
FFC0007FFF00
FFC0007FFF00
FFC0007FFF00
FFC0007FFF00
FFC0007FFF00
FFC0007FFF00
FFC0007FFF00
FFC0007FFF00
FFC0007FFF00
FFC0007FFF00
FFC0007FFF00
FFC0007FFF00
FFC0007FFF00
FFC0007FFF00
FFC0007FFF00
FFC0007FFF00
FFC0007FFF00
FFC00FFFFF00
FFC00FFFFF00
FFC00FFFFF00
FFC00FFFFF00
FFC00FFFFF00
FFC00FFFFF00
FFC00FFFFF00
FFC00FFFFF00
FFC00FFFFF00
FFC00FFFFF00
FFC00FFFFF00
FFC00FFFFF00
FFC00FFFFF00
FFC00FFFFF00
FFC00FFFFF00
FFC00FFFFF00
FFC00FFFFF00
FFC00FFFFF00
FFC00FFFFF00
FFC00FFFFF00
FFC1FF83FF00
FFC1FF83FF00
FFC1FF83FF00
FFC1FF83FF00
FFC1FF83FF00
FFC1FF83FF00
FFC1FF83FF00
FFC1FF83FF00
FFC1FF83FF00
FFC1FF83FF00
FFC1FF83FF00
FFC1FF83FF00
FFC1FF83FF00
FFC1FF83FF00
FFC1FF83FF00
FFC1FF83FF00
FFC1FF83FF00
FFC1FF83FF00
FFC1FF83FF00
FFC1FF83FF00
FFFFF003FF00
FFFFF003FF00
FFFFF003FF00
FFFFF003FF00
FFFFF003FF00
FFFFF003FF00
FFFFF003FF00
FFFFF003FF00
FFFFF003FF00
FFFFF003FF00
FFFFF003FF00
FFFFF003FF00
FFFFF003FF00
FFFFF003FF00
FFFFF003FF00
FFFFF003FF00
FFFFF003FF00
FFFFF003FF00
FFFFF003FF00
FFFFF003FF00
FFFE0003FF00
FFFE0003FF00
FFFE0003FF00
FFFE0003FF00
FFFE0003FF00
FFFE0003FF00
FFFE0003FF00
FFFE0003FF00
FFFE0003FF00
FFFE0003FF00
FFFE0003FF00
FFFE0003FF00
FFFE0003FF00
FFFE0003FF00
FFFE0003FF00
FFFE0003FF00
FFFE0003FF00
FFFE0003FF00
FFFE0003FF00
FFFE0003FF00
07FFFFFFE000
07FFFFFFE000
07FFFFFFE000
07FFFFFFE000
07FFFFFFE000
07FFFFFFE000
07FFFFFFE000
07FFFFFFE000
07FFFFFFE000
07FFFFFFE000
07FFFFFFE000
07FFFFFFE000
07FFFFFFE000
07FFFFFFE000
07FFFFFFE000
07FFFFFFE000
07FFFFFFE000
07FFFFFFE000
07FFFFFFE000
07FFFFFFE000
FFC000000000
FFC000000000
FFC000000000
FFC000000000
FFC000000000
FFC000000000
FFC000000000
FFC000000000
FFC000000000
FFC000000000
FFC000000000
FFC000000000
FFC000000000
FFC000000000
FFC000000000
FFC000000000
FFC000000000
FFC000000000
FFC000000000
FFC000000000
000000000000
000000000000
000000000000
000000000000
000000000000
000000000000
000000000000
000000000000
000000000000
000000000000
000000000000
000000000000
000000000000
000000000000
000000000000
000000000000
000000000000
000000000000
000000000000
000000000000
ENDCHAR
STARTCHAR U+0152
ENCODING 338
SWIDTH 1000 0
BBX 45 200 0 -40
DWIDTH 45 0
BITMAP
000000000000
000000000000
000000000000
000000000000
000000000000
000000000000
000000000000
000000000000
000000000000
000000000000
000000000000
000000000000
000000000000
000000000000
000000000000
000000000000
000000000000
000000000000
000000000000
000000000000
07FFFFFFFF00
07FFFFFFFF00
07FFFFFFFF00
07FFFFFFFF00
07FFFFFFFF00
07FFFFFFFF00
07FFFFFFFF00
07FFFFFFFF00
07FFFFFFFF00
07FFFFFFFF00
07FFFFFFFF00
07FFFFFFFF00
07FFFFFFFF00
07FFFFFFFF00
07FFFFFFFF00
07FFFFFFFF00
07FFFFFFFF00
07FFFFFFFF00
07FFFFFFFF00
07FFFFFFFF00
FFC1FF800000
FFC1FF800000
FFC1FF800000
FFC1FF800000
FFC1FF800000
FFC1FF800000
FFC1FF800000
FFC1FF800000
FFC1FF800000
FFC1FF800000
FFC1FF800000
FFC1FF800000
FFC1FF800000
FFC1FF800000
FFC1FF800000
FFC1FF800000
FFC1FF800000
FFC1FF800000
FFC1FF800000
FFC1FF800000
FFC1FF800000
FFC1FF800000
FFC1FF800000
FFC1FF800000
FFC1FF800000
FFC1FF800000
FFC1FF800000
FFC1FF800000
FFC1FF800000
FFC1FF800000
FFC1FF800000
FFC1FF800000
FFC1FF800000
FFC1FF800000
FFC1FF800000
FFC1FF800000
FFC1FF800000
FFC1FF800000
FFC1FF800000
FFC1FF800000
FFC1FFFFE000
FFC1FFFFE000
FFC1FFFFE000
FFC1FFFFE000
FFC1FFFFE000
FFC1FFFFE000
FFC1FFFFE000
FFC1FFFFE000
FFC1FFFFE000
FFC1FFFFE000
FFC1FFFFE000
FFC1FFFFE000
FFC1FFFFE000
FFC1FFFFE000
FFC1FFFFE000
FFC1FFFFE000
FFC1FFFFE000
FFC1FFFFE000
FFC1FFFFE000
FFC1FFFFE000
FFC1FF800000
FFC1FF800000
FFC1FF800000
FFC1FF800000
FFC1FF800000
FFC1FF800000
FFC1FF800000
FFC1FF800000
FFC1FF800000
FFC1FF800000
FFC1FF800000
FFC1FF800000
FFC1FF800000
FFC1FF800000
FFC1FF800000
FFC1FF800000
FFC1FF800000
FFC1FF800000
FFC1FF800000
FFC1FF800000
FFC1FF800000
FFC1FF800000
FFC1FF800000
FFC1FF800000
FFC1FF800000
FFC1FF800000
FFC1FF800000
FFC1FF800000
FFC1FF800000
FFC1FF800000
FFC1FF800000
FFC1FF800000
FFC1FF800000
FFC1FF800000
FFC1FF800000
FFC1FF800000
FFC1FF800000
FFC1FF800000
FFC1FF800000
FFC1FF800000
07FFFFFFFF00
07FFFFFFFF00
07FFFFFFFF00
07FFFFFFFF00
07FFFFFFFF00
07FFFFFFFF00
07FFFFFFFF00
07FFFFFFFF00
07FFFFFFFF00
07FFFFFFFF00
07FFFFFFFF00
07FFFFFFFF00
07FFFFFFFF00
07FFFFFFFF00
07FFFFFFFF00
07FFFFFFFF00
07FFFFFFFF00
07FFFFFFFF00
07FFFFFFFF00
07FFFFFFFF00
000000000000
000000000000
000000000000
000000000000
000000000000
000000000000
000000000000
000000000000
000000000000
000000000000
000000000000
000000000000
000000000000
000000000000
000000000000
000000000000
000000000000
000000000000
000000000000
000000000000
000000000000
000000000000
000000000000
000000000000
000000000000
000000000000
000000000000
000000000000
000000000000
000000000000
000000000000
000000000000
000000000000
000000000000
000000000000
000000000000
000000000000
000000000000
000000000000
000000000000
ENDCHAR
STARTCHAR U+00D6
ENCODING 214
SWIDTH 1000 0
BBX 45 200 0 -40
DWIDTH 45 0
BITMAP
07FE007FE000
07FE007FE000
07FE007FE000
07FE007FE000
07FE007FE000
07FE007FE000
07FE007FE000
07FE007FE000
07FE007FE000
07FE007FE000
07FE007FE000
07FE007FE000
07FE007FE000
07FE007FE000
07FE007FE000
07FE007FE000
07FE007FE000
07FE007FE000
07FE007FE000
07FE007FE000
000000000000
000000000000
000000000000
000000000000
000000000000
000000000000
000000000000
000000000000
000000000000
000000000000
000000000000
000000000000
000000000000
000000000000
000000000000
000000000000
000000000000
000000000000
000000000000
000000000000
07FFFFFFE000
07FFFFFFE000
07FFFFFFE000
07FFFFFFE000
07FFFFFFE000
07FFFFFFE000
07FFFFFFE000
07FFFFFFE000
07FFFFFFE000
07FFFFFFE000
07FFFFFFE000
07FFFFFFE000
07FFFFFFE000
07FFFFFFE000
07FFFFFFE000
07FFFFFFE000
07FFFFFFE000
07FFFFFFE000
07FFFFFFE000
07FFFFFFE000
FFC00003FF00
FFC00003FF00
FFC00003FF00
FFC00003FF00
FFC00003FF00
FFC00003FF00
FFC00003FF00
FFC00003FF00
FFC00003FF00
FFC00003FF00
FFC00003FF00
FFC00003FF00
FFC00003FF00
FFC00003FF00
FFC00003FF00
FFC00003FF00
FFC00003FF00
FFC00003FF00
FFC00003FF00
FFC00003FF00
FFC00003FF00
FFC00003FF00
FFC00003FF00
FFC00003FF00
FFC00003FF00
FFC00003FF00
FFC00003FF00
FFC00003FF00
FFC00003FF00
FFC00003FF00
FFC00003FF00
FFC00003FF00
FFC00003FF00
FFC00003FF00
FFC00003FF00
FFC00003FF00
FFC00003FF00
FFC00003FF00
FFC00003FF00
FFC00003FF00
FFC00003FF00
FFC00003FF00
FFC00003FF00
FFC00003FF00
FFC00003FF00
FFC00003FF00
FFC00003FF00
FFC00003FF00
FFC00003FF00
FFC00003FF00
FFC00003FF00
FFC00003FF00
FFC00003FF00
FFC00003FF00
FFC00003FF00
FFC00003FF00
FFC00003FF00
FFC00003FF00
FFC00003FF00
FFC00003FF00
FFC00003FF00
FFC00003FF00
FFC00003FF00
FFC00003FF00
FFC00003FF00
FFC00003FF00
FFC00003FF00
FFC00003FF00
FFC00003FF00
FFC00003FF00
FFC00003FF00
FFC00003FF00
FFC00003FF00
FFC00003FF00
FFC00003FF00
FFC00003FF00
FFC00003FF00
FFC00003FF00
FFC00003FF00
FFC00003FF00
07FFFFFFE000
07FFFFFFE000
07FFFFFFE000
07FFFFFFE000
07FFFFFFE000
07FFFFFFE000
07FFFFFFE000
07FFFFFFE000
07FFFFFFE000
07FFFFFFE000
07FFFFFFE000
07FFFFFFE000
07FFFFFFE000
07FFFFFFE000
07FFFFFFE000
07FFFFFFE000
07FFFFFFE000
07FFFFFFE000
07FFFFFFE000
07FFFFFFE000
000000000000
000000000000
000000000000
000000000000
000000000000
000000000000
000000000000
000000000000
000000000000
000000000000
000000000000
000000000000
000000000000
000000000000
000000000000
000000000000
000000000000
000000000000
000000000000
000000000000
000000000000
000000000000
000000000000
000000000000
000000000000
000000000000
000000000000
000000000000
000000000000
000000000000
000000000000
000000000000
000000000000
000000000000
000000000000
000000000000
000000000000
000000000000
000000000000
000000000000
ENDCHAR
STARTCHAR U+00D5
ENCODING 213
SWIDTH 1000 0
BBX 45 200 0 -40
DWIDTH 45 0
BITMAP
07FFF07FE000
07FFF07FE000
07FFF07FE000
07FFF07FE000
07FFF07FE000
07FFF07FE000
07FFF07FE000
07FFF07FE000
07FFF07FE000
07FFF07FE000
07FFF07FE000
07FFF07FE000
07FFF07FE000
07FFF07FE000
07FFF07FE000
07FFF07FE000
07FFF07FE000
07FFF07FE000
07FFF07FE000
07FFF07FE000
FFC1FFFC0000
FFC1FFFC0000
FFC1FFFC0000
FFC1FFFC0000
FFC1FFFC0000
FFC1FFFC0000
FFC1FFFC0000
FFC1FFFC0000
FFC1FFFC0000
FFC1FFFC0000
FFC1FFFC0000
FFC1FFFC0000
FFC1FFFC0000
FFC1FFFC0000
FFC1FFFC0000
FFC1FFFC0000
FFC1FFFC0000
FFC1FFFC0000
FFC1FFFC0000
FFC1FFFC0000
07FFFFFFE000
07FFFFFFE000
07FFFFFFE000
07FFFFFFE000
07FFFFFFE000
07FFFFFFE000
07FFFFFFE000
07FFFFFFE000
07FFFFFFE000
07FFFFFFE000
07FFFFFFE000
07FFFFFFE000
07FFFFFFE000
07FFFFFFE000
07FFFFFFE000
07FFFFFFE000
07FFFFFFE000
07FFFFFFE000
07FFFFFFE000
07FFFFFFE000
FFC00003FF00
FFC00003FF00
FFC00003FF00
FFC00003FF00
FFC00003FF00
FFC00003FF00
FFC00003FF00
FFC00003FF00
FFC00003FF00
FFC00003FF00
FFC00003FF00
FFC00003FF00
FFC00003FF00
FFC00003FF00
FFC00003FF00
FFC00003FF00
FFC00003FF00
FFC00003FF00
FFC00003FF00
FFC00003FF00
FFC00003FF00
FFC00003FF00
FFC00003FF00
FFC00003FF00
FFC00003FF00
FFC00003FF00
FFC00003FF00
FFC00003FF00
FFC00003FF00
FFC00003FF00
FFC00003FF00
FFC00003FF00
FFC00003FF00
FFC00003FF00
FFC00003FF00
FFC00003FF00
FFC00003FF00
FFC00003FF00
FFC00003FF00
FFC00003FF00
FFC00003FF00
FFC00003FF00
FFC00003FF00
FFC00003FF00
FFC00003FF00
FFC00003FF00
FFC00003FF00
FFC00003FF00
FFC00003FF00
FFC00003FF00
FFC00003FF00
FFC00003FF00
FFC00003FF00
FFC00003FF00
FFC00003FF00
FFC00003FF00
FFC00003FF00
FFC00003FF00
FFC00003FF00
FFC00003FF00
FFC00003FF00
FFC00003FF00
FFC00003FF00
FFC00003FF00
FFC00003FF00
FFC00003FF00
FFC00003FF00
FFC00003FF00
FFC00003FF00
FFC00003FF00
FFC00003FF00
FFC00003FF00
FFC00003FF00
FFC00003FF00
FFC00003FF00
FFC00003FF00
FFC00003FF00
FFC00003FF00
FFC00003FF00
FFC00003FF00
07FFFFFFE000
07FFFFFFE000
07FFFFFFE000
07FFFFFFE000
07FFFFFFE000
07FFFFFFE000
07FFFFFFE000
07FFFFFFE000
07FFFFFFE000
07FFFFFFE000
07FFFFFFE000
07FFFFFFE000
07FFFFFFE000
07FFFFFFE000
07FFFFFFE000
07FFFFFFE000
07FFFFFFE000
07FFFFFFE000
07FFFFFFE000
07FFFFFFE000
000000000000
000000000000
000000000000
000000000000
000000000000
000000000000
000000000000
000000000000
000000000000
000000000000
000000000000
000000000000
000000000000
000000000000
000000000000
000000000000
000000000000
000000000000
000000000000
000000000000
000000000000
000000000000
000000000000
000000000000
000000000000
000000000000
000000000000
000000000000
000000000000
000000000000
000000000000
000000000000
000000000000
000000000000
000000000000
000000000000
000000000000
000000000000
000000000000
000000000000
ENDCHAR
STARTCHAR U+00D4
ENCODING 212
SWIDTH 1000 0
BBX 45 200 0 -40
DWIDTH 45 0
BITMAP
003FFFFC0000
003FFFFC0000
003FFFFC0000
003FFFFC0000
003FFFFC0000
003FFFFC0000
003FFFFC0000
003FFFFC0000
003FFFFC0000
003FFFFC0000
003FFFFC0000
003FFFFC0000
003FFFFC0000
003FFFFC0000
003FFFFC0000
003FFFFC0000
003FFFFC0000
003FFFFC0000
003FFFFC0000
003FFFFC0000
07FE007FE000
07FE007FE000
07FE007FE000
07FE007FE000
07FE007FE000
07FE007FE000
07FE007FE000
07FE007FE000
07FE007FE000
07FE007FE000
07FE007FE000
07FE007FE000
07FE007FE000
07FE007FE000
07FE007FE000
07FE007FE000
07FE007FE000
07FE007FE000
07FE007FE000
07FE007FE000
07FFFFFFE000
07FFFFFFE000
07FFFFFFE000
07FFFFFFE000
07FFFFFFE000
07FFFFFFE000
07FFFFFFE000
07FFFFFFE000
07FFFFFFE000
07FFFFFFE000
07FFFFFFE000
07FFFFFFE000
07FFFFFFE000
07FFFFFFE000
07FFFFFFE000
07FFFFFFE000
07FFFFFFE000
07FFFFFFE000
07FFFFFFE000
07FFFFFFE000
FFC00003FF00
FFC00003FF00
FFC00003FF00
FFC00003FF00
FFC00003FF00
FFC00003FF00
FFC00003FF00
FFC00003FF00
FFC00003FF00
FFC00003FF00
FFC00003FF00
FFC00003FF00
FFC00003FF00
FFC00003FF00
FFC00003FF00
FFC00003FF00
FFC00003FF00
FFC00003FF00
FFC00003FF00
FFC00003FF00
FFC00003FF00
FFC00003FF00
FFC00003FF00
FFC00003FF00
FFC00003FF00
FFC00003FF00
FFC00003FF00
FFC00003FF00
FFC00003FF00
FFC00003FF00
FFC00003FF00
FFC00003FF00
FFC00003FF00
FFC00003FF00
FFC00003FF00
FFC00003FF00
FFC00003FF00
FFC00003FF00
FFC00003FF00
FFC00003FF00
FFC00003FF00
FFC00003FF00
FFC00003FF00
FFC00003FF00
FFC00003FF00
FFC00003FF00
FFC00003FF00
FFC00003FF00
FFC00003FF00
FFC00003FF00
FFC00003FF00
FFC00003FF00
FFC00003FF00
FFC00003FF00
FFC00003FF00
FFC00003FF00
FFC00003FF00
FFC00003FF00
FFC00003FF00
FFC00003FF00
FFC00003FF00
FFC00003FF00
FFC00003FF00
FFC00003FF00
FFC00003FF00
FFC00003FF00
FFC00003FF00
FFC00003FF00
FFC00003FF00
FFC00003FF00
FFC00003FF00
FFC00003FF00
FFC00003FF00
FFC00003FF00
FFC00003FF00
FFC00003FF00
FFC00003FF00
FFC00003FF00
FFC00003FF00
FFC00003FF00
07FFFFFFE000
07FFFFFFE000
07FFFFFFE000
07FFFFFFE000
07FFFFFFE000
07FFFFFFE000
07FFFFFFE000
07FFFFFFE000
07FFFFFFE000
07FFFFFFE000
07FFFFFFE000
07FFFFFFE000
07FFFFFFE000
07FFFFFFE000
07FFFFFFE000
07FFFFFFE000
07FFFFFFE000
07FFFFFFE000
07FFFFFFE000
07FFFFFFE000
000000000000
000000000000
000000000000
000000000000
000000000000
000000000000
000000000000
000000000000
000000000000
000000000000
000000000000
000000000000
000000000000
000000000000
000000000000
000000000000
000000000000
000000000000
000000000000
000000000000
000000000000
000000000000
000000000000
000000000000
000000000000
000000000000
000000000000
000000000000
000000000000
000000000000
000000000000
000000000000
000000000000
000000000000
000000000000
000000000000
000000000000
000000000000
000000000000
000000000000
ENDCHAR
STARTCHAR U+00D3
ENCODING 211
SWIDTH 1000 0
BBX 45 200 0 -40
DWIDTH 45 0
BITMAP
0001FFFC0000
0001FFFC0000
0001FFFC0000
0001FFFC0000
0001FFFC0000
0001FFFC0000
0001FFFC0000
0001FFFC0000
0001FFFC0000
0001FFFC0000
0001FFFC0000
0001FFFC0000
0001FFFC0000
0001FFFC0000
0001FFFC0000
0001FFFC0000
0001FFFC0000
0001FFFC0000
0001FFFC0000
0001FFFC0000
07FFF0000000
07FFF0000000
07FFF0000000
07FFF0000000
07FFF0000000
07FFF0000000
07FFF0000000
07FFF0000000
07FFF0000000
07FFF0000000
07FFF0000000
07FFF0000000
07FFF0000000
07FFF0000000
07FFF0000000
07FFF0000000
07FFF0000000
07FFF0000000
07FFF0000000
07FFF0000000
07FFFFFFE000
07FFFFFFE000
07FFFFFFE000
07FFFFFFE000
07FFFFFFE000
07FFFFFFE000
07FFFFFFE000
07FFFFFFE000
07FFFFFFE000
07FFFFFFE000
07FFFFFFE000
07FFFFFFE000
07FFFFFFE000
07FFFFFFE000
07FFFFFFE000
07FFFFFFE000
07FFFFFFE000
07FFFFFFE000
07FFFFFFE000
07FFFFFFE000
FFC00003FF00
FFC00003FF00
FFC00003FF00
FFC00003FF00
FFC00003FF00
FFC00003FF00
FFC00003FF00
FFC00003FF00
FFC00003FF00
FFC00003FF00
FFC00003FF00
FFC00003FF00
FFC00003FF00
FFC00003FF00
FFC00003FF00
FFC00003FF00
FFC00003FF00
FFC00003FF00
FFC00003FF00
FFC00003FF00
FFC00003FF00
FFC00003FF00
FFC00003FF00
FFC00003FF00
FFC00003FF00
FFC00003FF00
FFC00003FF00
FFC00003FF00
FFC00003FF00
FFC00003FF00
FFC00003FF00
FFC00003FF00
FFC00003FF00
FFC00003FF00
FFC00003FF00
FFC00003FF00
FFC00003FF00
FFC00003FF00
FFC00003FF00
FFC00003FF00
FFC00003FF00
FFC00003FF00
FFC00003FF00
FFC00003FF00
FFC00003FF00
FFC00003FF00
FFC00003FF00
FFC00003FF00
FFC00003FF00
FFC00003FF00
FFC00003FF00
FFC00003FF00
FFC00003FF00
FFC00003FF00
FFC00003FF00
FFC00003FF00
FFC00003FF00
FFC00003FF00
FFC00003FF00
FFC00003FF00
FFC00003FF00
FFC00003FF00
FFC00003FF00
FFC00003FF00
FFC00003FF00
FFC00003FF00
FFC00003FF00
FFC00003FF00
FFC00003FF00
FFC00003FF00
FFC00003FF00
FFC00003FF00
FFC00003FF00
FFC00003FF00
FFC00003FF00
FFC00003FF00
FFC00003FF00
FFC00003FF00
FFC00003FF00
FFC00003FF00
07FFFFFFE000
07FFFFFFE000
07FFFFFFE000
07FFFFFFE000
07FFFFFFE000
07FFFFFFE000
07FFFFFFE000
07FFFFFFE000
07FFFFFFE000
07FFFFFFE000
07FFFFFFE000
07FFFFFFE000
07FFFFFFE000
07FFFFFFE000
07FFFFFFE000
07FFFFFFE000
07FFFFFFE000
07FFFFFFE000
07FFFFFFE000
07FFFFFFE000
000000000000
000000000000
000000000000
000000000000
000000000000
000000000000
000000000000
000000000000
000000000000
000000000000
000000000000
000000000000
000000000000
000000000000
000000000000
000000000000
000000000000
000000000000
000000000000
000000000000
000000000000
000000000000
000000000000
000000000000
000000000000
000000000000
000000000000
000000000000
000000000000
000000000000
000000000000
000000000000
000000000000
000000000000
000000000000
000000000000
000000000000
000000000000
000000000000
000000000000
ENDCHAR
STARTCHAR U+00D2
ENCODING 210
SWIDTH 1000 0
BBX 45 200 0 -40
DWIDTH 45 0
BITMAP
003FFF800000
003FFF800000
003FFF800000
003FFF800000
003FFF800000
003FFF800000
003FFF800000
003FFF800000
003FFF800000
003FFF800000
003FFF800000
003FFF800000
003FFF800000
003FFF800000
003FFF800000
003FFF800000
003FFF800000
003FFF800000
003FFF800000
003FFF800000
00000FFFE000
00000FFFE000
00000FFFE000
00000FFFE000
00000FFFE000
00000FFFE000
00000FFFE000
00000FFFE000
00000FFFE000
00000FFFE000
00000FFFE000
00000FFFE000
00000FFFE000
00000FFFE000
00000FFFE000
00000FFFE000
00000FFFE000
00000FFFE000
00000FFFE000
00000FFFE000
07FFFFFFE000
07FFFFFFE000
07FFFFFFE000
07FFFFFFE000
07FFFFFFE000
07FFFFFFE000
07FFFFFFE000
07FFFFFFE000
07FFFFFFE000
07FFFFFFE000
07FFFFFFE000
07FFFFFFE000
07FFFFFFE000
07FFFFFFE000
07FFFFFFE000
07FFFFFFE000
07FFFFFFE000
07FFFFFFE000
07FFFFFFE000
07FFFFFFE000
FFC00003FF00
FFC00003FF00
FFC00003FF00
FFC00003FF00
FFC00003FF00
FFC00003FF00
FFC00003FF00
FFC00003FF00
FFC00003FF00
FFC00003FF00
FFC00003FF00
FFC00003FF00
FFC00003FF00
FFC00003FF00
FFC00003FF00
FFC00003FF00
FFC00003FF00
FFC00003FF00
FFC00003FF00
FFC00003FF00
FFC00003FF00
FFC00003FF00
FFC00003FF00
FFC00003FF00
FFC00003FF00
FFC00003FF00
FFC00003FF00
FFC00003FF00
FFC00003FF00
FFC00003FF00
FFC00003FF00
FFC00003FF00
FFC00003FF00
FFC00003FF00
FFC00003FF00
FFC00003FF00
FFC00003FF00
FFC00003FF00
FFC00003FF00
FFC00003FF00
FFC00003FF00
FFC00003FF00
FFC00003FF00
FFC00003FF00
FFC00003FF00
FFC00003FF00
FFC00003FF00
FFC00003FF00
FFC00003FF00
FFC00003FF00
FFC00003FF00
FFC00003FF00
FFC00003FF00
FFC00003FF00
FFC00003FF00
FFC00003FF00
FFC00003FF00
FFC00003FF00
FFC00003FF00
FFC00003FF00
FFC00003FF00
FFC00003FF00
FFC00003FF00
FFC00003FF00
FFC00003FF00
FFC00003FF00
FFC00003FF00
FFC00003FF00
FFC00003FF00
FFC00003FF00
FFC00003FF00
FFC00003FF00
FFC00003FF00
FFC00003FF00
FFC00003FF00
FFC00003FF00
FFC00003FF00
FFC00003FF00
FFC00003FF00
FFC00003FF00
07FFFFFFE000
07FFFFFFE000
07FFFFFFE000
07FFFFFFE000
07FFFFFFE000
07FFFFFFE000
07FFFFFFE000
07FFFFFFE000
07FFFFFFE000
07FFFFFFE000
07FFFFFFE000
07FFFFFFE000
07FFFFFFE000
07FFFFFFE000
07FFFFFFE000
07FFFFFFE000
07FFFFFFE000
07FFFFFFE000
07FFFFFFE000
07FFFFFFE000
000000000000
000000000000
000000000000
000000000000
000000000000
000000000000
000000000000
000000000000
000000000000
000000000000
000000000000
000000000000
000000000000
000000000000
000000000000
000000000000
000000000000
000000000000
000000000000
000000000000
000000000000
000000000000
000000000000
000000000000
000000000000
000000000000
000000000000
000000000000
000000000000
000000000000
000000000000
000000000000
000000000000
000000000000
000000000000
000000000000
000000000000
000000000000
000000000000
000000000000
ENDCHAR
STARTCHAR U+00D1
ENCODING 209
SWIDTH 1000 0
BBX 45 200 0 -40
DWIDTH 45 0
BITMAP
003FFF83FF00
003FFF83FF00
003FFF83FF00
003FFF83FF00
003FFF83FF00
003FFF83FF00
003FFF83FF00
003FFF83FF00
003FFF83FF00
003FFF83FF00
003FFF83FF00
003FFF83FF00
003FFF83FF00
003FFF83FF00
003FFF83FF00
003FFF83FF00
003FFF83FF00
003FFF83FF00
003FFF83FF00
003FFF83FF00
07FE0FFFE000
07FE0FFFE000
07FE0FFFE000
07FE0FFFE000
07FE0FFFE000
07FE0FFFE000
07FE0FFFE000
07FE0FFFE000
07FE0FFFE000
07FE0FFFE000
07FE0FFFE000
07FE0FFFE000
07FE0FFFE000
07FE0FFFE000
07FE0FFFE000
07FE0FFFE000
07FE0FFFE000
07FE0FFFE000
07FE0FFFE000
07FE0FFFE000
FFFE0003FF00
FFFE0003FF00
FFFE0003FF00
FFFE0003FF00
FFFE0003FF00
FFFE0003FF00
FFFE0003FF00
FFFE0003FF00
FFFE0003FF00
FFFE0003FF00
FFFE0003FF00
FFFE0003FF00
FFFE0003FF00
FFFE0003FF00
FFFE0003FF00
FFFE0003FF00
FFFE0003FF00
FFFE0003FF00
FFFE0003FF00
FFFE0003FF00
FFFFF003FF00
FFFFF003FF00
FFFFF003FF00
FFFFF003FF00
FFFFF003FF00
FFFFF003FF00
FFFFF003FF00
FFFFF003FF00
FFFFF003FF00
FFFFF003FF00
FFFFF003FF00
FFFFF003FF00
FFFFF003FF00
FFFFF003FF00
FFFFF003FF00
FFFFF003FF00
FFFFF003FF00
FFFFF003FF00
FFFFF003FF00
FFFFF003FF00
FFC1FF83FF00
FFC1FF83FF00
FFC1FF83FF00
FFC1FF83FF00
FFC1FF83FF00
FFC1FF83FF00
FFC1FF83FF00
FFC1FF83FF00
FFC1FF83FF00
FFC1FF83FF00
FFC1FF83FF00
FFC1FF83FF00
FFC1FF83FF00
FFC1FF83FF00
FFC1FF83FF00
FFC1FF83FF00
FFC1FF83FF00
FFC1FF83FF00
FFC1FF83FF00
FFC1FF83FF00
FFC00FFFFF00
FFC00FFFFF00
FFC00FFFFF00
FFC00FFFFF00
FFC00FFFFF00
FFC00FFFFF00
FFC00FFFFF00
FFC00FFFFF00
FFC00FFFFF00
FFC00FFFFF00
FFC00FFFFF00
FFC00FFFFF00
FFC00FFFFF00
FFC00FFFFF00
FFC00FFFFF00
FFC00FFFFF00
FFC00FFFFF00
FFC00FFFFF00
FFC00FFFFF00
FFC00FFFFF00
FFC0007FFF00
FFC0007FFF00
FFC0007FFF00
FFC0007FFF00
FFC0007FFF00
FFC0007FFF00
FFC0007FFF00
FFC0007FFF00
FFC0007FFF00
FFC0007FFF00
FFC0007FFF00
FFC0007FFF00
FFC0007FFF00
FFC0007FFF00
FFC0007FFF00
FFC0007FFF00
FFC0007FFF00
FFC0007FFF00
FFC0007FFF00
FFC0007FFF00
FFC00003FF00
FFC00003FF00
FFC00003FF00
FFC00003FF00
FFC00003FF00
FFC00003FF00
FFC00003FF00
FFC00003FF00
FFC00003FF00
FFC00003FF00
FFC00003FF00
FFC00003FF00
FFC00003FF00
FFC00003FF00
FFC00003FF00
FFC00003FF00
FFC00003FF00
FFC00003FF00
FFC00003FF00
FFC00003FF00
000000000000
000000000000
000000000000
000000000000
000000000000
000000000000
000000000000
000000000000
000000000000
000000000000
000000000000
000000000000
000000000000
000000000000
000000000000
000000000000
000000000000
000000000000
000000000000
000000000000
000000000000
000000000000
000000000000
000000000000
000000000000
000000000000
000000000000
000000000000
000000000000
000000000000
000000000000
000000000000
000000000000
000000000000
000000000000
000000000000
000000000000
000000000000
000000000000
000000000000
ENDCHAR
STARTCHAR U+00D0
ENCODING 208
SWIDTH 1000 0
BBX 45 200 0 -40
DWIDTH 45 0
BITMAP
000000000000
000000000000
000000000000
000000000000
000000000000
000000000000
000000000000
000000000000
000000000000
000000000000
000000000000
000000000000
000000000000
000000000000
000000000000
000000000000
000000000000
000000000000
000000000000
000000000000
FFFFF0000000
FFFFF0000000
FFFFF0000000
FFFFF0000000
FFFFF0000000
FFFFF0000000
FFFFF0000000
FFFFF0000000
FFFFF0000000
FFFFF0000000
FFFFF0000000
FFFFF0000000
FFFFF0000000
FFFFF0000000
FFFFF0000000
FFFFF0000000
FFFFF0000000
FFFFF0000000
FFFFF0000000
FFFFF0000000
FFC1FF800000
FFC1FF800000
FFC1FF800000
FFC1FF800000
FFC1FF800000
FFC1FF800000
FFC1FF800000
FFC1FF800000
FFC1FF800000
FFC1FF800000
FFC1FF800000
FFC1FF800000
FFC1FF800000
FFC1FF800000
FFC1FF800000
FFC1FF800000
FFC1FF800000
FFC1FF800000
FFC1FF800000
FFC1FF800000
FFC1FF800000
FFC1FF800000
FFC1FF800000
FFC1FF800000
FFC1FF800000
FFC1FF800000
FFC1FF800000
FFC1FF800000
FFC1FF800000
FFC1FF800000
FFC1FF800000
FFC1FF800000
FFC1FF800000
FFC1FF800000
FFC1FF800000
FFC1FF800000
FFC1FF800000
FFC1FF800000
FFC1FF800000
FFC1FF800000
FFC1FF800000
FFC1FF800000
FFC1FF800000
FFC1FF800000
FFC1FF800000
FFC1FF800000
FFC1FF800000
FFC1FF800000
FFC1FF800000
FFC1FF800000
FFC1FF800000
FFC1FF800000
FFC1FF800000
FFC1FF800000
FFC1FF800000
FFC1FF800000
FFC1FF800000
FFC1FF800000
FFC1FF800000
FFC1FF800000
FFFFFFFFE000
FFFFFFFFE000
FFFFFFFFE000
FFFFFFFFE000
FFFFFFFFE000
FFFFFFFFE000
FFFFFFFFE000
FFFFFFFFE000
FFFFFFFFE000
FFFFFFFFE000
FFFFFFFFE000
FFFFFFFFE000
FFFFFFFFE000
FFFFFFFFE000
FFFFFFFFE000
FFFFFFFFE000
FFFFFFFFE000
FFFFFFFFE000
FFFFFFFFE000
FFFFFFFFE000
0001FF83FF00
0001FF83FF00
0001FF83FF00
0001FF83FF00
0001FF83FF00
0001FF83FF00
0001FF83FF00
0001FF83FF00
0001FF83FF00
0001FF83FF00
0001FF83FF00
0001FF83FF00
0001FF83FF00
0001FF83FF00
0001FF83FF00
0001FF83FF00
0001FF83FF00
0001FF83FF00
0001FF83FF00
0001FF83FF00
0001FF83FF00
0001FF83FF00
0001FF83FF00
0001FF83FF00
0001FF83FF00
0001FF83FF00
0001FF83FF00
0001FF83FF00
0001FF83FF00
0001FF83FF00
0001FF83FF00
0001FF83FF00
0001FF83FF00
0001FF83FF00
0001FF83FF00
0001FF83FF00
0001FF83FF00
0001FF83FF00
0001FF83FF00
0001FF83FF00
0001FF83FF00
0001FF83FF00
0001FF83FF00
0001FF83FF00
0001FF83FF00
0001FF83FF00
0001FF83FF00
0001FF83FF00
0001FF83FF00
0001FF83FF00
0001FF83FF00
0001FF83FF00
0001FF83FF00
0001FF83FF00
0001FF83FF00
0001FF83FF00
0001FF83FF00
0001FF83FF00
0001FF83FF00
0001FF83FF00
00000FFFE000
00000FFFE000
00000FFFE000
00000FFFE000
00000FFFE000
00000FFFE000
00000FFFE000
00000FFFE000
00000FFFE000
00000FFFE000
00000FFFE000
00000FFFE000
00000FFFE000
00000FFFE000
00000FFFE000
00000FFFE000
00000FFFE000
00000FFFE000
00000FFFE000
00000FFFE000
ENDCHAR
STARTCHAR U+00CF
ENCODING 207
SWIDTH 1000 0
BBX 45 200 0 -40
DWIDTH 45 0
BITMAP
07FE007FE000
07FE007FE000
07FE007FE000
07FE007FE000
07FE007FE000
07FE007FE000
07FE007FE000
07FE007FE000
07FE007FE000
07FE007FE000
07FE007FE000
07FE007FE000
07FE007FE000
07FE007FE000
07FE007FE000
07FE007FE000
07FE007FE000
07FE007FE000
07FE007FE000
07FE007FE000
000000000000
000000000000
000000000000
000000000000
000000000000
000000000000
000000000000
000000000000
000000000000
000000000000
000000000000
000000000000
000000000000
000000000000
000000000000
000000000000
000000000000
000000000000
000000000000
000000000000
07FFFFFFE000
07FFFFFFE000
07FFFFFFE000
07FFFFFFE000
07FFFFFFE000
07FFFFFFE000
07FFFFFFE000
07FFFFFFE000
07FFFFFFE000
07FFFFFFE000
07FFFFFFE000
07FFFFFFE000
07FFFFFFE000
07FFFFFFE000
07FFFFFFE000
07FFFFFFE000
07FFFFFFE000
07FFFFFFE000
07FFFFFFE000
07FFFFFFE000
0001FF800000
0001FF800000
0001FF800000
0001FF800000
0001FF800000
0001FF800000
0001FF800000
0001FF800000
0001FF800000
0001FF800000
0001FF800000
0001FF800000
0001FF800000
0001FF800000
0001FF800000
0001FF800000
0001FF800000
0001FF800000
0001FF800000
0001FF800000
0001FF800000
0001FF800000
0001FF800000
0001FF800000
0001FF800000
0001FF800000
0001FF800000
0001FF800000
0001FF800000
0001FF800000
0001FF800000
0001FF800000
0001FF800000
0001FF800000
0001FF800000
0001FF800000
0001FF800000
0001FF800000
0001FF800000
0001FF800000
0001FF800000
0001FF800000
0001FF800000
0001FF800000
0001FF800000
0001FF800000
0001FF800000
0001FF800000
0001FF800000
0001FF800000
0001FF800000
0001FF800000
0001FF800000
0001FF800000
0001FF800000
0001FF800000
0001FF800000
0001FF800000
0001FF800000
0001FF800000
0001FF800000
0001FF800000
0001FF800000
0001FF800000
0001FF800000
0001FF800000
0001FF800000
0001FF800000
0001FF800000
0001FF800000
0001FF800000
0001FF800000
0001FF800000
0001FF800000
0001FF800000
0001FF800000
0001FF800000
0001FF800000
0001FF800000
0001FF800000
07FFFFFFE000
07FFFFFFE000
07FFFFFFE000
07FFFFFFE000
07FFFFFFE000
07FFFFFFE000
07FFFFFFE000
07FFFFFFE000
07FFFFFFE000
07FFFFFFE000
07FFFFFFE000
07FFFFFFE000
07FFFFFFE000
07FFFFFFE000
07FFFFFFE000
07FFFFFFE000
07FFFFFFE000
07FFFFFFE000
07FFFFFFE000
07FFFFFFE000
000000000000
000000000000
000000000000
000000000000
000000000000
000000000000
000000000000
000000000000
000000000000
000000000000
000000000000
000000000000
000000000000
000000000000
000000000000
000000000000
000000000000
000000000000
000000000000
000000000000
000000000000
000000000000
000000000000
000000000000
000000000000
000000000000
000000000000
000000000000
000000000000
000000000000
000000000000
000000000000
000000000000
000000000000
000000000000
000000000000
000000000000
000000000000
000000000000
000000000000
ENDCHAR
STARTCHAR U+00CE
ENCODING 206
SWIDTH 1000 0
BBX 45 200 0 -40
DWIDTH 45 0
BITMAP
003FFFFC0000
003FFFFC0000
003FFFFC0000
003FFFFC0000
003FFFFC0000
003FFFFC0000
003FFFFC0000
003FFFFC0000
003FFFFC0000
003FFFFC0000
003FFFFC0000
003FFFFC0000
003FFFFC0000
003FFFFC0000
003FFFFC0000
003FFFFC0000
003FFFFC0000
003FFFFC0000
003FFFFC0000
003FFFFC0000
07FE007FE000
07FE007FE000
07FE007FE000
07FE007FE000
07FE007FE000
07FE007FE000
07FE007FE000
07FE007FE000
07FE007FE000
07FE007FE000
07FE007FE000
07FE007FE000
07FE007FE000
07FE007FE000
07FE007FE000
07FE007FE000
07FE007FE000
07FE007FE000
07FE007FE000
07FE007FE000
07FFFFFFE000
07FFFFFFE000
07FFFFFFE000
07FFFFFFE000
07FFFFFFE000
07FFFFFFE000
07FFFFFFE000
07FFFFFFE000
07FFFFFFE000
07FFFFFFE000
07FFFFFFE000
07FFFFFFE000
07FFFFFFE000
07FFFFFFE000
07FFFFFFE000
07FFFFFFE000
07FFFFFFE000
07FFFFFFE000
07FFFFFFE000
07FFFFFFE000
0001FF800000
0001FF800000
0001FF800000
0001FF800000
0001FF800000
0001FF800000
0001FF800000
0001FF800000
0001FF800000
0001FF800000
0001FF800000
0001FF800000
0001FF800000
0001FF800000
0001FF800000
0001FF800000
0001FF800000
0001FF800000
0001FF800000
0001FF800000
0001FF800000
0001FF800000
0001FF800000
0001FF800000
0001FF800000
0001FF800000
0001FF800000
0001FF800000
0001FF800000
0001FF800000
0001FF800000
0001FF800000
0001FF800000
0001FF800000
0001FF800000
0001FF800000
0001FF800000
0001FF800000
0001FF800000
0001FF800000
0001FF800000
0001FF800000
0001FF800000
0001FF800000
0001FF800000
0001FF800000
0001FF800000
0001FF800000
0001FF800000
0001FF800000
0001FF800000
0001FF800000
0001FF800000
0001FF800000
0001FF800000
0001FF800000
0001FF800000
0001FF800000
0001FF800000
0001FF800000
0001FF800000
0001FF800000
0001FF800000
0001FF800000
0001FF800000
0001FF800000
0001FF800000
0001FF800000
0001FF800000
0001FF800000
0001FF800000
0001FF800000
0001FF800000
0001FF800000
0001FF800000
0001FF800000
0001FF800000
0001FF800000
0001FF800000
0001FF800000
07FFFFFFE000
07FFFFFFE000
07FFFFFFE000
07FFFFFFE000
07FFFFFFE000
07FFFFFFE000
07FFFFFFE000
07FFFFFFE000
07FFFFFFE000
07FFFFFFE000
07FFFFFFE000
07FFFFFFE000
07FFFFFFE000
07FFFFFFE000
07FFFFFFE000
07FFFFFFE000
07FFFFFFE000
07FFFFFFE000
07FFFFFFE000
07FFFFFFE000
000000000000
000000000000
000000000000
000000000000
000000000000
000000000000
000000000000
000000000000
000000000000
000000000000
000000000000
000000000000
000000000000
000000000000
000000000000
000000000000
000000000000
000000000000
000000000000
000000000000
000000000000
000000000000
000000000000
000000000000
000000000000
000000000000
000000000000
000000000000
000000000000
000000000000
000000000000
000000000000
000000000000
000000000000
000000000000
000000000000
000000000000
000000000000
000000000000
000000000000
ENDCHAR
STARTCHAR U+00CD
ENCODING 205
SWIDTH 1000 0
BBX 45 200 0 -40
DWIDTH 45 0
BITMAP
0001FFFC0000
0001FFFC0000
0001FFFC0000
0001FFFC0000
0001FFFC0000
0001FFFC0000
0001FFFC0000
0001FFFC0000
0001FFFC0000
0001FFFC0000
0001FFFC0000
0001FFFC0000
0001FFFC0000
0001FFFC0000
0001FFFC0000
0001FFFC0000
0001FFFC0000
0001FFFC0000
0001FFFC0000
0001FFFC0000
07FFF0000000
07FFF0000000
07FFF0000000
07FFF0000000
07FFF0000000
07FFF0000000
07FFF0000000
07FFF0000000
07FFF0000000
07FFF0000000
07FFF0000000
07FFF0000000
07FFF0000000
07FFF0000000
07FFF0000000
07FFF0000000
07FFF0000000
07FFF0000000
07FFF0000000
07FFF0000000
07FFFFFFE000
07FFFFFFE000
07FFFFFFE000
07FFFFFFE000
07FFFFFFE000
07FFFFFFE000
07FFFFFFE000
07FFFFFFE000
07FFFFFFE000
07FFFFFFE000
07FFFFFFE000
07FFFFFFE000
07FFFFFFE000
07FFFFFFE000
07FFFFFFE000
07FFFFFFE000
07FFFFFFE000
07FFFFFFE000
07FFFFFFE000
07FFFFFFE000
0001FF800000
0001FF800000
0001FF800000
0001FF800000
0001FF800000
0001FF800000
0001FF800000
0001FF800000
0001FF800000
0001FF800000
0001FF800000
0001FF800000
0001FF800000
0001FF800000
0001FF800000
0001FF800000
0001FF800000
0001FF800000
0001FF800000
0001FF800000
0001FF800000
0001FF800000
0001FF800000
0001FF800000
0001FF800000
0001FF800000
0001FF800000
0001FF800000
0001FF800000
0001FF800000
0001FF800000
0001FF800000
0001FF800000
0001FF800000
0001FF800000
0001FF800000
0001FF800000
0001FF800000
0001FF800000
0001FF800000
0001FF800000
0001FF800000
0001FF800000
0001FF800000
0001FF800000
0001FF800000
0001FF800000
0001FF800000
0001FF800000
0001FF800000
0001FF800000
0001FF800000
0001FF800000
0001FF800000
0001FF800000
0001FF800000
0001FF800000
0001FF800000
0001FF800000
0001FF800000
0001FF800000
0001FF800000
0001FF800000
0001FF800000
0001FF800000
0001FF800000
0001FF800000
0001FF800000
0001FF800000
0001FF800000
0001FF800000
0001FF800000
0001FF800000
0001FF800000
0001FF800000
0001FF800000
0001FF800000
0001FF800000
0001FF800000
0001FF800000
07FFFFFFE000
07FFFFFFE000
07FFFFFFE000
07FFFFFFE000
07FFFFFFE000
07FFFFFFE000
07FFFFFFE000
07FFFFFFE000
07FFFFFFE000
07FFFFFFE000
07FFFFFFE000
07FFFFFFE000
07FFFFFFE000
07FFFFFFE000
07FFFFFFE000
07FFFFFFE000
07FFFFFFE000
07FFFFFFE000
07FFFFFFE000
07FFFFFFE000
000000000000
000000000000
000000000000
000000000000
000000000000
000000000000
000000000000
000000000000
000000000000
000000000000
000000000000
000000000000
000000000000
000000000000
000000000000
000000000000
000000000000
000000000000
000000000000
000000000000
000000000000
000000000000
000000000000
000000000000
000000000000
000000000000
000000000000
000000000000
000000000000
000000000000
000000000000
000000000000
000000000000
000000000000
000000000000
000000000000
000000000000
000000000000
000000000000
000000000000
ENDCHAR
STARTCHAR U+00CC
ENCODING 204
SWIDTH 1000 0
BBX 45 200 0 -40
DWIDTH 45 0
BITMAP
003FFF800000
003FFF800000
003FFF800000
003FFF800000
003FFF800000
003FFF800000
003FFF800000
003FFF800000
003FFF800000
003FFF800000
003FFF800000
003FFF800000
003FFF800000
003FFF800000
003FFF800000
003FFF800000
003FFF800000
003FFF800000
003FFF800000
003FFF800000
00000FFFE000
00000FFFE000
00000FFFE000
00000FFFE000
00000FFFE000
00000FFFE000
00000FFFE000
00000FFFE000
00000FFFE000
00000FFFE000
00000FFFE000
00000FFFE000
00000FFFE000
00000FFFE000
00000FFFE000
00000FFFE000
00000FFFE000
00000FFFE000
00000FFFE000
00000FFFE000
07FFFFFFE000
07FFFFFFE000
07FFFFFFE000
07FFFFFFE000
07FFFFFFE000
07FFFFFFE000
07FFFFFFE000
07FFFFFFE000
07FFFFFFE000
07FFFFFFE000
07FFFFFFE000
07FFFFFFE000
07FFFFFFE000
07FFFFFFE000
07FFFFFFE000
07FFFFFFE000
07FFFFFFE000
07FFFFFFE000
07FFFFFFE000
07FFFFFFE000
0001FF800000
0001FF800000
0001FF800000
0001FF800000
0001FF800000
0001FF800000
0001FF800000
0001FF800000
0001FF800000
0001FF800000
0001FF800000
0001FF800000
0001FF800000
0001FF800000
0001FF800000
0001FF800000
0001FF800000
0001FF800000
0001FF800000
0001FF800000
0001FF800000
0001FF800000
0001FF800000
0001FF800000
0001FF800000
0001FF800000
0001FF800000
0001FF800000
0001FF800000
0001FF800000
0001FF800000
0001FF800000
0001FF800000
0001FF800000
0001FF800000
0001FF800000
0001FF800000
0001FF800000
0001FF800000
0001FF800000
0001FF800000
0001FF800000
0001FF800000
0001FF800000
0001FF800000
0001FF800000
0001FF800000
0001FF800000
0001FF800000
0001FF800000
0001FF800000
0001FF800000
0001FF800000
0001FF800000
0001FF800000
0001FF800000
0001FF800000
0001FF800000
0001FF800000
0001FF800000
0001FF800000
0001FF800000
0001FF800000
0001FF800000
0001FF800000
0001FF800000
0001FF800000
0001FF800000
0001FF800000
0001FF800000
0001FF800000
0001FF800000
0001FF800000
0001FF800000
0001FF800000
0001FF800000
0001FF800000
0001FF800000
0001FF800000
0001FF800000
07FFFFFFE000
07FFFFFFE000
07FFFFFFE000
07FFFFFFE000
07FFFFFFE000
07FFFFFFE000
07FFFFFFE000
07FFFFFFE000
07FFFFFFE000
07FFFFFFE000
07FFFFFFE000
07FFFFFFE000
07FFFFFFE000
07FFFFFFE000
07FFFFFFE000
07FFFFFFE000
07FFFFFFE000
07FFFFFFE000
07FFFFFFE000
07FFFFFFE000
000000000000
000000000000
000000000000
000000000000
000000000000
000000000000
000000000000
000000000000
000000000000
000000000000
000000000000
000000000000
000000000000
000000000000
000000000000
000000000000
000000000000
000000000000
000000000000
000000000000
000000000000
000000000000
000000000000
000000000000
000000000000
000000000000
000000000000
000000000000
000000000000
000000000000
000000000000
000000000000
000000000000
000000000000
000000000000
000000000000
000000000000
000000000000
000000000000
000000000000
ENDCHAR
STARTCHAR U+00CB
ENCODING 203
SWIDTH 1000 0
BBX 45 200 0 -40
DWIDTH 45 0
BITMAP
07FE007FE000
07FE007FE000
07FE007FE000
07FE007FE000
07FE007FE000
07FE007FE000
07FE007FE000
07FE007FE000
07FE007FE000
07FE007FE000
07FE007FE000
07FE007FE000
07FE007FE000
07FE007FE000
07FE007FE000
07FE007FE000
07FE007FE000
07FE007FE000
07FE007FE000
07FE007FE000
000000000000
000000000000
000000000000
000000000000
000000000000
000000000000
000000000000
000000000000
000000000000
000000000000
000000000000
000000000000
000000000000
000000000000
000000000000
000000000000
000000000000
000000000000
000000000000
000000000000
FFFFFFFFFF00
FFFFFFFFFF00
FFFFFFFFFF00
FFFFFFFFFF00
FFFFFFFFFF00
FFFFFFFFFF00
FFFFFFFFFF00
FFFFFFFFFF00
FFFFFFFFFF00
FFFFFFFFFF00
FFFFFFFFFF00
FFFFFFFFFF00
FFFFFFFFFF00
FFFFFFFFFF00
FFFFFFFFFF00
FFFFFFFFFF00
FFFFFFFFFF00
FFFFFFFFFF00
FFFFFFFFFF00
FFFFFFFFFF00
FFC000000000
FFC000000000
FFC000000000
FFC000000000
FFC000000000
FFC000000000
FFC000000000
FFC000000000
FFC000000000
FFC000000000
FFC000000000
FFC000000000
FFC000000000
FFC000000000
FFC000000000
FFC000000000
FFC000000000
FFC000000000
FFC000000000
FFC000000000
FFFFFFFC0000
FFFFFFFC0000
FFFFFFFC0000
FFFFFFFC0000
FFFFFFFC0000
FFFFFFFC0000
FFFFFFFC0000
FFFFFFFC0000
FFFFFFFC0000
FFFFFFFC0000
FFFFFFFC0000
FFFFFFFC0000
FFFFFFFC0000
FFFFFFFC0000
FFFFFFFC0000
FFFFFFFC0000
FFFFFFFC0000
FFFFFFFC0000
FFFFFFFC0000
FFFFFFFC0000
FFC000000000
FFC000000000
FFC000000000
FFC000000000
FFC000000000
FFC000000000
FFC000000000
FFC000000000
FFC000000000
FFC000000000
FFC000000000
FFC000000000
FFC000000000
FFC000000000
FFC000000000
FFC000000000
FFC000000000
FFC000000000
FFC000000000
FFC000000000
FFC000000000
FFC000000000
FFC000000000
FFC000000000
FFC000000000
FFC000000000
FFC000000000
FFC000000000
FFC000000000
FFC000000000
FFC000000000
FFC000000000
FFC000000000
FFC000000000
FFC000000000
FFC000000000
FFC000000000
FFC000000000
FFC000000000
FFC000000000
FFFFFFFFFF00
FFFFFFFFFF00
FFFFFFFFFF00
FFFFFFFFFF00
FFFFFFFFFF00
FFFFFFFFFF00
FFFFFFFFFF00
FFFFFFFFFF00
FFFFFFFFFF00
FFFFFFFFFF00
FFFFFFFFFF00
FFFFFFFFFF00
FFFFFFFFFF00
FFFFFFFFFF00
FFFFFFFFFF00
FFFFFFFFFF00
FFFFFFFFFF00
FFFFFFFFFF00
FFFFFFFFFF00
FFFFFFFFFF00
000000000000
000000000000
000000000000
000000000000
000000000000
000000000000
000000000000
000000000000
000000000000
000000000000
000000000000
000000000000
000000000000
000000000000
000000000000
000000000000
000000000000
000000000000
000000000000
000000000000
000000000000
000000000000
000000000000
000000000000
000000000000
000000000000
000000000000
000000000000
000000000000
000000000000
000000000000
000000000000
000000000000
000000000000
000000000000
000000000000
000000000000
000000000000
000000000000
000000000000
ENDCHAR
STARTCHAR U+00CA
ENCODING 202
SWIDTH 1000 0
BBX 45 200 0 -40
DWIDTH 45 0
BITMAP
003FFFFC0000
003FFFFC0000
003FFFFC0000
003FFFFC0000
003FFFFC0000
003FFFFC0000
003FFFFC0000
003FFFFC0000
003FFFFC0000
003FFFFC0000
003FFFFC0000
003FFFFC0000
003FFFFC0000
003FFFFC0000
003FFFFC0000
003FFFFC0000
003FFFFC0000
003FFFFC0000
003FFFFC0000
003FFFFC0000
07FE007FE000
07FE007FE000
07FE007FE000
07FE007FE000
07FE007FE000
07FE007FE000
07FE007FE000
07FE007FE000
07FE007FE000
07FE007FE000
07FE007FE000
07FE007FE000
07FE007FE000
07FE007FE000
07FE007FE000
07FE007FE000
07FE007FE000
07FE007FE000
07FE007FE000
07FE007FE000
FFFFFFFFFF00
FFFFFFFFFF00
FFFFFFFFFF00
FFFFFFFFFF00
FFFFFFFFFF00
FFFFFFFFFF00
FFFFFFFFFF00
FFFFFFFFFF00
FFFFFFFFFF00
FFFFFFFFFF00
FFFFFFFFFF00
FFFFFFFFFF00
FFFFFFFFFF00
FFFFFFFFFF00
FFFFFFFFFF00
FFFFFFFFFF00
FFFFFFFFFF00
FFFFFFFFFF00
FFFFFFFFFF00
FFFFFFFFFF00
FFC000000000
FFC000000000
FFC000000000
FFC000000000
FFC000000000
FFC000000000
FFC000000000
FFC000000000
FFC000000000
FFC000000000
FFC000000000
FFC000000000
FFC000000000
FFC000000000
FFC000000000
FFC000000000
FFC000000000
FFC000000000
FFC000000000
FFC000000000
FFFFFF800000
FFFFFF800000
FFFFFF800000
FFFFFF800000
FFFFFF800000
FFFFFF800000
FFFFFF800000
FFFFFF800000
FFFFFF800000
FFFFFF800000
FFFFFF800000
FFFFFF800000
FFFFFF800000
FFFFFF800000
FFFFFF800000
FFFFFF800000
FFFFFF800000
FFFFFF800000
FFFFFF800000
FFFFFF800000
FFC000000000
FFC000000000
FFC000000000
FFC000000000
FFC000000000
FFC000000000
FFC000000000
FFC000000000
FFC000000000
FFC000000000
FFC000000000
FFC000000000
FFC000000000
FFC000000000
FFC000000000
FFC000000000
FFC000000000
FFC000000000
FFC000000000
FFC000000000
FFC000000000
FFC000000000
FFC000000000
FFC000000000
FFC000000000
FFC000000000
FFC000000000
FFC000000000
FFC000000000
FFC000000000
FFC000000000
FFC000000000
FFC000000000
FFC000000000
FFC000000000
FFC000000000
FFC000000000
FFC000000000
FFC000000000
FFC000000000
FFFFFFFFFF00
FFFFFFFFFF00
FFFFFFFFFF00
FFFFFFFFFF00
FFFFFFFFFF00
FFFFFFFFFF00
FFFFFFFFFF00
FFFFFFFFFF00
FFFFFFFFFF00
FFFFFFFFFF00
FFFFFFFFFF00
FFFFFFFFFF00
FFFFFFFFFF00
FFFFFFFFFF00
FFFFFFFFFF00
FFFFFFFFFF00
FFFFFFFFFF00
FFFFFFFFFF00
FFFFFFFFFF00
FFFFFFFFFF00
000000000000
000000000000
000000000000
000000000000
000000000000
000000000000
000000000000
000000000000
000000000000
000000000000
000000000000
000000000000
000000000000
000000000000
000000000000
000000000000
000000000000
000000000000
000000000000
000000000000
000000000000
000000000000
000000000000
000000000000
000000000000
000000000000
000000000000
000000000000
000000000000
000000000000
000000000000
000000000000
000000000000
000000000000
000000000000
000000000000
000000000000
000000000000
000000000000
000000000000
ENDCHAR
STARTCHAR U+00C9
ENCODING 201
SWIDTH 1000 0
BBX 45 200 0 -40
DWIDTH 45 0
BITMAP
00000FFFE000
00000FFFE000
00000FFFE000
00000FFFE000
00000FFFE000
00000FFFE000
00000FFFE000
00000FFFE000
00000FFFE000
00000FFFE000
00000FFFE000
00000FFFE000
00000FFFE000
00000FFFE000
00000FFFE000
00000FFFE000
00000FFFE000
00000FFFE000
00000FFFE000
00000FFFE000
003FFF800000
003FFF800000
003FFF800000
003FFF800000
003FFF800000
003FFF800000
003FFF800000
003FFF800000
003FFF800000
003FFF800000
003FFF800000
003FFF800000
003FFF800000
003FFF800000
003FFF800000
003FFF800000
003FFF800000
003FFF800000
003FFF800000
003FFF800000
FFFFFFFFFF00
FFFFFFFFFF00
FFFFFFFFFF00
FFFFFFFFFF00
FFFFFFFFFF00
FFFFFFFFFF00
FFFFFFFFFF00
FFFFFFFFFF00
FFFFFFFFFF00
FFFFFFFFFF00
FFFFFFFFFF00
FFFFFFFFFF00
FFFFFFFFFF00
FFFFFFFFFF00
FFFFFFFFFF00
FFFFFFFFFF00
FFFFFFFFFF00
FFFFFFFFFF00
FFFFFFFFFF00
FFFFFFFFFF00
FFC000000000
FFC000000000
FFC000000000
FFC000000000
FFC000000000
FFC000000000
FFC000000000
FFC000000000
FFC000000000
FFC000000000
FFC000000000
FFC000000000
FFC000000000
FFC000000000
FFC000000000
FFC000000000
FFC000000000
FFC000000000
FFC000000000
FFC000000000
FFFFFFFC0000
FFFFFFFC0000
FFFFFFFC0000
FFFFFFFC0000
FFFFFFFC0000
FFFFFFFC0000
FFFFFFFC0000
FFFFFFFC0000
FFFFFFFC0000
FFFFFFFC0000
FFFFFFFC0000
FFFFFFFC0000
FFFFFFFC0000
FFFFFFFC0000
FFFFFFFC0000
FFFFFFFC0000
FFFFFFFC0000
FFFFFFFC0000
FFFFFFFC0000
FFFFFFFC0000
FFC000000000
FFC000000000
FFC000000000
FFC000000000
FFC000000000
FFC000000000
FFC000000000
FFC000000000
FFC000000000
FFC000000000
FFC000000000
FFC000000000
FFC000000000
FFC000000000
FFC000000000
FFC000000000
FFC000000000
FFC000000000
FFC000000000
FFC000000000
FFC000000000
FFC000000000
FFC000000000
FFC000000000
FFC000000000
FFC000000000
FFC000000000
FFC000000000
FFC000000000
FFC000000000
FFC000000000
FFC000000000
FFC000000000
FFC000000000
FFC000000000
FFC000000000
FFC000000000
FFC000000000
FFC000000000
FFC000000000
FFFFFFFFFF00
FFFFFFFFFF00
FFFFFFFFFF00
FFFFFFFFFF00
FFFFFFFFFF00
FFFFFFFFFF00
FFFFFFFFFF00
FFFFFFFFFF00
FFFFFFFFFF00
FFFFFFFFFF00
FFFFFFFFFF00
FFFFFFFFFF00
FFFFFFFFFF00
FFFFFFFFFF00
FFFFFFFFFF00
FFFFFFFFFF00
FFFFFFFFFF00
FFFFFFFFFF00
FFFFFFFFFF00
FFFFFFFFFF00
000000000000
000000000000
000000000000
000000000000
000000000000
000000000000
000000000000
000000000000
000000000000
000000000000
000000000000
000000000000
000000000000
000000000000
000000000000
000000000000
000000000000
000000000000
000000000000
000000000000
000000000000
000000000000
000000000000
000000000000
000000000000
000000000000
000000000000
000000000000
000000000000
000000000000
000000000000
000000000000
000000000000
000000000000
000000000000
000000000000
000000000000
000000000000
000000000000
000000000000
ENDCHAR
STARTCHAR U+00C8
ENCODING 200
SWIDTH 1000 0
BBX 45 200 0 -40
DWIDTH 45 0
BITMAP
07FFF0000000
07FFF0000000
07FFF0000000
07FFF0000000
07FFF0000000
07FFF0000000
07FFF0000000
07FFF0000000
07FFF0000000
07FFF0000000
07FFF0000000
07FFF0000000
07FFF0000000
07FFF0000000
07FFF0000000
07FFF0000000
07FFF0000000
07FFF0000000
07FFF0000000
07FFF0000000
0001FFFC0000
0001FFFC0000
0001FFFC0000
0001FFFC0000
0001FFFC0000
0001FFFC0000
0001FFFC0000
0001FFFC0000
0001FFFC0000
0001FFFC0000
0001FFFC0000
0001FFFC0000
0001FFFC0000
0001FFFC0000
0001FFFC0000
0001FFFC0000
0001FFFC0000
0001FFFC0000
0001FFFC0000
0001FFFC0000
FFFFFFFFFF00
FFFFFFFFFF00
FFFFFFFFFF00
FFFFFFFFFF00
FFFFFFFFFF00
FFFFFFFFFF00
FFFFFFFFFF00
FFFFFFFFFF00
FFFFFFFFFF00
FFFFFFFFFF00
FFFFFFFFFF00
FFFFFFFFFF00
FFFFFFFFFF00
FFFFFFFFFF00
FFFFFFFFFF00
FFFFFFFFFF00
FFFFFFFFFF00
FFFFFFFFFF00
FFFFFFFFFF00
FFFFFFFFFF00
FFC000000000
FFC000000000
FFC000000000
FFC000000000
FFC000000000
FFC000000000
FFC000000000
FFC000000000
FFC000000000
FFC000000000
FFC000000000
FFC000000000
FFC000000000
FFC000000000
FFC000000000
FFC000000000
FFC000000000
FFC000000000
FFC000000000
FFC000000000
FFFFFFFC0000
FFFFFFFC0000
FFFFFFFC0000
FFFFFFFC0000
FFFFFFFC0000
FFFFFFFC0000
FFFFFFFC0000
FFFFFFFC0000
FFFFFFFC0000
FFFFFFFC0000
FFFFFFFC0000
FFFFFFFC0000
FFFFFFFC0000
FFFFFFFC0000
FFFFFFFC0000
FFFFFFFC0000
FFFFFFFC0000
FFFFFFFC0000
FFFFFFFC0000
FFFFFFFC0000
FFC000000000
FFC000000000
FFC000000000
FFC000000000
FFC000000000
FFC000000000
FFC000000000
FFC000000000
FFC000000000
FFC000000000
FFC000000000
FFC000000000
FFC000000000
FFC000000000
FFC000000000
FFC000000000
FFC000000000
FFC000000000
FFC000000000
FFC000000000
FFC000000000
FFC000000000
FFC000000000
FFC000000000
FFC000000000
FFC000000000
FFC000000000
FFC000000000
FFC000000000
FFC000000000
FFC000000000
FFC000000000
FFC000000000
FFC000000000
FFC000000000
FFC000000000
FFC000000000
FFC000000000
FFC000000000
FFC000000000
FFFFFFFFFF00
FFFFFFFFFF00
FFFFFFFFFF00
FFFFFFFFFF00
FFFFFFFFFF00
FFFFFFFFFF00
FFFFFFFFFF00
FFFFFFFFFF00
FFFFFFFFFF00
FFFFFFFFFF00
FFFFFFFFFF00
FFFFFFFFFF00
FFFFFFFFFF00
FFFFFFFFFF00
FFFFFFFFFF00
FFFFFFFFFF00
FFFFFFFFFF00
FFFFFFFFFF00
FFFFFFFFFF00
FFFFFFFFFF00
000000000000
000000000000
000000000000
000000000000
000000000000
000000000000
000000000000
000000000000
000000000000
000000000000
000000000000
000000000000
000000000000
000000000000
000000000000
000000000000
000000000000
000000000000
000000000000
000000000000
000000000000
000000000000
000000000000
000000000000
000000000000
000000000000
000000000000
000000000000
000000000000
000000000000
000000000000
000000000000
000000000000
000000000000
000000000000
000000000000
000000000000
000000000000
000000000000
000000000000
ENDCHAR
STARTCHAR U+00C7
ENCODING 199
SWIDTH 1000 0
BBX 45 200 0 -40
DWIDTH 45 0
BITMAP
000000000000
000000000000
000000000000
000000000000
000000000000
000000000000
000000000000
000000000000
000000000000
000000000000
000000000000
000000000000
000000000000
000000000000
000000000000
000000000000
000000000000
000000000000
000000000000
000000000000
003FFFFFE000
003FFFFFE000
003FFFFFE000
003FFFFFE000
003FFFFFE000
003FFFFFE000
003FFFFFE000
003FFFFFE000
003FFFFFE000
003FFFFFE000
003FFFFFE000
003FFFFFE000
003FFFFFE000
003FFFFFE000
003FFFFFE000
003FFFFFE000
003FFFFFE000
003FFFFFE000
003FFFFFE000
003FFFFFE000
07FE0003FF00
07FE0003FF00
07FE0003FF00
07FE0003FF00
07FE0003FF00
07FE0003FF00
07FE0003FF00
07FE0003FF00
07FE0003FF00
07FE0003FF00
07FE0003FF00
07FE0003FF00
07FE0003FF00
07FE0003FF00
07FE0003FF00
07FE0003FF00
07FE0003FF00
07FE0003FF00
07FE0003FF00
07FE0003FF00
FFC000000000
FFC000000000
FFC000000000
FFC000000000
FFC000000000
FFC000000000
FFC000000000
FFC000000000
FFC000000000
FFC000000000
FFC000000000
FFC000000000
FFC000000000
FFC000000000
FFC000000000
FFC000000000
FFC000000000
FFC000000000
FFC000000000
FFC000000000
FFC000000000
FFC000000000
FFC000000000
FFC000000000
FFC000000000
FFC000000000
FFC000000000
FFC000000000
FFC000000000
FFC000000000
FFC000000000
FFC000000000
FFC000000000
FFC000000000
FFC000000000
FFC000000000
FFC000000000
FFC000000000
FFC000000000
FFC000000000
FFC000000000
FFC000000000
FFC000000000
FFC000000000
FFC000000000
FFC000000000
FFC000000000
FFC000000000
FFC000000000
FFC000000000
FFC000000000
FFC000000000
FFC000000000
FFC000000000
FFC000000000
FFC000000000
FFC000000000
FFC000000000
FFC000000000
FFC000000000
07FE0003FF00
07FE0003FF00
07FE0003FF00
07FE0003FF00
07FE0003FF00
07FE0003FF00
07FE0003FF00
07FE0003FF00
07FE0003FF00
07FE0003FF00
07FE0003FF00
07FE0003FF00
07FE0003FF00
07FE0003FF00
07FE0003FF00
07FE0003FF00
07FE0003FF00
07FE0003FF00
07FE0003FF00
07FE0003FF00
003FFFFFE000
003FFFFFE000
003FFFFFE000
003FFFFFE000
003FFFFFE000
003FFFFFE000
003FFFFFE000
003FFFFFE000
003FFFFFE000
003FFFFFE000
003FFFFFE000
003FFFFFE000
003FFFFFE000
003FFFFFE000
003FFFFFE000
003FFFFFE000
003FFFFFE000
003FFFFFE000
003FFFFFE000
003FFFFFE000
00000FFC0000
00000FFC0000
00000FFC0000
00000FFC0000
00000FFC0000
00000FFC0000
00000FFC0000
00000FFC0000
00000FFC0000
00000FFC0000
00000FFC0000
00000FFC0000
00000FFC0000
00000FFC0000
00000FFC0000
00000FFC0000
00000FFC0000
00000FFC0000
00000FFC0000
00000FFC0000
003FFFFC0000
003FFFFC0000
003FFFFC0000
003FFFFC0000
003FFFFC0000
003FFFFC0000
003FFFFC0000
003FFFFC0000
003FFFFC0000
003FFFFC0000
003FFFFC0000
003FFFFC0000
003FFFFC0000
003FFFFC0000
003FFFFC0000
003FFFFC0000
003FFFFC0000
003FFFFC0000
003FFFFC0000
003FFFFC0000
ENDCHAR
STARTCHAR U+00C6
ENCODING 198
SWIDTH 1000 0
BBX 45 200 0 -40
DWIDTH 45 0
BITMAP
000000000000
000000000000
000000000000
000000000000
000000000000
000000000000
000000000000
000000000000
000000000000
000000000000
000000000000
000000000000
000000000000
000000000000
000000000000
000000000000
000000000000
000000000000
000000000000
000000000000
003FFFFFFF00
003FFFFFFF00
003FFFFFFF00
003FFFFFFF00
003FFFFFFF00
003FFFFFFF00
003FFFFFFF00
003FFFFFFF00
003FFFFFFF00
003FFFFFFF00
003FFFFFFF00
003FFFFFFF00
003FFFFFFF00
003FFFFFFF00
003FFFFFFF00
003FFFFFFF00
003FFFFFFF00
003FFFFFFF00
003FFFFFFF00
003FFFFFFF00
07FFFF800000
07FFFF800000
07FFFF800000
07FFFF800000
07FFFF800000
07FFFF800000
07FFFF800000
07FFFF800000
07FFFF800000
07FFFF800000
07FFFF800000
07FFFF800000
07FFFF800000
07FFFF800000
07FFFF800000
07FFFF800000
07FFFF800000
07FFFF800000
07FFFF800000
07FFFF800000
FFC1FF800000
FFC1FF800000
FFC1FF800000
FFC1FF800000
FFC1FF800000
FFC1FF800000
FFC1FF800000
FFC1FF800000
FFC1FF800000
FFC1FF800000
FFC1FF800000
FFC1FF800000
FFC1FF800000
FFC1FF800000
FFC1FF800000
FFC1FF800000
FFC1FF800000
FFC1FF800000
FFC1FF800000
FFC1FF800000
FFC1FFFFE000
FFC1FFFFE000
FFC1FFFFE000
FFC1FFFFE000
FFC1FFFFE000
FFC1FFFFE000
FFC1FFFFE000
FFC1FFFFE000
FFC1FFFFE000
FFC1FFFFE000
FFC1FFFFE000
FFC1FFFFE000
FFC1FFFFE000
FFC1FFFFE000
FFC1FFFFE000
FFC1FFFFE000
FFC1FFFFE000
FFC1FFFFE000
FFC1FFFFE000
FFC1FFFFE000
FFFFFF800000
FFFFFF800000
FFFFFF800000
FFFFFF800000
FFFFFF800000
FFFFFF800000
FFFFFF800000
FFFFFF800000
FFFFFF800000
FFFFFF800000
FFFFFF800000
FFFFFF800000
FFFFFF800000
FFFFFF800000
FFFFFF800000
FFFFFF800000
FFFFFF800000
FFFFFF800000
FFFFFF800000
FFFFFF800000
FFC1FF800000
FFC1FF800000
FFC1FF800000
FFC1FF800000
FFC1FF800000
FFC1FF800000
FFC1FF800000
FFC1FF800000
FFC1FF800000
FFC1FF800000
FFC1FF800000
FFC1FF800000
FFC1FF800000
FFC1FF800000
FFC1FF800000
FFC1FF800000
FFC1FF800000
FFC1FF800000
FFC1FF800000
FFC1FF800000
FFC1FFFFFF00
FFC1FFFFFF00
FFC1FFFFFF00
FFC1FFFFFF00
FFC1FFFFFF00
FFC1FFFFFF00
FFC1FFFFFF00
FFC1FFFFFF00
FFC1FFFFFF00
FFC1FFFFFF00
FFC1FFFFFF00
FFC1FFFFFF00
FFC1FFFFFF00
FFC1FFFFFF00
FFC1FFFFFF00
FFC1FFFFFF00
FFC1FFFFFF00
FFC1FFFFFF00
FFC1FFFFFF00
FFC1FFFFFF00
000000000000
000000000000
000000000000
000000000000
000000000000
000000000000
000000000000
000000000000
000000000000
000000000000
000000000000
000000000000
000000000000
000000000000
000000000000
000000000000
000000000000
000000000000
000000000000
000000000000
000000000000
000000000000
000000000000
000000000000
000000000000
000000000000
000000000000
000000000000
000000000000
000000000000
000000000000
000000000000
000000000000
000000000000
000000000000
000000000000
000000000000
000000000000
000000000000
000000000000
ENDCHAR
STARTCHAR U+00C5
ENCODING 197
SWIDTH 1000 0
BBX 45 200 0 -40
DWIDTH 45 0
BITMAP
003FFFFC0000
003FFFFC0000
003FFFFC0000
003FFFFC0000
003FFFFC0000
003FFFFC0000
003FFFFC0000
003FFFFC0000
003FFFFC0000
003FFFFC0000
003FFFFC0000
003FFFFC0000
003FFFFC0000
003FFFFC0000
003FFFFC0000
003FFFFC0000
003FFFFC0000
003FFFFC0000
003FFFFC0000
003FFFFC0000
07FE007FE000
07FE007FE000
07FE007FE000
07FE007FE000
07FE007FE000
07FE007FE000
07FE007FE000
07FE007FE000
07FE007FE000
07FE007FE000
07FE007FE000
07FE007FE000
07FE007FE000
07FE007FE000
07FE007FE000
07FE007FE000
07FE007FE000
07FE007FE000
07FE007FE000
07FE007FE000
003FFFFC0000
003FFFFC0000
003FFFFC0000
003FFFFC0000
003FFFFC0000
003FFFFC0000
003FFFFC0000
003FFFFC0000
003FFFFC0000
003FFFFC0000
003FFFFC0000
003FFFFC0000
003FFFFC0000
003FFFFC0000
003FFFFC0000
003FFFFC0000
003FFFFC0000
003FFFFC0000
003FFFFC0000
003FFFFC0000
003FFFFC0000
003FFFFC0000
003FFFFC0000
003FFFFC0000
003FFFFC0000
003FFFFC0000
003FFFFC0000
003FFFFC0000
003FFFFC0000
003FFFFC0000
003FFFFC0000
003FFFFC0000
003FFFFC0000
003FFFFC0000
003FFFFC0000
003FFFFC0000
003FFFFC0000
003FFFFC0000
003FFFFC0000
003FFFFC0000
07FE007FE000
07FE007FE000
07FE007FE000
07FE007FE000
07FE007FE000
07FE007FE000
07FE007FE000
07FE007FE000
07FE007FE000
07FE007FE000
07FE007FE000
07FE007FE000
07FE007FE000
07FE007FE000
07FE007FE000
07FE007FE000
07FE007FE000
07FE007FE000
07FE007FE000
07FE007FE000
FFFFFFFFFF00
FFFFFFFFFF00
FFFFFFFFFF00
FFFFFFFFFF00
FFFFFFFFFF00
FFFFFFFFFF00
FFFFFFFFFF00
FFFFFFFFFF00
FFFFFFFFFF00
FFFFFFFFFF00
FFFFFFFFFF00
FFFFFFFFFF00
FFFFFFFFFF00
FFFFFFFFFF00
FFFFFFFFFF00
FFFFFFFFFF00
FFFFFFFFFF00
FFFFFFFFFF00
FFFFFFFFFF00
FFFFFFFFFF00
FFC00003FF00
FFC00003FF00
FFC00003FF00
FFC00003FF00
FFC00003FF00
FFC00003FF00
FFC00003FF00
FFC00003FF00
FFC00003FF00
FFC00003FF00
FFC00003FF00
FFC00003FF00
FFC00003FF00
FFC00003FF00
FFC00003FF00
FFC00003FF00
FFC00003FF00
FFC00003FF00
FFC00003FF00
FFC00003FF00
FFC00003FF00
FFC00003FF00
FFC00003FF00
FFC00003FF00
FFC00003FF00
FFC00003FF00
FFC00003FF00
FFC00003FF00
FFC00003FF00
FFC00003FF00
FFC00003FF00
FFC00003FF00
FFC00003FF00
FFC00003FF00
FFC00003FF00
FFC00003FF00
FFC00003FF00
FFC00003FF00
FFC00003FF00
FFC00003FF00
000000000000
000000000000
000000000000
000000000000
000000000000
000000000000
000000000000
000000000000
000000000000
000000000000
000000000000
000000000000
000000000000
000000000000
000000000000
000000000000
000000000000
000000000000
000000000000
000000000000
000000000000
000000000000
000000000000
000000000000
000000000000
000000000000
000000000000
000000000000
000000000000
000000000000
000000000000
000000000000
000000000000
000000000000
000000000000
000000000000
000000000000
000000000000
000000000000
000000000000
ENDCHAR
STARTCHAR U+00C4
ENCODING 196
SWIDTH 1000 0
BBX 45 200 0 -40
DWIDTH 45 0
BITMAP
07FE007FE000
07FE007FE000
07FE007FE000
07FE007FE000
07FE007FE000
07FE007FE000
07FE007FE000
07FE007FE000
07FE007FE000
07FE007FE000
07FE007FE000
07FE007FE000
07FE007FE000
07FE007FE000
07FE007FE000
07FE007FE000
07FE007FE000
07FE007FE000
07FE007FE000
07FE007FE000
000000000000
000000000000
000000000000
000000000000
000000000000
000000000000
000000000000
000000000000
000000000000
000000000000
000000000000
000000000000
000000000000
000000000000
000000000000
000000000000
000000000000
000000000000
000000000000
000000000000
0001FF800000
0001FF800000
0001FF800000
0001FF800000
0001FF800000
0001FF800000
0001FF800000
0001FF800000
0001FF800000
0001FF800000
0001FF800000
0001FF800000
0001FF800000
0001FF800000
0001FF800000
0001FF800000
0001FF800000
0001FF800000
0001FF800000
0001FF800000
003FFFFC0000
003FFFFC0000
003FFFFC0000
003FFFFC0000
003FFFFC0000
003FFFFC0000
003FFFFC0000
003FFFFC0000
003FFFFC0000
003FFFFC0000
003FFFFC0000
003FFFFC0000
003FFFFC0000
003FFFFC0000
003FFFFC0000
003FFFFC0000
003FFFFC0000
003FFFFC0000
003FFFFC0000
003FFFFC0000
07FE007FE000
07FE007FE000
07FE007FE000
07FE007FE000
07FE007FE000
07FE007FE000
07FE007FE000
07FE007FE000
07FE007FE000
07FE007FE000
07FE007FE000
07FE007FE000
07FE007FE000
07FE007FE000
07FE007FE000
07FE007FE000
07FE007FE000
07FE007FE000
07FE007FE000
07FE007FE000
FFFFFFFFFF00
FFFFFFFFFF00
FFFFFFFFFF00
FFFFFFFFFF00
FFFFFFFFFF00
FFFFFFFFFF00
FFFFFFFFFF00
FFFFFFFFFF00
FFFFFFFFFF00
FFFFFFFFFF00
FFFFFFFFFF00
FFFFFFFFFF00
FFFFFFFFFF00
FFFFFFFFFF00
FFFFFFFFFF00
FFFFFFFFFF00
FFFFFFFFFF00
FFFFFFFFFF00
FFFFFFFFFF00
FFFFFFFFFF00
FFC00003FF00
FFC00003FF00
FFC00003FF00
FFC00003FF00
FFC00003FF00
FFC00003FF00
FFC00003FF00
FFC00003FF00
FFC00003FF00
FFC00003FF00
FFC00003FF00
FFC00003FF00
FFC00003FF00
FFC00003FF00
FFC00003FF00
FFC00003FF00
FFC00003FF00
FFC00003FF00
FFC00003FF00
FFC00003FF00
FFC00003FF00
FFC00003FF00
FFC00003FF00
FFC00003FF00
FFC00003FF00
FFC00003FF00
FFC00003FF00
FFC00003FF00
FFC00003FF00
FFC00003FF00
FFC00003FF00
FFC00003FF00
FFC00003FF00
FFC00003FF00
FFC00003FF00
FFC00003FF00
FFC00003FF00
FFC00003FF00
FFC00003FF00
FFC00003FF00
000000000000
000000000000
000000000000
000000000000
000000000000
000000000000
000000000000
000000000000
000000000000
000000000000
000000000000
000000000000
000000000000
000000000000
000000000000
000000000000
000000000000
000000000000
000000000000
000000000000
000000000000
000000000000
000000000000
000000000000
000000000000
000000000000
000000000000
000000000000
000000000000
000000000000
000000000000
000000000000
000000000000
000000000000
000000000000
000000000000
000000000000
000000000000
000000000000
000000000000
ENDCHAR
STARTCHAR U+00C3
ENCODING 195
SWIDTH 1000 0
BBX 45 200 0 -40
DWIDTH 45 0
BITMAP
003FFF83FF00
003FFF83FF00
003FFF83FF00
003FFF83FF00
003FFF83FF00
003FFF83FF00
003FFF83FF00
003FFF83FF00
003FFF83FF00
003FFF83FF00
003FFF83FF00
003FFF83FF00
003FFF83FF00
003FFF83FF00
003FFF83FF00
003FFF83FF00
003FFF83FF00
003FFF83FF00
003FFF83FF00
003FFF83FF00
07FE0FFFE000
07FE0FFFE000
07FE0FFFE000
07FE0FFFE000
07FE0FFFE000
07FE0FFFE000
07FE0FFFE000
07FE0FFFE000
07FE0FFFE000
07FE0FFFE000
07FE0FFFE000
07FE0FFFE000
07FE0FFFE000
07FE0FFFE000
07FE0FFFE000
07FE0FFFE000
07FE0FFFE000
07FE0FFFE000
07FE0FFFE000
07FE0FFFE000
0001FF800000
0001FF800000
0001FF800000
0001FF800000
0001FF800000
0001FF800000
0001FF800000
0001FF800000
0001FF800000
0001FF800000
0001FF800000
0001FF800000
0001FF800000
0001FF800000
0001FF800000
0001FF800000
0001FF800000
0001FF800000
0001FF800000
0001FF800000
003FFFFC0000
003FFFFC0000
003FFFFC0000
003FFFFC0000
003FFFFC0000
003FFFFC0000
003FFFFC0000
003FFFFC0000
003FFFFC0000
003FFFFC0000
003FFFFC0000
003FFFFC0000
003FFFFC0000
003FFFFC0000
003FFFFC0000
003FFFFC0000
003FFFFC0000
003FFFFC0000
003FFFFC0000
003FFFFC0000
07FE007FE000
07FE007FE000
07FE007FE000
07FE007FE000
07FE007FE000
07FE007FE000
07FE007FE000
07FE007FE000
07FE007FE000
07FE007FE000
07FE007FE000
07FE007FE000
07FE007FE000
07FE007FE000
07FE007FE000
07FE007FE000
07FE007FE000
07FE007FE000
07FE007FE000
07FE007FE000
FFFFFFFFFF00
FFFFFFFFFF00
FFFFFFFFFF00
FFFFFFFFFF00
FFFFFFFFFF00
FFFFFFFFFF00
FFFFFFFFFF00
FFFFFFFFFF00
FFFFFFFFFF00
FFFFFFFFFF00
FFFFFFFFFF00
FFFFFFFFFF00
FFFFFFFFFF00
FFFFFFFFFF00
FFFFFFFFFF00
FFFFFFFFFF00
FFFFFFFFFF00
FFFFFFFFFF00
FFFFFFFFFF00
FFFFFFFFFF00
FFC00003FF00
FFC00003FF00
FFC00003FF00
FFC00003FF00
FFC00003FF00
FFC00003FF00
FFC00003FF00
FFC00003FF00
FFC00003FF00
FFC00003FF00
FFC00003FF00
FFC00003FF00
FFC00003FF00
FFC00003FF00
FFC00003FF00
FFC00003FF00
FFC00003FF00
FFC00003FF00
FFC00003FF00
FFC00003FF00
FFC00003FF00
FFC00003FF00
FFC00003FF00
FFC00003FF00
FFC00003FF00
FFC00003FF00
FFC00003FF00
FFC00003FF00
FFC00003FF00
FFC00003FF00
FFC00003FF00
FFC00003FF00
FFC00003FF00
FFC00003FF00
FFC00003FF00
FFC00003FF00
FFC00003FF00
FFC00003FF00
FFC00003FF00
FFC00003FF00
000000000000
000000000000
000000000000
000000000000
000000000000
000000000000
000000000000
000000000000
000000000000
000000000000
000000000000
000000000000
000000000000
000000000000
000000000000
000000000000
000000000000
000000000000
000000000000
000000000000
000000000000
000000000000
000000000000
000000000000
000000000000
000000000000
000000000000
000000000000
000000000000
000000000000
000000000000
000000000000
000000000000
000000000000
000000000000
000000000000
000000000000
000000000000
000000000000
000000000000
ENDCHAR
STARTCHAR U+00C2
ENCODING 194
SWIDTH 1000 0
BBX 45 200 0 -40
DWIDTH 45 0
BITMAP
003FFFFC0000
003FFFFC0000
003FFFFC0000
003FFFFC0000
003FFFFC0000
003FFFFC0000
003FFFFC0000
003FFFFC0000
003FFFFC0000
003FFFFC0000
003FFFFC0000
003FFFFC0000
003FFFFC0000
003FFFFC0000
003FFFFC0000
003FFFFC0000
003FFFFC0000
003FFFFC0000
003FFFFC0000
003FFFFC0000
07FE007FE000
07FE007FE000
07FE007FE000
07FE007FE000
07FE007FE000
07FE007FE000
07FE007FE000
07FE007FE000
07FE007FE000
07FE007FE000
07FE007FE000
07FE007FE000
07FE007FE000
07FE007FE000
07FE007FE000
07FE007FE000
07FE007FE000
07FE007FE000
07FE007FE000
07FE007FE000
0001FF800000
0001FF800000
0001FF800000
0001FF800000
0001FF800000
0001FF800000
0001FF800000
0001FF800000
0001FF800000
0001FF800000
0001FF800000
0001FF800000
0001FF800000
0001FF800000
0001FF800000
0001FF800000
0001FF800000
0001FF800000
0001FF800000
0001FF800000
003FFFFC0000
003FFFFC0000
003FFFFC0000
003FFFFC0000
003FFFFC0000
003FFFFC0000
003FFFFC0000
003FFFFC0000
003FFFFC0000
003FFFFC0000
003FFFFC0000
003FFFFC0000
003FFFFC0000
003FFFFC0000
003FFFFC0000
003FFFFC0000
003FFFFC0000
003FFFFC0000
003FFFFC0000
003FFFFC0000
07FE007FE000
07FE007FE000
07FE007FE000
07FE007FE000
07FE007FE000
07FE007FE000
07FE007FE000
07FE007FE000
07FE007FE000
07FE007FE000
07FE007FE000
07FE007FE000
07FE007FE000
07FE007FE000
07FE007FE000
07FE007FE000
07FE007FE000
07FE007FE000
07FE007FE000
07FE007FE000
FFFFFFFFFF00
FFFFFFFFFF00
FFFFFFFFFF00
FFFFFFFFFF00
FFFFFFFFFF00
FFFFFFFFFF00
FFFFFFFFFF00
FFFFFFFFFF00
FFFFFFFFFF00
FFFFFFFFFF00
FFFFFFFFFF00
FFFFFFFFFF00
FFFFFFFFFF00
FFFFFFFFFF00
FFFFFFFFFF00
FFFFFFFFFF00
FFFFFFFFFF00
FFFFFFFFFF00
FFFFFFFFFF00
FFFFFFFFFF00
FFC00003FF00
FFC00003FF00
FFC00003FF00
FFC00003FF00
FFC00003FF00
FFC00003FF00
FFC00003FF00
FFC00003FF00
FFC00003FF00
FFC00003FF00
FFC00003FF00
FFC00003FF00
FFC00003FF00
FFC00003FF00
FFC00003FF00
FFC00003FF00
FFC00003FF00
FFC00003FF00
FFC00003FF00
FFC00003FF00
FFC00003FF00
FFC00003FF00
FFC00003FF00
FFC00003FF00
FFC00003FF00
FFC00003FF00
FFC00003FF00
FFC00003FF00
FFC00003FF00
FFC00003FF00
FFC00003FF00
FFC00003FF00
FFC00003FF00
FFC00003FF00
FFC00003FF00
FFC00003FF00
FFC00003FF00
FFC00003FF00
FFC00003FF00
FFC00003FF00
000000000000
000000000000
000000000000
000000000000
000000000000
000000000000
000000000000
000000000000
000000000000
000000000000
000000000000
000000000000
000000000000
000000000000
000000000000
000000000000
000000000000
000000000000
000000000000
000000000000
000000000000
000000000000
000000000000
000000000000
000000000000
000000000000
000000000000
000000000000
000000000000
000000000000
000000000000
000000000000
000000000000
000000000000
000000000000
000000000000
000000000000
000000000000
000000000000
000000000000
ENDCHAR
STARTCHAR U+00C1
ENCODING 193
SWIDTH 1000 0
BBX 45 200 0 -40
DWIDTH 45 0
BITMAP
0001FFFC0000
0001FFFC0000
0001FFFC0000
0001FFFC0000
0001FFFC0000
0001FFFC0000
0001FFFC0000
0001FFFC0000
0001FFFC0000
0001FFFC0000
0001FFFC0000
0001FFFC0000
0001FFFC0000
0001FFFC0000
0001FFFC0000
0001FFFC0000
0001FFFC0000
0001FFFC0000
0001FFFC0000
0001FFFC0000
07FFF0000000
07FFF0000000
07FFF0000000
07FFF0000000
07FFF0000000
07FFF0000000
07FFF0000000
07FFF0000000
07FFF0000000
07FFF0000000
07FFF0000000
07FFF0000000
07FFF0000000
07FFF0000000
07FFF0000000
07FFF0000000
07FFF0000000
07FFF0000000
07FFF0000000
07FFF0000000
0001FF800000
0001FF800000
0001FF800000
0001FF800000
0001FF800000
0001FF800000
0001FF800000
0001FF800000
0001FF800000
0001FF800000
0001FF800000
0001FF800000
0001FF800000
0001FF800000
0001FF800000
0001FF800000
0001FF800000
0001FF800000
0001FF800000
0001FF800000
003FFFFC0000
003FFFFC0000
003FFFFC0000
003FFFFC0000
003FFFFC0000
003FFFFC0000
003FFFFC0000
003FFFFC0000
003FFFFC0000
003FFFFC0000
003FFFFC0000
003FFFFC0000
003FFFFC0000
003FFFFC0000
003FFFFC0000
003FFFFC0000
003FFFFC0000
003FFFFC0000
003FFFFC0000
003FFFFC0000
07FE007FE000
07FE007FE000
07FE007FE000
07FE007FE000
07FE007FE000
07FE007FE000
07FE007FE000
07FE007FE000
07FE007FE000
07FE007FE000
07FE007FE000
07FE007FE000
07FE007FE000
07FE007FE000
07FE007FE000
07FE007FE000
07FE007FE000
07FE007FE000
07FE007FE000
07FE007FE000
FFFFFFFFFF00
FFFFFFFFFF00
FFFFFFFFFF00
FFFFFFFFFF00
FFFFFFFFFF00
FFFFFFFFFF00
FFFFFFFFFF00
FFFFFFFFFF00
FFFFFFFFFF00
FFFFFFFFFF00
FFFFFFFFFF00
FFFFFFFFFF00
FFFFFFFFFF00
FFFFFFFFFF00
FFFFFFFFFF00
FFFFFFFFFF00
FFFFFFFFFF00
FFFFFFFFFF00
FFFFFFFFFF00
FFFFFFFFFF00
FFC00003FF00
FFC00003FF00
FFC00003FF00
FFC00003FF00
FFC00003FF00
FFC00003FF00
FFC00003FF00
FFC00003FF00
FFC00003FF00
FFC00003FF00
FFC00003FF00
FFC00003FF00
FFC00003FF00
FFC00003FF00
FFC00003FF00
FFC00003FF00
FFC00003FF00
FFC00003FF00
FFC00003FF00
FFC00003FF00
FFC00003FF00
FFC00003FF00
FFC00003FF00
FFC00003FF00
FFC00003FF00
FFC00003FF00
FFC00003FF00
FFC00003FF00
FFC00003FF00
FFC00003FF00
FFC00003FF00
FFC00003FF00
FFC00003FF00
FFC00003FF00
FFC00003FF00
FFC00003FF00
FFC00003FF00
FFC00003FF00
FFC00003FF00
FFC00003FF00
000000000000
000000000000
000000000000
000000000000
000000000000
000000000000
000000000000
000000000000
000000000000
000000000000
000000000000
000000000000
000000000000
000000000000
000000000000
000000000000
000000000000
000000000000
000000000000
000000000000
000000000000
000000000000
000000000000
000000000000
000000000000
000000000000
000000000000
000000000000
000000000000
000000000000
000000000000
000000000000
000000000000
000000000000
000000000000
000000000000
000000000000
000000000000
000000000000
000000000000
ENDCHAR
STARTCHAR U+00C0
ENCODING 192
SWIDTH 1000 0
BBX 45 200 0 -40
DWIDTH 45 0
BITMAP
003FFF800000
003FFF800000
003FFF800000
003FFF800000
003FFF800000
003FFF800000
003FFF800000
003FFF800000
003FFF800000
003FFF800000
003FFF800000
003FFF800000
003FFF800000
003FFF800000
003FFF800000
003FFF800000
003FFF800000
003FFF800000
003FFF800000
003FFF800000
00000FFFE000
00000FFFE000
00000FFFE000
00000FFFE000
00000FFFE000
00000FFFE000
00000FFFE000
00000FFFE000
00000FFFE000
00000FFFE000
00000FFFE000
00000FFFE000
00000FFFE000
00000FFFE000
00000FFFE000
00000FFFE000
00000FFFE000
00000FFFE000
00000FFFE000
00000FFFE000
0001FF800000
0001FF800000
0001FF800000
0001FF800000
0001FF800000
0001FF800000
0001FF800000
0001FF800000
0001FF800000
0001FF800000
0001FF800000
0001FF800000
0001FF800000
0001FF800000
0001FF800000
0001FF800000
0001FF800000
0001FF800000
0001FF800000
0001FF800000
003FFFFC0000
003FFFFC0000
003FFFFC0000
003FFFFC0000
003FFFFC0000
003FFFFC0000
003FFFFC0000
003FFFFC0000
003FFFFC0000
003FFFFC0000
003FFFFC0000
003FFFFC0000
003FFFFC0000
003FFFFC0000
003FFFFC0000
003FFFFC0000
003FFFFC0000
003FFFFC0000
003FFFFC0000
003FFFFC0000
07FE007FE000
07FE007FE000
07FE007FE000
07FE007FE000
07FE007FE000
07FE007FE000
07FE007FE000
07FE007FE000
07FE007FE000
07FE007FE000
07FE007FE000
07FE007FE000
07FE007FE000
07FE007FE000
07FE007FE000
07FE007FE000
07FE007FE000
07FE007FE000
07FE007FE000
07FE007FE000
FFFFFFFFFF00
FFFFFFFFFF00
FFFFFFFFFF00
FFFFFFFFFF00
FFFFFFFFFF00
FFFFFFFFFF00
FFFFFFFFFF00
FFFFFFFFFF00
FFFFFFFFFF00
FFFFFFFFFF00
FFFFFFFFFF00
FFFFFFFFFF00
FFFFFFFFFF00
FFFFFFFFFF00
FFFFFFFFFF00
FFFFFFFFFF00
FFFFFFFFFF00
FFFFFFFFFF00
FFFFFFFFFF00
FFFFFFFFFF00
FFC00003FF00
FFC00003FF00
FFC00003FF00
FFC00003FF00
FFC00003FF00
FFC00003FF00
FFC00003FF00
FFC00003FF00
FFC00003FF00
FFC00003FF00
FFC00003FF00
FFC00003FF00
FFC00003FF00
FFC00003FF00
FFC00003FF00
FFC00003FF00
FFC00003FF00
FFC00003FF00
FFC00003FF00
FFC00003FF00
FFC00003FF00
FFC00003FF00
FFC00003FF00
FFC00003FF00
FFC00003FF00
FFC00003FF00
FFC00003FF00
FFC00003FF00
FFC00003FF00
FFC00003FF00
FFC00003FF00
FFC00003FF00
FFC00003FF00
FFC00003FF00
FFC00003FF00
FFC00003FF00
FFC00003FF00
FFC00003FF00
FFC00003FF00
FFC00003FF00
000000000000
000000000000
000000000000
000000000000
000000000000
000000000000
000000000000
000000000000
000000000000
000000000000
000000000000
000000000000
000000000000
000000000000
000000000000
000000000000
000000000000
000000000000
000000000000
000000000000
000000000000
000000000000
000000000000
000000000000
000000000000
000000000000
000000000000
000000000000
000000000000
000000000000
000000000000
000000000000
000000000000
000000000000
000000000000
000000000000
000000000000
000000000000
000000000000
000000000000
ENDCHAR
STARTCHAR U+00BF
ENCODING 191
SWIDTH 1000 0
BBX 45 200 0 -40
DWIDTH 45 0
BITMAP
000000000000
000000000000
000000000000
000000000000
000000000000
000000000000
000000000000
000000000000
000000000000
000000000000
000000000000
000000000000
000000000000
000000000000
000000000000
000000000000
000000000000
000000000000
000000000000
000000000000
0001FF800000
0001FF800000
0001FF800000
0001FF800000
0001FF800000
0001FF800000
0001FF800000
0001FF800000
0001FF800000
0001FF800000
0001FF800000
0001FF800000
0001FF800000
0001FF800000
0001FF800000
0001FF800000
0001FF800000
0001FF800000
0001FF800000
0001FF800000
000000000000
000000000000
000000000000
000000000000
000000000000
000000000000
000000000000
000000000000
000000000000
000000000000
000000000000
000000000000
000000000000
000000000000
000000000000
000000000000
000000000000
000000000000
000000000000
000000000000
0001FF800000
0001FF800000
0001FF800000
0001FF800000
0001FF800000
0001FF800000
0001FF800000
0001FF800000
0001FF800000
0001FF800000
0001FF800000
0001FF800000
0001FF800000
0001FF800000
0001FF800000
0001FF800000
0001FF800000
0001FF800000
0001FF800000
0001FF800000
0001FF800000
0001FF800000
0001FF800000
0001FF800000
0001FF800000
0001FF800000
0001FF800000
0001FF800000
0001FF800000
0001FF800000
0001FF800000
0001FF800000
0001FF800000
0001FF800000
0001FF800000
0001FF800000
0001FF800000
0001FF800000
0001FF800000
0001FF800000
07FFF0000000
07FFF0000000
07FFF0000000
07FFF0000000
07FFF0000000
07FFF0000000
07FFF0000000
07FFF0000000
07FFF0000000
07FFF0000000
07FFF0000000
07FFF0000000
07FFF0000000
07FFF0000000
07FFF0000000
07FFF0000000
07FFF0000000
07FFF0000000
07FFF0000000
07FFF0000000
FFC00003FF00
FFC00003FF00
FFC00003FF00
FFC00003FF00
FFC00003FF00
FFC00003FF00
FFC00003FF00
FFC00003FF00
FFC00003FF00
FFC00003FF00
FFC00003FF00
FFC00003FF00
FFC00003FF00
FFC00003FF00
FFC00003FF00
FFC00003FF00
FFC00003FF00
FFC00003FF00
FFC00003FF00
FFC00003FF00
07FFFFFFE000
07FFFFFFE000
07FFFFFFE000
07FFFFFFE000
07FFFFFFE000
07FFFFFFE000
07FFFFFFE000
07FFFFFFE000
07FFFFFFE000
07FFFFFFE000
07FFFFFFE000
07FFFFFFE000
07FFFFFFE000
07FFFFFFE000
07FFFFFFE000
07FFFFFFE000
07FFFFFFE000
07FFFFFFE000
07FFFFFFE000
07FFFFFFE000
000000000000
000000000000
000000000000
000000000000
000000000000
000000000000
000000000000
000000000000
000000000000
000000000000
000000000000
000000000000
000000000000
000000000000
000000000000
000000000000
000000000000
000000000000
000000000000
000000000000
000000000000
000000000000
000000000000
000000000000
000000000000
000000000000
000000000000
000000000000
000000000000
000000000000
000000000000
000000000000
000000000000
000000000000
000000000000
000000000000
000000000000
000000000000
000000000000
000000000000
ENDCHAR
STARTCHAR U+00BE
ENCODING 190
SWIDTH 1000 0
BBX 45 200 0 -40
DWIDTH 45 0
BITMAP
000000000000
000000000000
000000000000
000000000000
000000000000
000000000000
000000000000
000000000000
000000000000
000000000000
000000000000
000000000000
000000000000
000000000000
000000000000
000000000000
000000000000
000000000000
000000000000
000000000000
FFFFF0000000
FFFFF0000000
FFFFF0000000
FFFFF0000000
FFFFF0000000
FFFFF0000000
FFFFF0000000
FFFFF0000000
FFFFF0000000
FFFFF0000000
FFFFF0000000
FFFFF0000000
FFFFF0000000
FFFFF0000000
FFFFF0000000
FFFFF0000000
FFFFF0000000
FFFFF0000000
FFFFF0000000
FFFFF0000000
FFC1FF800000
FFC1FF800000
FFC1FF800000
FFC1FF800000
FFC1FF800000
FFC1FF800000
FFC1FF800000
FFC1FF800000
FFC1FF800000
FFC1FF800000
FFC1FF800000
FFC1FF800000
FFC1FF800000
FFC1FF800000
FFC1FF800000
FFC1FF800000
FFC1FF800000
FFC1FF800000
FFC1FF800000
FFC1FF800000
FFFFF0000000
FFFFF0000000
FFFFF0000000
FFFFF0000000
FFFFF0000000
FFFFF0000000
FFFFF0000000
FFFFF0000000
FFFFF0000000
FFFFF0000000
FFFFF0000000
FFFFF0000000
FFFFF0000000
FFFFF0000000
FFFFF0000000
FFFFF0000000
FFFFF0000000
FFFFF0000000
FFFFF0000000
FFFFF0000000
FFC1FF800000
FFC1FF800000
FFC1FF800000
FFC1FF800000
FFC1FF800000
FFC1FF800000
FFC1FF800000
FFC1FF800000
FFC1FF800000
FFC1FF800000
FFC1FF800000
FFC1FF800000
FFC1FF800000
FFC1FF800000
FFC1FF800000
FFC1FF800000
FFC1FF800000
FFC1FF800000
FFC1FF800000
FFC1FF800000
FFFFFFFFFF00
FFFFFFFFFF00
FFFFFFFFFF00
FFFFFFFFFF00
FFFFFFFFFF00
FFFFFFFFFF00
FFFFFFFFFF00
FFFFFFFFFF00
FFFFFFFFFF00
FFFFFFFFFF00
FFFFFFFFFF00
FFFFFFFFFF00
FFFFFFFFFF00
FFFFFFFFFF00
FFFFFFFFFF00
FFFFFFFFFF00
FFFFFFFFFF00
FFFFFFFFFF00
FFFFFFFFFF00
FFFFFFFFFF00
0001FF800000
0001FF800000
0001FF800000
0001FF800000
0001FF800000
0001FF800000
0001FF800000
0001FF800000
0001FF800000
0001FF800000
0001FF800000
0001FF800000
0001FF800000
0001FF800000
0001FF800000
0001FF800000
0001FF800000
0001FF800000
0001FF800000
0001FF800000
0001FFFFE000
0001FFFFE000
0001FFFFE000
0001FFFFE000
0001FFFFE000
0001FFFFE000
0001FFFFE000
0001FFFFE000
0001FFFFE000
0001FFFFE000
0001FFFFE000
0001FFFFE000
0001FFFFE000
0001FFFFE000
0001FFFFE000
0001FFFFE000
0001FFFFE000
0001FFFFE000
0001FFFFE000
0001FFFFE000
0001FF800000
0001FF800000
0001FF800000
0001FF800000
0001FF800000
0001FF800000
0001FF800000
0001FF800000
0001FF800000
0001FF800000
0001FF800000
0001FF800000
0001FF800000
0001FF800000
0001FF800000
0001FF800000
0001FF800000
0001FF800000
0001FF800000
0001FF800000
0001FFFFFF00
0001FFFFFF00
0001FFFFFF00
0001FFFFFF00
0001FFFFFF00
0001FFFFFF00
0001FFFFFF00
0001FFFFFF00
0001FFFFFF00
0001FFFFFF00
0001FFFFFF00
0001FFFFFF00
0001FFFFFF00
0001FFFFFF00
0001FFFFFF00
0001FFFFFF00
0001FFFFFF00
0001FFFFFF00
0001FFFFFF00
0001FFFFFF00
ENDCHAR
STARTCHAR U+00BD
ENCODING 189
SWIDTH 1000 0
BBX 45 200 0 -40
DWIDTH 45 0
BITMAP
000000000000
000000000000
000000000000
000000000000
000000000000
000000000000
000000000000
000000000000
000000000000
000000000000
000000000000
000000000000
000000000000
000000000000
000000000000
000000000000
000000000000
000000000000
000000000000
000000000000
07FE00000000
07FE00000000
07FE00000000
07FE00000000
07FE00000000
07FE00000000
07FE00000000
07FE00000000
07FE00000000
07FE00000000
07FE00000000
07FE00000000
07FE00000000
07FE00000000
07FE00000000
07FE00000000
07FE00000000
07FE00000000
07FE00000000
07FE00000000
FFFE007FE000
FFFE007FE000
FFFE007FE000
FFFE007FE000
FFFE007FE000
FFFE007FE000
FFFE007FE000
FFFE007FE000
FFFE007FE000
FFFE007FE000
FFFE007FE000
FFFE007FE000
FFFE007FE000
FFFE007FE000
FFFE007FE000
FFFE007FE000
FFFE007FE000
FFFE007FE000
FFFE007FE000
FFFE007FE000
07FE0FFC0000
07FE0FFC0000
07FE0FFC0000
07FE0FFC0000
07FE0FFC0000
07FE0FFC0000
07FE0FFC0000
07FE0FFC0000
07FE0FFC0000
07FE0FFC0000
07FE0FFC0000
07FE0FFC0000
07FE0FFC0000
07FE0FFC0000
07FE0FFC0000
07FE0FFC0000
07FE0FFC0000
07FE0FFC0000
07FE0FFC0000
07FE0FFC0000
07FFFF800000
07FFFF800000
07FFFF800000
07FFFF800000
07FFFF800000
07FFFF800000
07FFFF800000
07FFFF800000
07FFFF800000
07FFFF800000
07FFFF800000
07FFFF800000
07FFFF800000
07FFFF800000
07FFFF800000
07FFFF800000
07FFFF800000
07FFFF800000
07FFFF800000
07FFFF800000
003FFFFFE000
003FFFFFE000
003FFFFFE000
003FFFFFE000
003FFFFFE000
003FFFFFE000
003FFFFFE000
003FFFFFE000
003FFFFFE000
003FFFFFE000
003FFFFFE000
003FFFFFE000
003FFFFFE000
003FFFFFE000
003FFFFFE000
003FFFFFE000
003FFFFFE000
003FFFFFE000
003FFFFFE000
003FFFFFE000
07FFFF83FF00
07FFFF83FF00
07FFFF83FF00
07FFFF83FF00
07FFFF83FF00
07FFFF83FF00
07FFFF83FF00
07FFFF83FF00
07FFFF83FF00
07FFFF83FF00
07FFFF83FF00
07FFFF83FF00
07FFFF83FF00
07FFFF83FF00
07FFFF83FF00
07FFFF83FF00
07FFFF83FF00
07FFFF83FF00
07FFFF83FF00
07FFFF83FF00
FFC0007FE000
FFC0007FE000
FFC0007FE000
FFC0007FE000
FFC0007FE000
FFC0007FE000
FFC0007FE000
FFC0007FE000
FFC0007FE000
FFC0007FE000
FFC0007FE000
FFC0007FE000
FFC0007FE000
FFC0007FE000
FFC0007FE000
FFC0007FE000
FFC0007FE000
FFC0007FE000
FFC0007FE000
FFC0007FE000
00000FFC0000
00000FFC0000
00000FFC0000
00000FFC0000
00000FFC0000
00000FFC0000
00000FFC0000
00000FFC0000
00000FFC0000
00000FFC0000
00000FFC0000
00000FFC0000
00000FFC0000
00000FFC0000
00000FFC0000
00000FFC0000
00000FFC0000
00000FFC0000
00000FFC0000
00000FFC0000
0001FFFFFF00
0001FFFFFF00
0001FFFFFF00
0001FFFFFF00
0001FFFFFF00
0001FFFFFF00
0001FFFFFF00
0001FFFFFF00
0001FFFFFF00
0001FFFFFF00
0001FFFFFF00
0001FFFFFF00
0001FFFFFF00
0001FFFFFF00
0001FFFFFF00
0001FFFFFF00
0001FFFFFF00
0001FFFFFF00
0001FFFFFF00
0001FFFFFF00
ENDCHAR
STARTCHAR U+00BC
ENCODING 188
SWIDTH 1000 0
BBX 45 200 0 -40
DWIDTH 45 0
BITMAP
000000000000
000000000000
000000000000
000000000000
000000000000
000000000000
000000000000
000000000000
000000000000
000000000000
000000000000
000000000000
000000000000
000000000000
000000000000
000000000000
000000000000
000000000000
000000000000
000000000000
07FE00000000
07FE00000000
07FE00000000
07FE00000000
07FE00000000
07FE00000000
07FE00000000
07FE00000000
07FE00000000
07FE00000000
07FE00000000
07FE00000000
07FE00000000
07FE00000000
07FE00000000
07FE00000000
07FE00000000
07FE00000000
07FE00000000
07FE00000000
FFFE007FE000
FFFE007FE000
FFFE007FE000
FFFE007FE000
FFFE007FE000
FFFE007FE000
FFFE007FE000
FFFE007FE000
FFFE007FE000
FFFE007FE000
FFFE007FE000
FFFE007FE000
FFFE007FE000
FFFE007FE000
FFFE007FE000
FFFE007FE000
FFFE007FE000
FFFE007FE000
FFFE007FE000
FFFE007FE000
07FE0FFC0000
07FE0FFC0000
07FE0FFC0000
07FE0FFC0000
07FE0FFC0000
07FE0FFC0000
07FE0FFC0000
07FE0FFC0000
07FE0FFC0000
07FE0FFC0000
07FE0FFC0000
07FE0FFC0000
07FE0FFC0000
07FE0FFC0000
07FE0FFC0000
07FE0FFC0000
07FE0FFC0000
07FE0FFC0000
07FE0FFC0000
07FE0FFC0000
07FFFF800000
07FFFF800000
07FFFF800000
07FFFF800000
07FFFF800000
07FFFF800000
07FFFF800000
07FFFF800000
07FFFF800000
07FFFF800000
07FFFF800000
07FFFF800000
07FFFF800000
07FFFF800000
07FFFF800000
07FFFF800000
07FFFF800000
07FFFF800000
07FFFF800000
07FFFF800000
003FF07FE000
003FF07FE000
003FF07FE000
003FF07FE000
003FF07FE000
003FF07FE000
003FF07FE000
003FF07FE000
003FF07FE000
003FF07FE000
003FF07FE000
003FF07FE000
003FF07FE000
003FF07FE000
003FF07FE000
003FF07FE000
003FF07FE000
003FF07FE000
003FF07FE000
003FF07FE000
07FE0FFFE000
07FE0FFFE000
07FE0FFFE000
07FE0FFFE000
07FE0FFFE000
07FE0FFFE000
07FE0FFFE000
07FE0FFFE000
07FE0FFFE000
07FE0FFFE000
07FE0FFFE000
07FE0FFFE000
07FE0FFFE000
07FE0FFFE000
07FE0FFFE000
07FE0FFFE000
07FE0FFFE000
07FE0FFFE000
07FE0FFFE000
07FE0FFFE000
FFC1FFFFE000
FFC1FFFFE000
FFC1FFFFE000
FFC1FFFFE000
FFC1FFFFE000
FFC1FFFFE000
FFC1FFFFE000
FFC1FFFFE000
FFC1FFFFE000
FFC1FFFFE000
FFC1FFFFE000
FFC1FFFFE000
FFC1FFFFE000
FFC1FFFFE000
FFC1FFFFE000
FFC1FFFFE000
FFC1FFFFE000
FFC1FFFFE000
FFC1FFFFE000
FFC1FFFFE000
003FFFFFFF00
003FFFFFFF00
003FFFFFFF00
003FFFFFFF00
003FFFFFFF00
003FFFFFFF00
003FFFFFFF00
003FFFFFFF00
003FFFFFFF00
003FFFFFFF00
003FFFFFFF00
003FFFFFFF00
003FFFFFFF00
003FFFFFFF00
003FFFFFFF00
003FFFFFFF00
003FFFFFFF00
003FFFFFFF00
003FFFFFFF00
003FFFFFFF00
0000007FE000
0000007FE000
0000007FE000
0000007FE000
0000007FE000
0000007FE000
0000007FE000
0000007FE000
0000007FE000
0000007FE000
0000007FE000
0000007FE000
0000007FE000
0000007FE000
0000007FE000
0000007FE000
0000007FE000
0000007FE000
0000007FE000
0000007FE000
ENDCHAR
STARTCHAR U+00BB
ENCODING 187
SWIDTH 1000 0
BBX 45 200 0 -40
DWIDTH 45 0
BITMAP
000000000000
000000000000
000000000000
000000000000
000000000000
000000000000
000000000000
000000000000
000000000000
000000000000
000000000000
000000000000
000000000000
000000000000
000000000000
000000000000
000000000000
000000000000
000000000000
000000000000
FFC1FF800000
FFC1FF800000
FFC1FF800000
FFC1FF800000
FFC1FF800000
FFC1FF800000
FFC1FF800000
FFC1FF800000
FFC1FF800000
FFC1FF800000
FFC1FF800000
FFC1FF800000
FFC1FF800000
FFC1FF800000
FFC1FF800000
FFC1FF800000
FFC1FF800000
FFC1FF800000
FFC1FF800000
FFC1FF800000
07FE0FFC0000
07FE0FFC0000
07FE0FFC0000
07FE0FFC0000
07FE0FFC0000
07FE0FFC0000
07FE0FFC0000
07FE0FFC0000
07FE0FFC0000
07FE0FFC0000
07FE0FFC0000
07FE0FFC0000
07FE0FFC0000
07FE0FFC0000
07FE0FFC0000
07FE0FFC0000
07FE0FFC0000
07FE0FFC0000
07FE0FFC0000
07FE0FFC0000
003FF07FE000
003FF07FE000
003FF07FE000
003FF07FE000
003FF07FE000
003FF07FE000
003FF07FE000
003FF07FE000
003FF07FE000
003FF07FE000
003FF07FE000
003FF07FE000
003FF07FE000
003FF07FE000
003FF07FE000
003FF07FE000
003FF07FE000
003FF07FE000
003FF07FE000
003FF07FE000
0001FF83FF00
0001FF83FF00
0001FF83FF00
0001FF83FF00
0001FF83FF00
0001FF83FF00
0001FF83FF00
0001FF83FF00
0001FF83FF00
0001FF83FF00
0001FF83FF00
0001FF83FF00
0001FF83FF00
0001FF83FF00
0001FF83FF00
0001FF83FF00
0001FF83FF00
0001FF83FF00
0001FF83FF00
0001FF83FF00
003FF07FE000
003FF07FE000
003FF07FE000
003FF07FE000
003FF07FE000
003FF07FE000
003FF07FE000
003FF07FE000
003FF07FE000
003FF07FE000
003FF07FE000
003FF07FE000
003FF07FE000
003FF07FE000
003FF07FE000
003FF07FE000
003FF07FE000
003FF07FE000
003FF07FE000
003FF07FE000
07FE0FFC0000
07FE0FFC0000
07FE0FFC0000
07FE0FFC0000
07FE0FFC0000
07FE0FFC0000
07FE0FFC0000
07FE0FFC0000
07FE0FFC0000
07FE0FFC0000
07FE0FFC0000
07FE0FFC0000
07FE0FFC0000
07FE0FFC0000
07FE0FFC0000
07FE0FFC0000
07FE0FFC0000
07FE0FFC0000
07FE0FFC0000
07FE0FFC0000
FFC1FF800000
FFC1FF800000
FFC1FF800000
FFC1FF800000
FFC1FF800000
FFC1FF800000
FFC1FF800000
FFC1FF800000
FFC1FF800000
FFC1FF800000
FFC1FF800000
FFC1FF800000
FFC1FF800000
FFC1FF800000
FFC1FF800000
FFC1FF800000
FFC1FF800000
FFC1FF800000
FFC1FF800000
FFC1FF800000
000000000000
000000000000
000000000000
000000000000
000000000000
000000000000
000000000000
000000000000
000000000000
000000000000
000000000000
000000000000
000000000000
000000000000
000000000000
000000000000
000000000000
000000000000
000000000000
000000000000
000000000000
000000000000
000000000000
000000000000
000000000000
000000000000
000000000000
000000000000
000000000000
000000000000
000000000000
000000000000
000000000000
000000000000
000000000000
000000000000
000000000000
000000000000
000000000000
000000000000
ENDCHAR
STARTCHAR U+00BA
ENCODING 186
SWIDTH 1000 0
BBX 45 200 0 -40
DWIDTH 45 0
BITMAP
000000000000
000000000000
000000000000
000000000000
000000000000
000000000000
000000000000
000000000000
000000000000
000000000000
000000000000
000000000000
000000000000
000000000000
000000000000
000000000000
000000000000
000000000000
000000000000
000000000000
07FFFFFFE000
07FFFFFFE000
07FFFFFFE000
07FFFFFFE000
07FFFFFFE000
07FFFFFFE000
07FFFFFFE000
07FFFFFFE000
07FFFFFFE000
07FFFFFFE000
07FFFFFFE000
07FFFFFFE000
07FFFFFFE000
07FFFFFFE000
07FFFFFFE000
07FFFFFFE000
07FFFFFFE000
07FFFFFFE000
07FFFFFFE000
07FFFFFFE000
FFC00003FF00
FFC00003FF00
FFC00003FF00
FFC00003FF00
FFC00003FF00
FFC00003FF00
FFC00003FF00
FFC00003FF00
FFC00003FF00
FFC00003FF00
FFC00003FF00
FFC00003FF00
FFC00003FF00
FFC00003FF00
FFC00003FF00
FFC00003FF00
FFC00003FF00
FFC00003FF00
FFC00003FF00
FFC00003FF00
FFC00003FF00
FFC00003FF00
FFC00003FF00
FFC00003FF00
FFC00003FF00
FFC00003FF00
FFC00003FF00
FFC00003FF00
FFC00003FF00
FFC00003FF00
FFC00003FF00
FFC00003FF00
FFC00003FF00
FFC00003FF00
FFC00003FF00
FFC00003FF00
FFC00003FF00
FFC00003FF00
FFC00003FF00
FFC00003FF00
FFC00003FF00
FFC00003FF00
FFC00003FF00
FFC00003FF00
FFC00003FF00
FFC00003FF00
FFC00003FF00
FFC00003FF00
FFC00003FF00
FFC00003FF00
FFC00003FF00
FFC00003FF00
FFC00003FF00
FFC00003FF00
FFC00003FF00
FFC00003FF00
FFC00003FF00
FFC00003FF00
FFC00003FF00
FFC00003FF00
07FFFFFFE000
07FFFFFFE000
07FFFFFFE000
07FFFFFFE000
07FFFFFFE000
07FFFFFFE000
07FFFFFFE000
07FFFFFFE000
07FFFFFFE000
07FFFFFFE000
07FFFFFFE000
07FFFFFFE000
07FFFFFFE000
07FFFFFFE000
07FFFFFFE000
07FFFFFFE000
07FFFFFFE000
07FFFFFFE000
07FFFFFFE000
07FFFFFFE000
000000000000
000000000000
000000000000
000000000000
000000000000
000000000000
000000000000
000000000000
000000000000
000000000000
000000000000
000000000000
000000000000
000000000000
000000000000
000000000000
000000000000
000000000000
000000000000
000000000000
FFFFFFFFFF00
FFFFFFFFFF00
FFFFFFFFFF00
FFFFFFFFFF00
FFFFFFFFFF00
FFFFFFFFFF00
FFFFFFFFFF00
FFFFFFFFFF00
FFFFFFFFFF00
FFFFFFFFFF00
FFFFFFFFFF00
FFFFFFFFFF00
FFFFFFFFFF00
FFFFFFFFFF00
FFFFFFFFFF00
FFFFFFFFFF00
FFFFFFFFFF00
FFFFFFFFFF00
FFFFFFFFFF00
FFFFFFFFFF00
000000000000
000000000000
000000000000
000000000000
000000000000
000000000000
000000000000
000000000000
000000000000
000000000000
000000000000
000000000000
000000000000
000000000000
000000000000
000000000000
000000000000
000000000000
000000000000
000000000000
000000000000
000000000000
000000000000
000000000000
000000000000
000000000000
000000000000
000000000000
000000000000
000000000000
000000000000
000000000000
000000000000
000000000000
000000000000
000000000000
000000000000
000000000000
000000000000
000000000000
ENDCHAR
STARTCHAR U+00B9
ENCODING 185
SWIDTH 1000 0
BBX 45 200 0 -40
DWIDTH 45 0
BITMAP
0001FF800000
0001FF800000
0001FF800000
0001FF800000
0001FF800000
0001FF800000
0001FF800000
0001FF800000
0001FF800000
0001FF800000
0001FF800000
0001FF800000
0001FF800000
0001FF800000
0001FF800000
0001FF800000
0001FF800000
0001FF800000
0001FF800000
0001FF800000
003FFF800000
003FFF800000
003FFF800000
003FFF800000
003FFF800000
003FFF800000
003FFF800000
003FFF800000
003FFF800000
003FFF800000
003FFF800000
003FFF800000
003FFF800000
003FFF800000
003FFF800000
003FFF800000
003FFF800000
003FFF800000
003FFF800000
003FFF800000
0001FF800000
0001FF800000
0001FF800000
0001FF800000
0001FF800000
0001FF800000
0001FF800000
0001FF800000
0001FF800000
0001FF800000
0001FF800000
0001FF800000
0001FF800000
0001FF800000
0001FF800000
0001FF800000
0001FF800000
0001FF800000
0001FF800000
0001FF800000
0001FF800000
0001FF800000
0001FF800000
0001FF800000
0001FF800000
0001FF800000
0001FF800000
0001FF800000
0001FF800000
0001FF800000
0001FF800000
0001FF800000
0001FF800000
0001FF800000
0001FF800000
0001FF800000
0001FF800000
0001FF800000
0001FF800000
0001FF800000
003FFFFC0000
003FFFFC0000
003FFFFC0000
003FFFFC0000
003FFFFC0000
003FFFFC0000
003FFFFC0000
003FFFFC0000
003FFFFC0000
003FFFFC0000
003FFFFC0000
003FFFFC0000
003FFFFC0000
003FFFFC0000
003FFFFC0000
003FFFFC0000
003FFFFC0000
003FFFFC0000
003FFFFC0000
003FFFFC0000
000000000000
000000000000
000000000000
000000000000
000000000000
000000000000
000000000000
000000000000
000000000000
000000000000
000000000000
000000000000
000000000000
000000000000
000000000000
000000000000
000000000000
000000000000
000000000000
000000000000
000000000000
000000000000
000000000000
000000000000
000000000000
000000000000
000000000000
000000000000
000000000000
000000000000
000000000000
000000000000
000000000000
000000000000
000000000000
000000000000
000000000000
000000000000
000000000000
000000000000
000000000000
000000000000
000000000000
000000000000
000000000000
000000000000
000000000000
000000000000
000000000000
000000000000
000000000000
000000000000
000000000000
000000000000
000000000000
000000000000
000000000000
000000000000
000000000000
000000000000
000000000000
000000000000
000000000000
000000000000
000000000000
000000000000
000000000000
000000000000
000000000000
000000000000
000000000000
000000000000
000000000000
000000000000
000000000000
000000000000
000000000000
000000000000
000000000000
000000000000
000000000000
000000000000
000000000000
000000000000
000000000000
000000000000
000000000000
000000000000
000000000000
000000000000
000000000000
000000000000
000000000000
000000000000
000000000000
000000000000
000000000000
000000000000
000000000000
000000000000
ENDCHAR
STARTCHAR U+00B8
ENCODING 184
SWIDTH 1000 0
BBX 45 200 0 -40
DWIDTH 45 0
BITMAP
000000000000
000000000000
000000000000
000000000000
000000000000
000000000000
000000000000
000000000000
000000000000
000000000000
000000000000
000000000000
000000000000
000000000000
000000000000
000000000000
000000000000
000000000000
000000000000
000000000000
FFFFF0000000
FFFFF0000000
FFFFF0000000
FFFFF0000000
FFFFF0000000
FFFFF0000000
FFFFF0000000
FFFFF0000000
FFFFF0000000
FFFFF0000000
FFFFF0000000
FFFFF0000000
FFFFF0000000
FFFFF0000000
FFFFF0000000
FFFFF0000000
FFFFF0000000
FFFFF0000000
FFFFF0000000
FFFFF0000000
FFC1FF800000
FFC1FF800000
FFC1FF800000
FFC1FF800000
FFC1FF800000
FFC1FF800000
FFC1FF800000
FFC1FF800000
FFC1FF800000
FFC1FF800000
FFC1FF800000
FFC1FF800000
FFC1FF800000
FFC1FF800000
FFC1FF800000
FFC1FF800000
FFC1FF800000
FFC1FF800000
FFC1FF800000
FFC1FF800000
FFFFF0000000
FFFFF0000000
FFFFF0000000
FFFFF0000000
FFFFF0000000
FFFFF0000000
FFFFF0000000
FFFFF0000000
FFFFF0000000
FFFFF0000000
FFFFF0000000
FFFFF0000000
FFFFF0000000
FFFFF0000000
FFFFF0000000
FFFFF0000000
FFFFF0000000
FFFFF0000000
FFFFF0000000
FFFFF0000000
FFC1FF800000
FFC1FF800000
FFC1FF800000
FFC1FF800000
FFC1FF800000
FFC1FF800000
FFC1FF800000
FFC1FF800000
FFC1FF800000
FFC1FF800000
FFC1FF800000
FFC1FF800000
FFC1FF800000
FFC1FF800000
FFC1FF800000
FFC1FF800000
FFC1FF800000
FFC1FF800000
FFC1FF800000
FFC1FF800000
FFFFFFFFE000
FFFFFFFFE000
FFFFFFFFE000
FFFFFFFFE000
FFFFFFFFE000
FFFFFFFFE000
FFFFFFFFE000
FFFFFFFFE000
FFFFFFFFE000
FFFFFFFFE000
FFFFFFFFE000
FFFFFFFFE000
FFFFFFFFE000
FFFFFFFFE000
FFFFFFFFE000
FFFFFFFFE000
FFFFFFFFE000
FFFFFFFFE000
FFFFFFFFE000
FFFFFFFFE000
0001FF83FF00
0001FF83FF00
0001FF83FF00
0001FF83FF00
0001FF83FF00
0001FF83FF00
0001FF83FF00
0001FF83FF00
0001FF83FF00
0001FF83FF00
0001FF83FF00
0001FF83FF00
0001FF83FF00
0001FF83FF00
0001FF83FF00
0001FF83FF00
0001FF83FF00
0001FF83FF00
0001FF83FF00
0001FF83FF00
00000FFFE000
00000FFFE000
00000FFFE000
00000FFFE000
00000FFFE000
00000FFFE000
00000FFFE000
00000FFFE000
00000FFFE000
00000FFFE000
00000FFFE000
00000FFFE000
00000FFFE000
00000FFFE000
00000FFFE000
00000FFFE000
00000FFFE000
00000FFFE000
00000FFFE000
00000FFFE000
0001FF83FF00
0001FF83FF00
0001FF83FF00
0001FF83FF00
0001FF83FF00
0001FF83FF00
0001FF83FF00
0001FF83FF00
0001FF83FF00
0001FF83FF00
0001FF83FF00
0001FF83FF00
0001FF83FF00
0001FF83FF00
0001FF83FF00
0001FF83FF00
0001FF83FF00
0001FF83FF00
0001FF83FF00
0001FF83FF00
00000FFFE000
00000FFFE000
00000FFFE000
00000FFFE000
00000FFFE000
00000FFFE000
00000FFFE000
00000FFFE000
00000FFFE000
00000FFFE000
00000FFFE000
00000FFFE000
00000FFFE000
00000FFFE000
00000FFFE000
00000FFFE000
00000FFFE000
00000FFFE000
00000FFFE000
00000FFFE000
ENDCHAR
STARTCHAR U+00B7
ENCODING 183
SWIDTH 1000 0
BBX 45 200 0 -40
DWIDTH 45 0
BITMAP
000000000000
000000000000
000000000000
000000000000
000000000000
000000000000
000000000000
000000000000
000000000000
000000000000
000000000000
000000000000
000000000000
000000000000
000000000000
000000000000
000000000000
000000000000
000000000000
000000000000
000000000000
000000000000
000000000000
000000000000
000000000000
000000000000
000000000000
000000000000
000000000000
000000000000
000000000000
000000000000
000000000000
000000000000
000000000000
000000000000
000000000000
000000000000
000000000000
000000000000
000000000000
000000000000
000000000000
000000000000
000000000000
000000000000
000000000000
000000000000
000000000000
000000000000
000000000000
000000000000
000000000000
000000000000
000000000000
000000000000
000000000000
000000000000
000000000000
000000000000
003FFF800000
003FFF800000
003FFF800000
003FFF800000
003FFF800000
003FFF800000
003FFF800000
003FFF800000
003FFF800000
003FFF800000
003FFF800000
003FFF800000
003FFF800000
003FFF800000
003FFF800000
003FFF800000
003FFF800000
003FFF800000
003FFF800000
003FFF800000
003FFF800000
003FFF800000
003FFF800000
003FFF800000
003FFF800000
003FFF800000
003FFF800000
003FFF800000
003FFF800000
003FFF800000
003FFF800000
003FFF800000
003FFF800000
003FFF800000
003FFF800000
003FFF800000
003FFF800000
003FFF800000
003FFF800000
003FFF800000
000000000000
000000000000
000000000000
000000000000
000000000000
000000000000
000000000000
000000000000
000000000000
000000000000
000000000000
000000000000
000000000000
000000000000
000000000000
000000000000
000000000000
000000000000
000000000000
000000000000
000000000000
000000000000
000000000000
000000000000
000000000000
000000000000
000000000000
000000000000
000000000000
000000000000
000000000000
000000000000
000000000000
000000000000
000000000000
000000000000
000000000000
000000000000
000000000000
000000000000
000000000000
000000000000
000000000000
000000000000
000000000000
000000000000
000000000000
000000000000
000000000000
000000000000
000000000000
000000000000
000000000000
000000000000
000000000000
000000000000
000000000000
000000000000
000000000000
000000000000
000000000000
000000000000
000000000000
000000000000
000000000000
000000000000
000000000000
000000000000
000000000000
000000000000
000000000000
000000000000
000000000000
000000000000
000000000000
000000000000
000000000000
000000000000
000000000000
000000000000
000000000000
000000000000
000000000000
000000000000
000000000000
000000000000
000000000000
000000000000
000000000000
000000000000
000000000000
000000000000
000000000000
000000000000
000000000000
000000000000
000000000000
000000000000
000000000000
000000000000
ENDCHAR
ENDFONT
